<svg width="189" height="56" viewBox="0 0 189 56" fill="none" xmlns="http://www.w3.org/2000/svg">
<rect x="0.5" y="0.5" width="188" height="55" rx="4.5" fill="black"/>
<path d="M95.3908 30.4516C92.098 30.4516 89.4142 32.9562 89.4142 36.4058C89.4142 39.8344 92.098 42.36 95.3908 42.36C98.685 42.36 101.369 39.8344 101.369 36.4058C101.367 32.9562 98.6836 30.4516 95.3908 30.4516ZM95.3908 40.0164C93.5862 40.0164 92.0308 38.5282 92.0308 36.4072C92.0308 34.2638 93.5876 32.798 95.3908 32.798C97.1954 32.798 98.7508 34.2638 98.7508 36.4072C98.7508 38.5268 97.1954 40.0164 95.3908 40.0164ZM82.3512 30.4516C79.0584 30.4516 76.3746 32.9562 76.3746 36.4058C76.3746 39.8344 79.0584 42.36 82.3512 42.36C85.6454 42.36 88.3292 39.8344 88.3292 36.4058C88.3292 32.9562 85.6454 30.4516 82.3512 30.4516ZM82.3512 40.0164C80.5466 40.0164 78.9912 38.5282 78.9912 36.4072C78.9912 34.2638 80.548 32.798 82.3512 32.798C84.1558 32.798 85.7112 34.2638 85.7112 36.4072C85.7126 38.5268 84.1558 40.0164 82.3512 40.0164ZM66.842 32.28V34.8056H72.8872C72.7066 36.2266 72.2334 37.264 71.511 37.985C70.6318 38.8642 69.2556 39.8344 66.842 39.8344C63.1208 39.8344 60.2116 36.8342 60.2116 33.113C60.2116 29.3918 63.1208 26.3916 66.842 26.3916C68.8496 26.3916 70.3154 27.1812 71.3976 28.1962L73.1798 26.414C71.6678 24.9706 69.6616 23.866 66.842 23.866C61.7446 23.866 57.4592 28.0156 57.4592 33.113C57.4592 38.2104 61.7446 42.36 66.842 42.36C69.593 42.36 71.6692 41.457 73.2918 39.7658C74.9606 38.097 75.48 35.7506 75.48 33.8564C75.48 33.2712 75.4352 32.7294 75.3442 32.2786H66.842V32.28ZM130.273 34.2414C129.778 32.9114 128.266 30.4516 125.176 30.4516C122.108 30.4516 119.559 32.8652 119.559 36.4058C119.559 39.7434 122.086 42.36 125.468 42.36C128.197 42.36 129.776 40.6912 130.431 39.721L128.401 38.3672C127.725 39.3598 126.8 40.0136 125.468 40.0136C124.138 40.0136 123.191 39.4046 122.582 38.209L130.543 34.9162L130.273 34.2414ZM122.153 36.2266C122.086 33.925 123.935 32.7532 125.267 32.7532C126.304 32.7532 127.183 33.2726 127.477 34.016L122.153 36.2266ZM115.681 42.0002H118.296V24.4988H115.681V42.0002ZM111.394 31.783H111.305C110.718 31.083 109.59 30.4516 108.17 30.4516C105.192 30.4516 102.464 33.0682 102.464 36.4296C102.464 39.7672 105.192 42.3614 108.17 42.3614C109.591 42.3614 110.718 41.73 111.305 41.009H111.394V41.8658C111.394 44.1436 110.176 45.3616 108.215 45.3616C106.613 45.3616 105.621 44.2122 105.215 43.242L102.937 44.1898C103.591 45.7676 105.327 47.708 108.215 47.708C111.282 47.708 113.876 45.9034 113.876 41.5046V30.8142H111.396V31.783H111.394ZM108.395 40.0164C106.591 40.0164 105.08 38.5044 105.08 36.4296C105.08 34.331 106.591 32.798 108.395 32.798C110.176 32.798 111.575 34.331 111.575 36.4296C111.575 38.5044 110.176 40.0164 108.395 40.0164ZM142.529 24.4988H136.269V42.0002H138.88V35.3698H142.527C145.423 35.3698 148.27 33.274 148.27 29.935C148.27 26.596 145.424 24.4988 142.529 24.4988ZM142.596 32.9338H138.88V26.9348H142.596C144.549 26.9348 145.658 28.5518 145.658 29.935C145.658 31.2902 144.549 32.9338 142.596 32.9338ZM158.741 30.4208C156.849 30.4208 154.891 31.2538 154.08 33.1004L156.399 34.0678C156.894 33.1004 157.818 32.784 158.786 32.784C160.137 32.784 161.51 33.5946 161.532 35.0352V35.2158C161.059 34.9456 160.046 34.541 158.808 34.541C156.309 34.541 153.764 35.9144 153.764 38.4806C153.764 40.8228 155.813 42.3306 158.109 42.3306C159.865 42.3306 160.834 41.5424 161.441 40.6184H161.531V41.9694H164.054V35.2592C164.055 32.154 161.734 30.4208 158.741 30.4208ZM158.424 40.0122C157.57 40.0122 156.376 39.5838 156.376 38.5254C156.376 37.1744 157.863 36.6564 159.147 36.6564C160.293 36.6564 160.835 36.9042 161.532 37.2416C161.329 38.8642 159.934 40.0122 158.424 40.0122ZM173.241 30.803L170.246 38.391H170.156L167.048 30.803H164.234L168.895 41.408L166.238 47.3076H168.962L176.146 30.803H173.241ZM149.712 42.0002H152.323V24.4988H149.712V42.0002Z" fill="white"/>
<path d="M66.385 14.3402C66.385 15.5134 66.0378 16.4472 65.342 17.1444C64.5524 17.9732 63.522 18.3876 62.2564 18.3876C61.044 18.3876 60.0122 17.9676 59.1652 17.1276C58.3168 16.2862 57.8926 15.2446 57.8926 14.0014C57.8926 12.7568 58.3168 11.7152 59.1652 10.8752C60.0122 10.0338 61.044 9.61382 62.2564 9.61382C62.8584 9.61382 63.4338 9.73142 63.9798 9.96522C64.5272 10.2004 64.9654 10.5126 65.293 10.9032L64.5552 11.6424C63.9994 10.9774 63.2336 10.6456 62.255 10.6456C61.3702 10.6456 60.6058 10.9564 59.9604 11.578C59.315 12.1996 58.993 13.0074 58.993 14C58.993 14.9926 59.315 15.8004 59.9604 16.422C60.6058 17.0436 61.3702 17.3544 62.255 17.3544C63.193 17.3544 63.9756 17.0422 64.6014 16.4164C65.0074 16.009 65.2426 15.442 65.3056 14.7154H62.255V13.706H66.3248C66.3668 13.9258 66.385 14.1372 66.385 14.3402Z" fill="white"/>
<path d="M72.8391 10.8319H69.0143V13.4947H72.4639V14.5041H69.0143V17.1669H72.8391V18.2001H67.9349V9.8001H72.8391V10.8319Z" fill="white"/>
<path d="M77.3903 18.2001H76.311V10.8319H73.9645V9.8001H79.7367V10.8319H77.3903V18.2001Z" fill="white"/>
<path d="M83.9129 18.2001V9.8001H84.9923V18.2001H83.9129Z" fill="white"/>
<path d="M89.7791 18.2001H88.6997V10.8319H86.3533V9.8001H92.1255V10.8319H89.7791V18.2001Z" fill="white"/>
<path d="M103.052 17.1151C102.226 17.9635 101.2 18.3877 99.9722 18.3877C98.7444 18.3877 97.7182 17.9635 96.8936 17.1151C96.0676 16.2667 95.656 15.2279 95.656 14.0001C95.656 12.7723 96.0676 11.7335 96.8936 10.8851C97.7182 10.0367 98.7444 9.61108 99.9722 9.61108C101.193 9.61108 102.218 10.0381 103.047 10.8907C103.875 11.7433 104.29 12.7793 104.29 14.0001C104.29 15.2279 103.877 16.2667 103.052 17.1151ZM97.6902 16.4109C98.3118 17.0409 99.072 17.3545 99.9722 17.3545C100.872 17.3545 101.634 17.0395 102.254 16.4109C102.876 15.7809 103.188 14.9773 103.188 14.0001C103.188 13.0229 102.876 12.2193 102.254 11.5893C101.634 10.9593 100.872 10.6457 99.9722 10.6457C99.072 10.6457 98.3118 10.9607 97.6902 11.5893C97.07 12.2193 96.7578 13.0229 96.7578 14.0001C96.7578 14.9773 97.07 15.7809 97.6902 16.4109Z" fill="white"/>
<path d="M105.805 18.2001V9.8001H107.118L111.2 16.3339H111.246L111.2 14.7155V9.8001H112.28V18.2001H111.153L106.881 11.3485H106.835L106.881 12.9669V18.2001H105.805Z" fill="white"/>
<path d="M66.385 14.3402C66.385 15.5134 66.0378 16.4472 65.342 17.1444C64.5524 17.9732 63.522 18.3876 62.2564 18.3876C61.044 18.3876 60.0122 17.9676 59.1652 17.1276C58.3168 16.2862 57.8926 15.2446 57.8926 14.0014C57.8926 12.7568 58.3168 11.7152 59.1652 10.8752C60.0122 10.0338 61.044 9.61382 62.2564 9.61382C62.8584 9.61382 63.4338 9.73142 63.9798 9.96522C64.5272 10.2004 64.9654 10.5126 65.293 10.9032L64.5552 11.6424C63.9994 10.9774 63.2336 10.6456 62.255 10.6456C61.3702 10.6456 60.6058 10.9564 59.9604 11.578C59.315 12.1996 58.993 13.0074 58.993 14C58.993 14.9926 59.315 15.8004 59.9604 16.422C60.6058 17.0436 61.3702 17.3544 62.255 17.3544C63.193 17.3544 63.9756 17.0422 64.6014 16.4164C65.0074 16.009 65.2426 15.442 65.3056 14.7154H62.255V13.706H66.3248C66.3668 13.9258 66.385 14.1372 66.385 14.3402Z" stroke="white" stroke-width="0.2" stroke-miterlimit="10"/>
<path d="M72.8391 10.8319H69.0143V13.4947H72.4639V14.5041H69.0143V17.1669H72.8391V18.2001H67.9349V9.8001H72.8391V10.8319Z" stroke="white" stroke-width="0.2" stroke-miterlimit="10"/>
<path d="M77.3903 18.2001H76.311V10.8319H73.9645V9.8001H79.7367V10.8319H77.3903V18.2001Z" stroke="white" stroke-width="0.2" stroke-miterlimit="10"/>
<path d="M83.9129 18.2001V9.8001H84.9923V18.2001H83.9129Z" stroke="white" stroke-width="0.2" stroke-miterlimit="10"/>
<path d="M89.7791 18.2001H88.6997V10.8319H86.3533V9.8001H92.1255V10.8319H89.7791V18.2001Z" stroke="white" stroke-width="0.2" stroke-miterlimit="10"/>
<path d="M103.052 17.1151C102.226 17.9635 101.2 18.3877 99.9722 18.3877C98.7444 18.3877 97.7182 17.9635 96.8936 17.1151C96.0676 16.2667 95.656 15.2279 95.656 14.0001C95.656 12.7723 96.0676 11.7335 96.8936 10.8851C97.7182 10.0367 98.7444 9.61108 99.9722 9.61108C101.193 9.61108 102.218 10.0381 103.047 10.8907C103.875 11.7433 104.29 12.7793 104.29 14.0001C104.29 15.2279 103.877 16.2667 103.052 17.1151ZM97.6902 16.4109C98.3118 17.0409 99.072 17.3545 99.9722 17.3545C100.872 17.3545 101.634 17.0395 102.254 16.4109C102.876 15.7809 103.188 14.9773 103.188 14.0001C103.188 13.0229 102.876 12.2193 102.254 11.5893C101.634 10.9593 100.872 10.6457 99.9722 10.6457C99.072 10.6457 98.3118 10.9607 97.6902 11.5893C97.07 12.2193 96.7578 13.0229 96.7578 14.0001C96.7578 14.9773 97.07 15.7809 97.6902 16.4109Z" stroke="white" stroke-width="0.2" stroke-miterlimit="10"/>
<path d="M105.805 18.2001V9.8001H107.118L111.2 16.3339H111.246L111.2 14.7155V9.8001H112.28V18.2001H111.153L106.881 11.3485H106.835L106.881 12.9669V18.2001H105.805Z" stroke="white" stroke-width="0.2" stroke-miterlimit="10"/>
<g filter="url(#filter0_ii_321_10)">
<path d="M14.6104 10.5531C14.203 10.9843 13.9622 11.6535 13.9622 12.5201V43.4825C13.9622 44.3505 14.203 45.0183 14.6104 45.4495L14.714 45.5503L32.0586 28.2057V28.0013V27.7969L14.714 10.4509L14.6104 10.5531Z" fill="url(#paint0_linear_321_10)"/>
<path d="M37.8389 33.9888L32.0583 28.2054V28.001V27.7966L37.8403 22.0146L37.9706 22.0888L44.8207 25.9808C46.7765 27.0924 46.7765 28.911 44.8207 30.024L37.9706 33.9161L37.8389 33.9888Z" fill="url(#paint1_linear_321_10)"/>
<g filter="url(#filter1_i_321_10)">
<path d="M37.9708 33.9148L32.0571 28.0012L14.6104 45.4494C15.2544 46.1326 16.3198 46.2166 17.5196 45.5362L37.9708 33.9148Z" fill="url(#paint2_linear_321_10)"/>
</g>
<path d="M37.9708 22.0876L17.5196 10.4676C16.3198 9.78578 15.2544 9.87118 14.6104 10.5544L32.0585 28.0026L37.9708 22.0876Z" fill="url(#paint3_linear_321_10)"/>
</g>
<rect x="0.5" y="0.5" width="188" height="55" rx="4.5" stroke="#A6A6A6"/>
<defs>
<filter id="filter0_ii_321_10" x="13.9622" y="9.99707" width="32.3254" height="36.009" filterUnits="userSpaceOnUse" color-interpolation-filters="sRGB">
<feFlood flood-opacity="0" result="BackgroundImageFix"/>
<feBlend mode="normal" in="SourceGraphic" in2="BackgroundImageFix" result="shape"/>
<feColorMatrix in="SourceAlpha" type="matrix" values="0 0 0 0 0 0 0 0 0 0 0 0 0 0 0 0 0 0 127 0" result="hardAlpha"/>
<feOffset dy="-0.15"/>
<feComposite in2="hardAlpha" operator="arithmetic" k2="-1" k3="1"/>
<feColorMatrix type="matrix" values="0 0 0 0 0 0 0 0 0 0 0 0 0 0 0 0 0 0 0.12 0"/>
<feBlend mode="normal" in2="shape" result="effect1_innerShadow_321_10"/>
<feColorMatrix in="SourceAlpha" type="matrix" values="0 0 0 0 0 0 0 0 0 0 0 0 0 0 0 0 0 0 127 0" result="hardAlpha"/>
<feOffset dy="0.15"/>
<feComposite in2="hardAlpha" operator="arithmetic" k2="-1" k3="1"/>
<feColorMatrix type="matrix" values="0 0 0 0 1 0 0 0 0 1 0 0 0 0 1 0 0 0 0.25 0"/>
<feBlend mode="normal" in2="effect1_innerShadow_321_10" result="effect2_innerShadow_321_10"/>
</filter>
<filter id="filter1_i_321_10" x="14.6104" y="28.0012" width="23.3604" height="18.0049" filterUnits="userSpaceOnUse" color-interpolation-filters="sRGB">
<feFlood flood-opacity="0" result="BackgroundImageFix"/>
<feBlend mode="normal" in="SourceGraphic" in2="BackgroundImageFix" result="shape"/>
<feColorMatrix in="SourceAlpha" type="matrix" values="0 0 0 0 0 0 0 0 0 0 0 0 0 0 0 0 0 0 127 0" result="hardAlpha"/>
<feOffset dy="-0.15"/>
<feComposite in2="hardAlpha" operator="arithmetic" k2="-1" k3="1"/>
<feColorMatrix type="matrix" values="0 0 0 0 0 0 0 0 0 0 0 0 0 0 0 0 0 0 0.08 0"/>
<feBlend mode="normal" in2="shape" result="effect1_innerShadow_321_10"/>
</filter>
<linearGradient id="paint0_linear_321_10" x1="30.5211" y1="12.1925" x2="7.02628" y2="35.6873" gradientUnits="userSpaceOnUse">
<stop stop-color="#00A0FF"/>
<stop offset="0.0066" stop-color="#00A1FF"/>
<stop offset="0.2601" stop-color="#00BEFF"/>
<stop offset="0.5122" stop-color="#00D2FF"/>
<stop offset="0.7604" stop-color="#00DFFF"/>
<stop offset="1" stop-color="#00E3FF"/>
</linearGradient>
<linearGradient id="paint1_linear_321_10" x1="47.3666" y1="28.001" x2="13.4924" y2="28.001" gradientUnits="userSpaceOnUse">
<stop stop-color="#FFE000"/>
<stop offset="0.4087" stop-color="#FFBD00"/>
<stop offset="0.7754" stop-color="#FFA500"/>
<stop offset="1" stop-color="#FF9C00"/>
</linearGradient>
<linearGradient id="paint2_linear_321_10" x1="34.7593" y1="31.2127" x2="2.8974" y2="63.0746" gradientUnits="userSpaceOnUse">
<stop stop-color="#FF3A44"/>
<stop offset="1" stop-color="#C31162"/>
</linearGradient>
<linearGradient id="paint3_linear_321_10" x1="10.2163" y1="0.247296" x2="24.4435" y2="14.4745" gradientUnits="userSpaceOnUse">
<stop stop-color="#32A071"/>
<stop offset="0.0685" stop-color="#2DA771"/>
<stop offset="0.4762" stop-color="#15CF74"/>
<stop offset="0.8009" stop-color="#06E775"/>
<stop offset="1" stop-color="#00F076"/>
</linearGradient>
</defs>
</svg>
