<svg xmlns="http://www.w3.org/2000/svg" viewBox="0 0 500 500"><g id="freepik--background-complete--inject-21"><path d="M270.77,355.68a51.07,51.07,0,0,0,1.79,12.39l8.82,34.28-6.57,43.24h64.73l-4.6-24,15.18-1.65s7.9,0,8.5-6.3,1.15-20.5,1.15-20.5l9.15.51a2.73,2.73,0,0,0,2.94-2.49h0a2.52,2.52,0,0,0-.23-1.18c-1.52-3.46-9-25.24-9-25.24s5-34.94-25.6-47.78a54.54,54.54,0,0,0-37.06-1.4C287.81,319.67,270.38,331.24,270.77,355.68Z" style="fill:#ebebeb"></path><circle cx="70.94" cy="238.35" r="32.58" style="fill:#f5f5f5"></circle><path d="M70.94,264.1a25.75,25.75,0,1,1,25.75-25.75A25.78,25.78,0,0,1,70.94,264.1Zm0-46.28a20.54,20.54,0,1,0,20.54,20.53A20.55,20.55,0,0,0,70.94,217.82Z" style="fill:#e0e0e0"></path><path d="M64.1,249.65a13.83,13.83,0,0,1-5.34-19.2,13.23,13.23,0,0,1,5.34-4.92,16.54,16.54,0,0,1,7.72-1.77,14.93,14.93,0,0,1,7.41,1.77,10.44,10.44,0,0,1,4.62,5.07l-6,3.24a6.6,6.6,0,0,0-6-3.69,6.87,6.87,0,0,0-5,2,8.44,8.44,0,0,0,0,10.89,6.87,6.87,0,0,0,5,2,6.53,6.53,0,0,0,6-3.7l6,3.3a10.67,10.67,0,0,1-4.62,5,14.73,14.73,0,0,1-7.41,1.8A16.54,16.54,0,0,1,64.1,249.65Z" style="fill:#e0e0e0"></path><path d="M414.6,198.86a26.54,26.54,0,0,1,6.5-2.83l1.33-6.42,10.86-.19,1.57,6.37a27,27,0,0,1,6.59,2.59l5.49-3.59,7.81,7.54-3.4,5.61a26.68,26.68,0,0,1,2.82,6.5l6.43,1.34.19,10.86-6.38,1.56a26.5,26.5,0,0,1-2.59,6.59l3.6,5.49-7.55,7.81-5.61-3.4a26.61,26.61,0,0,1-6.49,2.82l-1.34,6.43-10.86.19L422,247.75a26.43,26.43,0,0,1-6.58-2.59l-5.49,3.6-7.82-7.55,3.4-5.61a26.61,26.61,0,0,1-2.82-6.49l-6.43-1.34-.19-10.86,6.38-1.56a26.35,26.35,0,0,1,2.59-6.59l-3.6-5.49,7.55-7.82,5.61,3.41Zm5.79,14.46a11.65,11.65,0,1,0,16.48-.29A11.66,11.66,0,0,0,420.39,213.32Z" style="fill:#f5f5f5"></path><path d="M414.18,303.17a18.75,18.75,0,0,1,4.51-2l.93-4.46,7.54-.13,1.08,4.43a18.65,18.65,0,0,1,4.58,1.8l3.81-2.5,5.42,5.24-2.36,3.89a18.92,18.92,0,0,1,2,4.51l4.46.93.13,7.54-4.42,1.08a18.65,18.65,0,0,1-1.8,4.58l2.49,3.81-5.23,5.42-3.9-2.36a18.2,18.2,0,0,1-4.51,2l-.93,4.46-7.54.13-1.08-4.42a18.42,18.42,0,0,1-4.57-1.8l-3.82,2.5-5.42-5.24,2.36-3.9a18.58,18.58,0,0,1-2-4.51l-4.46-.92-.13-7.54,4.43-1.09a18,18,0,0,1,1.79-4.57l-2.49-3.81,5.23-5.43,3.9,2.36Zm4,10.05a8.09,8.09,0,1,0,11.44-.2A8.09,8.09,0,0,0,418.2,313.22Z" style="fill:#f5f5f5"></path><path d="M223.34,379a17.83,17.83,0,0,1,4.51-2l.92-4.47,7.54-.13,1.09,4.43a18.42,18.42,0,0,1,4.57,1.8l3.81-2.5,5.43,5.24-2.36,3.89a18.49,18.49,0,0,1,2,4.51l4.47.93.13,7.54L251,399.37a18.65,18.65,0,0,1-1.8,4.58l2.5,3.81-5.24,5.42-3.89-2.36a18.53,18.53,0,0,1-4.51,2l-.93,4.46-7.54.14L228.48,413a18.65,18.65,0,0,1-4.58-1.8l-3.81,2.5-5.42-5.24,2.36-3.9a18.29,18.29,0,0,1-2-4.5l-4.46-.93-.13-7.54,4.42-1.09a18.42,18.42,0,0,1,1.8-4.57l-2.5-3.81,5.24-5.43,3.9,2.37Zm4,10a8.08,8.08,0,1,0,11.43-.2A8.08,8.08,0,0,0,227.36,389.05Z" style="fill:#f5f5f5"></path><path d="M65.68,129.83a25.82,25.82,0,0,1,6.23-2.71L73.19,121l10.42-.18,1.49,6.11a25.51,25.51,0,0,1,6.32,2.49l5.27-3.45,7.49,7.23-3.26,5.38a25.4,25.4,0,0,1,2.7,6.23l6.17,1.28.18,10.42-6.11,1.5a25.66,25.66,0,0,1-2.49,6.32l3.45,5.26L97.59,177l-5.39-3.26A25.58,25.58,0,0,1,86,176.49l-1.29,6.16-10.41.18-1.5-6.11a25.66,25.66,0,0,1-6.32-2.49l-5.26,3.45-7.5-7.23L57,165.07a25.43,25.43,0,0,1-2.71-6.23l-6.16-1.28-.19-10.42,6.12-1.5a25.63,25.63,0,0,1,2.48-6.32l-3.45-5.26,7.24-7.49,5.38,3.26Zm5.55,13.87a11.17,11.17,0,1,0,15.8-.28A11.18,11.18,0,0,0,71.23,143.7Z" style="fill:#f5f5f5"></path><path d="M278.86,51.3a25.27,25.27,0,0,1,6.23-2.71l1.28-6.17,10.41-.18,1.5,6.12a25.25,25.25,0,0,1,6.32,2.48l5.26-3.45,7.5,7.24L314.1,60a25.4,25.4,0,0,1,2.7,6.23L323,67.52l.18,10.42L317,79.43a25.1,25.1,0,0,1-2.48,6.32L318,91l-7.24,7.49-5.38-3.26a25.24,25.24,0,0,1-6.23,2.7l-1.28,6.17-10.41.18L286,98.19a25.66,25.66,0,0,1-6.32-2.49l-5.27,3.45-7.49-7.24,3.26-5.38a25.33,25.33,0,0,1-2.7-6.22L261.27,79l-.18-10.41,6.12-1.5a25.25,25.25,0,0,1,2.48-6.32l-3.45-5.26,7.24-7.5,5.38,3.27Zm5.55,13.87a11.17,11.17,0,1,0,15.8-.28A11.17,11.17,0,0,0,284.41,65.17Z" style="fill:#f5f5f5"></path><path d="M216.33,34.11a19.47,19.47,0,0,1,4.74-2.06l1-4.69,7.92-.14,1.14,4.65a19.21,19.21,0,0,1,4.81,1.9l4-2.63,5.7,5.51-2.48,4.09a19.86,19.86,0,0,1,2.06,4.74l4.69,1,.14,7.92-4.66,1.14a19.56,19.56,0,0,1-1.89,4.81l2.63,4L240.61,70l-4.09-2.48a19.44,19.44,0,0,1-4.74,2l-1,4.7-7.93.13-1.14-4.65a19.49,19.49,0,0,1-4.8-1.89l-4,2.63L207.22,65l2.48-4.1a19.62,19.62,0,0,1-2.06-4.73l-4.69-1-.14-7.93,4.65-1.14a19,19,0,0,1,1.9-4.8l-2.63-4,5.51-5.7,4.09,2.48Zm4.23,10.56a8.5,8.5,0,1,0,12-.21A8.49,8.49,0,0,0,220.56,44.67Z" style="fill:#f5f5f5"></path><path d="M36.24,95.88a11.45,11.45,0,0,1,2.81-1.22l.57-2.77,4.69-.08L45,94.56a11.19,11.19,0,0,1,2.85,1.12l2.37-1.56,3.37,3.26L52.1,99.8a11.45,11.45,0,0,1,1.22,2.81l2.77.57.09,4.69-2.75.68a12.08,12.08,0,0,1-1.12,2.84l1.55,2.37-3.26,3.37-2.42-1.47a11.55,11.55,0,0,1-2.8,1.22l-.58,2.78-4.69.08L39.44,117a12.15,12.15,0,0,1-2.85-1.12l-2.37,1.55-3.37-3.26,1.47-2.42a11.55,11.55,0,0,1-1.22-2.8l-2.77-.58-.08-4.69L31,103a11.34,11.34,0,0,1,1.12-2.85l-1.56-2.37,3.26-3.37,2.42,1.47Zm2.5,6.24a5,5,0,1,0,7.11-.12A5,5,0,0,0,38.74,102.12Z" style="fill:#f5f5f5"></path></g><g id="freepik--Floor--inject-21"><path d="M467.5,463.76c0,.15-97.83.26-218.49.26s-218.51-.11-218.51-.26,97.81-.26,218.51-.26S467.5,463.62,467.5,463.76Z" style="fill:#263238"></path></g><g id="freepik--Shield--inject-21"><path d="M175.6,64.38,131.85,46.11,86.62,58.46c-5.81,2.2-10.86,3.41-11.18,8.46L73.87,92.07a92.46,92.46,0,0,0,11.45,51,90.05,90.05,0,0,0,38.58,37.13c18.45-4.48,32.9-18.65,42-31a92.19,92.19,0,0,0,17.71-49.12L185,77.49C185.45,70.28,181.69,66.51,175.6,64.38Z" style="fill:#455a64"></path><g style="opacity:0.30000000000000004"><path d="M124.4,170.58l-.16-.08A77,77,0,0,1,91.42,138a82.86,82.86,0,0,1-9.68-44.63l1.37-21.89c.27-4.22,3.93-5.6,8.17-7.2.53-.2,1.08-.4,1.63-.62l38.52-10.88.17.07,37,15.83c5.93,2.12,8.62,6,8.26,11.89l-1.24,19.68a82.65,82.65,0,0,1-15.16,43c-5.94,8.29-18.49,22.85-35.86,27.21Zm7-116.7L93.23,64.65l-1.6.61c-4.08,1.53-7.3,2.74-7.52,6.32L82.74,93.47a81.84,81.84,0,0,0,9.56,44.09,76,76,0,0,0,32.23,32c17-4.34,29.27-18.63,35.11-26.78a81.63,81.63,0,0,0,15-42.51l1.23-19.68c.34-5.45-2.08-8.91-7.61-10.89l0,0Z" style="fill:#fff"></path></g><path d="M139.4,97.28l.33-3.09c.5-5.59-3.95-10.58-9.94-11.11S118.53,86.67,118,92.25l-.33,3.14a5.85,5.85,0,0,0-5.69,5.16l-1.66,18.24A5.9,5.9,0,0,0,115.9,125l20.26,1.8a5.91,5.91,0,0,0,6.59-5.14l1.66-18.25A5.85,5.85,0,0,0,139.4,97.28Zm-9.67,18.65-5.3-.47,1.15-3.5a3,3,0,0,1-1.29-2.7,3.25,3.25,0,0,1,6.46.57,3,3,0,0,1-1.66,2.38C129.34,113.63,129.73,115.93,129.73,115.93Zm7.33-18.88-17-1.52.33-3.06a8.31,8.31,0,0,1,9.24-7.2c4.69.41,8.19,4.32,7.79,8.7Z" style="fill:#fff"></path><g style="opacity:0.1"><path d="M91.89,118.06c-3,.17-5.34-41-1.34-46.07s40.66-13,40.66-13-1.77,37.86-2.74,40.3S91.89,118.06,91.89,118.06Z" style="fill:#fff"></path></g><g style="opacity:0.1"><path d="M94.5,124.28l32.8-14.77s-2.72,52.92-3.83,52A81.39,81.39,0,0,1,94.5,124.28Z" style="fill:#fff"></path></g><path d="M90.77,117a13.16,13.16,0,0,1-.39-1.75c-.23-1.14-.5-2.79-.79-4.84a125.61,125.61,0,0,1-.26-32.26c.26-2.06.51-3.71.72-4.85a10.35,10.35,0,0,1,.37-1.76,2.08,2.08,0,0,1,0,.47l-.15,1.32c-.15,1.14-.34,2.8-.55,4.86a152.22,152.22,0,0,0-.76,16.09,153.85,153.85,0,0,0,1,16.08c.24,2.05.46,3.71.63,4.85.06.53.12,1,.17,1.32A1.52,1.52,0,0,1,90.77,117Z" style="fill:#fff"></path></g><g id="freepik--Document--inject-21"><path d="M466.55,202.9,347.41,231a4.38,4.38,0,0,1-5.27-3.26L303.2,62.38a4.39,4.39,0,0,1,3.26-5.27L425.6,29.05a4.38,4.38,0,0,1,5.27,3.26l38.94,165.32A4.39,4.39,0,0,1,466.55,202.9Z" style="fill:#ebebeb"></path><path d="M458.83,201,339.7,229a4.37,4.37,0,0,1-5.27-3.26L295.49,60.45a4.38,4.38,0,0,1,3.26-5.27L417.89,27.12a4.37,4.37,0,0,1,5.26,3.26L462.09,195.7A4.37,4.37,0,0,1,458.83,201Z" style="fill:#fff"></path><path d="M458.83,201a4.61,4.61,0,0,0,1.43-.65,4.34,4.34,0,0,0,1.3-1.4,4.29,4.29,0,0,0,.58-2.56c-.84-4-2.32-9.81-4.08-17.34-3.57-15.08-8.74-36.88-15.12-63.82L432.53,71.13q-2.8-11.88-5.8-24.56-1.49-6.33-3-12.84c-.62-2.1-.58-4.66-2.55-5.82a4.18,4.18,0,0,0-3.08-.58l-3.33.78L298.82,55.43a4.12,4.12,0,0,0-3.18,4.06,8.64,8.64,0,0,0,.33,1.88q.91,3.83,1.8,7.64l3.57,15.13q3.53,15,7,29.58l13.15,55.92c4.19,17.82,8.17,34.75,11.9,50.6.47,2,.91,4,1.4,5.87a4.15,4.15,0,0,0,4.42,2.8c3.78-.82,7.56-1.76,11.23-2.6l21.16-5,63.85-15,17.36-4,4.52-1,1.54-.34s-.51.14-1.53.39l-4.5,1.09-17.35,4.13L371.64,221.7l-21.15,5c-3.69.85-7.39,1.78-11.28,2.63a4.62,4.62,0,0,1-4.87-3.09c-.51-2-.93-3.91-1.41-5.9-3.74-15.85-7.74-32.78-11.94-50.59s-8.62-36.52-13.19-55.92q-3.42-14.53-7-29.57-1.77-7.51-3.56-15.13l-1.8-7.64a8.45,8.45,0,0,1-.35-2,4.59,4.59,0,0,1,.44-2,4.67,4.67,0,0,1,3.14-2.55L414.63,27.64l3.34-.78a4.59,4.59,0,0,1,3.43.65,4.64,4.64,0,0,1,2,2.85c.26,1.09.51,2.18.77,3.27q1.53,6.51,3,12.84,3,12.66,5.77,24.56c3.72,15.85,7.19,30.61,10.35,44.09,6.31,26.95,11.42,48.76,15,63.85,1.73,7.55,3.17,13.38,4,17.38a4.35,4.35,0,0,1-.61,2.61,4.41,4.41,0,0,1-1.34,1.4,4.36,4.36,0,0,1-1.07.52Z" style="fill:#263238"></path><path d="M353.06,73.6a7,7,0,0,1-1.3.41l-3.58.93c-3,.76-7.24,1.78-11.88,2.87s-8.87,2.06-11.92,2.73l-3.63.77a6.23,6.23,0,0,1-1.34.21,8.12,8.12,0,0,1,1.3-.41l3.58-.93c3-.76,7.24-1.78,11.89-2.87s8.86-2.06,11.91-2.73l3.63-.77A6.23,6.23,0,0,1,353.06,73.6Z" style="fill:#263238"></path><path d="M415.91,74.06c0,.14-20.78,5.16-46.49,11.21S322.85,96.12,322.81,96s20.78-5.16,46.49-11.21S415.87,73.92,415.91,74.06Z" style="fill:#263238"></path><path d="M419.5,89.32c0,.14-20.78,5.16-46.48,11.21s-46.58,10.86-46.61,10.72,20.77-5.17,46.49-11.22S419.47,89.18,419.5,89.32Z" style="fill:#263238"></path><path d="M422.91,103.78c0,.14-20.78,5.16-46.49,11.21s-46.57,10.85-46.61,10.71,20.78-5.16,46.49-11.21S422.88,103.64,422.91,103.78Z" style="fill:#263238"></path><path d="M426.5,119c0,.14-20.78,5.16-46.48,11.22S333.44,141.11,333.41,141s20.78-5.16,46.49-11.22S426.47,118.9,426.5,119Z" style="fill:#263238"></path><path d="M429.91,133.5c0,.14-20.78,5.16-46.49,11.22s-46.57,10.85-46.61,10.71,20.78-5.17,46.49-11.22S429.88,133.36,429.91,133.5Z" style="fill:#263238"></path><path d="M433.5,148.76c0,.14-20.78,5.16-46.48,11.22s-46.58,10.85-46.61,10.71,20.78-5.16,46.49-11.22S433.47,148.62,433.5,148.76Z" style="fill:#263238"></path><path d="M436.91,163.22c0,.14-20.78,5.16-46.49,11.22s-46.57,10.85-46.61,10.71,20.78-5.16,46.49-11.22S436.88,163.08,436.91,163.22Z" style="fill:#263238"></path><path d="M440.22,177.28c0,.14-20.78,5.16-46.49,11.21s-46.57,10.85-46.61,10.71S367.9,194,393.61,188,440.19,177.14,440.22,177.28Z" style="fill:#263238"></path></g><g id="freepik--Plant--inject-21"><path d="M397.73,439.84s-3.56-24.44-3.26-38.66,0-30.21,0-30.21h1.64s-1.11,28.22.1,45.24,4.38,23.63,4.38,23.63h-2.84" style="fill:#263238"></path><path d="M408.31,343.47a4.24,4.24,0,0,0-1.49-2.19,4.15,4.15,0,0,0-3.56,0c-4.95,1.75-9.34,11-11.34,15.83l6.57,22.14C410.35,368.28,412.41,353.84,408.31,343.47Z" style="fill:#455a64"></path><path d="M406.44,342.18a1.72,1.72,0,0,1-.1.29c-.08.21-.19.48-.32.8-.29.7-.69,1.71-1.17,3-1,2.51-2.2,6-3.31,10s-1.85,7.61-2.32,10.26c-.23,1.33-.41,2.41-.52,3.15l-.14.86a.94.94,0,0,1-.07.3,1.44,1.44,0,0,1,0-.31c0-.22.05-.51.09-.86.08-.75.22-1.83.43-3.17a94.15,94.15,0,0,1,5.64-20.29c.5-1.25.94-2.25,1.25-2.94.15-.32.28-.58.37-.79S406.43,342.17,406.44,342.18Z" style="fill:#263238"></path><path d="M395.57,384.59a20,20,0,0,1-10.12-16.83c-.24-4.92,1.27-9.74,3-14.35a1.85,1.85,0,0,1,.69-1,1.73,1.73,0,0,1,1.68.26c4.48,2.55,7.19,7.41,8.63,12.35a25,25,0,0,1,1,10.16,16.93,16.93,0,0,1-4.88,9.45" style="fill:#455a64"></path><path d="M395.57,384.59a1.71,1.71,0,0,1,0-.3l0-.85c0-.73,0-1.8-.09-3.12a85.72,85.72,0,0,0-1.14-10.23c-.69-4-1.52-7.51-2.13-10.08l-.72-3-.19-.83a1.28,1.28,0,0,1-.05-.29,1.33,1.33,0,0,1,.1.28l.24.81c.2.71.48,1.74.81,3,.66,2.56,1.52,6.11,2.2,10.09a73.44,73.44,0,0,1,1.07,10.26c0,1.33,0,2.4,0,3.13,0,.35,0,.63,0,.85A1.16,1.16,0,0,1,395.57,384.59Z" style="fill:#263238"></path><g style="opacity:0.30000000000000004"><path d="M395.57,384.59a20,20,0,0,1-10.12-16.83c-.24-4.92,1.27-9.74,3-14.35a1.85,1.85,0,0,1,.69-1,1.73,1.73,0,0,1,1.68.26c4.48,2.55,7.19,7.41,8.63,12.35a25,25,0,0,1,1,10.16,16.93,16.93,0,0,1-4.88,9.45"></path></g><path d="M402.52,422c6.06,1.34,11.06,5.61,16.9,7.69,3.87,1.38,8.25,1.86,11.34,4.57-.74-1.87-2.5-3.12-4.21-4.19a75.58,75.58,0,0,0-15.32-7.31c-2.75-.95-5.73-1.74-8.54-1" style="fill:#455a64"></path><path d="M393.76,427.39c-7.59-.13-15.59-6.59-23.14-7,7.9-2.55,19.23-.46,23.14,7" style="fill:#455a64"></path><path d="M396.72,409.17a24.71,24.71,0,0,1,12.14-.82,74.17,74.17,0,0,1,11.85,3.22c-.39-2.64-2.52-4.62-4.53-6.37a31.63,31.63,0,0,0-4.75-3.66,10.69,10.69,0,0,0-5.71-1.61,9.05,9.05,0,0,0-6.3,3.18,10.51,10.51,0,0,0-2.7,6.06" style="fill:#455a64"></path><path d="M381.14,400.79c-4.78-4.08-12-3.68-18.3-3.54a148.8,148.8,0,0,1,28.38,17.69C391.48,410.5,387.18,406,381.14,400.79Z" style="fill:#455a64"></path><g style="opacity:0.30000000000000004"><path d="M381.14,400.79c-4.78-4.08-12-3.68-18.3-3.54a148.8,148.8,0,0,1,28.38,17.69C391.48,410.5,387.18,406,381.14,400.79Z"></path></g><path d="M398.87,395.16a53.84,53.84,0,0,1,7.35-4.27c2.52-1.14,4.86-3,7.29-4.28,3.15-1.71,5.88-4.08,8.77-6.19s6.07-4,9.61-4.59a18.91,18.91,0,0,0-8.74.51,57.19,57.19,0,0,0-8.23,3.2c-3.73,1.68-7.52,3.4-10.57,6.13s-5.8,5.41-5.48,9.49" style="fill:#455a64"></path><path d="M419.28,427.39l-.24-.11-.66-.34c-.57-.31-1.39-.76-2.42-1.28-.52-.27-1.08-.55-1.7-.84s-1.27-.6-2-.9a29.33,29.33,0,0,0-4.67-1.63,10,10,0,0,0-4.87-.12,14,14,0,0,0-2.07.61,10.9,10.9,0,0,0-3.76,2.59c-.44.47-.65.76-.67.74a1,1,0,0,1,.14-.22,6.74,6.74,0,0,1,.46-.59,9.58,9.58,0,0,1,2.06-1.82,9.9,9.9,0,0,1,1.69-.9,13.47,13.47,0,0,1,2.09-.66,10.09,10.09,0,0,1,5,.11,27.89,27.89,0,0,1,4.71,1.66c.7.31,1.36.62,2,.93s1.18.59,1.68.87c1,.55,1.84,1,2.39,1.36l.64.38C419.22,427.33,419.29,427.38,419.28,427.39Z" style="fill:#263238"></path><path d="M388.1,423.62a3.09,3.09,0,0,1,.47.14,11.15,11.15,0,0,1,1.24.54,15.09,15.09,0,0,1,6.34,6.09,12.54,12.54,0,0,1,.59,1.22,2,2,0,0,1,.16.47s-.33-.63-.92-1.59a16.75,16.75,0,0,0-6.26-6C388.73,423.93,388.08,423.67,388.1,423.62Z" style="fill:#263238"></path><path d="M371.3,400.41a1.2,1.2,0,0,1,.32.1l.91.32,1.44.53c.56.21,1.17.52,1.86.82a43.78,43.78,0,0,1,9.88,6.3,48.47,48.47,0,0,1,4.61,4.53c1.3,1.51,2.41,2.92,3.27,4.15s1.52,2.25,2,3c.22.33.39.6.52.81a1.73,1.73,0,0,1,.17.29s-.08-.08-.21-.26-.33-.44-.56-.78c-.48-.69-1.16-1.7-2.05-2.91s-2-2.61-3.3-4.09a49.39,49.39,0,0,0-4.6-4.5,46,46,0,0,0-9.79-6.33c-.68-.31-1.28-.63-1.83-.85l-1.41-.57-.9-.37A1.62,1.62,0,0,1,371.3,400.41Z" style="fill:#263238"></path><path d="M408.12,404.91a3.2,3.2,0,0,1-.61-.08l-.7-.13c-.27-.05-.59-.05-.93-.09a9.41,9.41,0,0,0-7.59,2.79,10.94,10.94,0,0,0-1.53,1.89,16.06,16.06,0,0,0-1,2,2.14,2.14,0,0,1,.15-.59,8.59,8.59,0,0,1,.73-1.5,9.85,9.85,0,0,1,1.51-2,9.24,9.24,0,0,1,7.79-2.81c.35.05.67.06.94.13l.69.18A2.88,2.88,0,0,1,408.12,404.91Z" style="fill:#263238"></path><path d="M415.75,381.24a1.6,1.6,0,0,1-.29.17l-.85.46c-.74.4-1.8,1-3.08,1.74s-2.79,1.72-4.4,2.87a37.28,37.28,0,0,0-4.91,4.11,12.52,12.52,0,0,0-2,2.6q-.75,1.44-1.41,2.76a51.73,51.73,0,0,0-2.11,4.81,29.4,29.4,0,0,0-1,3.38c-.2.81-.27,1.27-.3,1.26a2.75,2.75,0,0,1,0-.33c0-.22.08-.54.16-1a26.19,26.19,0,0,1,.95-3.42,47.33,47.33,0,0,1,2.07-4.85c.43-.89.9-1.81,1.39-2.77a13,13,0,0,1,2-2.67,36.9,36.9,0,0,1,5-4.13c1.63-1.14,3.15-2.07,4.45-2.82s2.38-1.3,3.13-1.67l.87-.42A1.14,1.14,0,0,1,415.75,381.24Z" style="fill:#263238"></path><path d="M394.46,404.22a2.76,2.76,0,0,1-.15-.64c-.09-.47-.2-1.05-.33-1.75a45,45,0,0,0-3.61-11.16c-.29-.65-.54-1.19-.74-1.62a2.86,2.86,0,0,1-.24-.62,6.4,6.4,0,0,1,.34.57c.2.37.48.91.81,1.59a40,40,0,0,1,2.26,5.46,38.94,38.94,0,0,1,1.36,5.75c.12.74.21,1.35.25,1.77A2.88,2.88,0,0,1,394.46,404.22Z" style="fill:#263238"></path><path d="M393.91,387a20.61,20.61,0,0,0-2.47-8.19,27,27,0,0,0-18.34-13.68l17,25.3,2.19,4.52A13,13,0,0,0,393.91,387Z" style="fill:#455a64"></path><rect x="378.78" y="436.82" width="39.48" height="7" style="fill:#685B3C"></rect><polygon points="381.73 442.43 385.09 464.14 411.3 464.14 415.31 442.43 381.73 442.43" style="fill:#685B3C"></polygon><path d="M418.24,443.83c0,.07-8.9.13-19.89.13s-19.89-.06-19.89-.13,8.91-.14,19.89-.14S418.24,443.75,418.24,443.83Z" style="fill:#263238"></path></g><g id="freepik--light-bulb--inject-21"><path d="M368.32,194.08A110.88,110.88,0,1,0,209.94,294c0,13.14-.07,28-.07,28l97.18.26s.62-15.7.88-29.71A110.83,110.83,0,0,0,368.32,194.08Z" style="fill:#685B3C"></path><g style="opacity:0.1"><path d="M368.36,194a110.39,110.39,0,0,0-20.87-65c13,37.24,8.1,80.44-13.29,113.64-22.72,35.26-57.66,61.46-103.92,61.46,17.32,13.73,40.17,11.27,62.23,10.1,4.94-.26,10-.55,14.9-1.16.19-5.74.42-13.4.55-20.62A110.84,110.84,0,0,0,368.36,194Z"></path></g><g style="opacity:0.30000000000000004"><path d="M224.83,116.68c-1.31-3.19-4.83-5.52-9-6.78a23.86,23.86,0,0,0-18,2c-16.28,8.56-25.54,18.9-31.27,37.27-1.95,6.22-2.93,16.5.11,22.61a12.31,12.31,0,0,0,7.43,6.5c8.57,2.51,15.39-5.8,18.07-13.75,2.49-7.41,3.4-15.78,8.68-21.54,4.35-4.75,10.85-6.77,16.27-10.25S227.27,122.64,224.83,116.68Z" style="fill:#fff"></path></g><g style="opacity:0.30000000000000004"><path d="M257,102.71c-3.21-5.61-11.32-7.95-16.06-5.83a14.26,14.26,0,0,0-7.75,9.77,13.06,13.06,0,0,0,5.75,13.43,12.37,12.37,0,0,0,14.44-1.34C257.18,115.21,259.57,107.22,257,102.71Z" style="fill:#fff"></path></g><g id="freepik--2ggvdetif--inject-21"><path d="M236.82,385.27a30.23,30.23,0,0,1,6.33,5.64,6.55,6.55,0,0,0,5.16,2.47l19.55,0a6.59,6.59,0,0,0,5.49-2.88c1.43-2.12,4-4.64,6.69-5.18Z" style="fill:#455a64"></path></g><path d="M215.75,330.77c0,.4,4.48,31,6.19,42.63A14.42,14.42,0,0,0,230,384.49a13.53,13.53,0,0,0,5.56,1.23l42.77.08s11.18,0,13.73-8.85c2.69-9.32,7.8-46,7.8-46Z" style="fill:#263238"></path><path d="M294.8,372.87l-74.51.12a2.12,2.12,0,0,1-2.12-2.12v-.23a2.11,2.11,0,0,1,2.11-2.12l74.52-.13a2.12,2.12,0,0,1,2.12,2.12v.23A2.13,2.13,0,0,1,294.8,372.87Z" style="fill:#e0e0e0"></path><path d="M294.8,372.87a2.43,2.43,0,0,0,1.44-.67,2.17,2.17,0,0,0,.57-1.78,2,2,0,0,0-1.56-1.83c-4-.06-10.06.07-17.41.09l-57.55.2a1.76,1.76,0,0,0-1.47.8,1.67,1.67,0,0,0-.28.81,2.36,2.36,0,0,0,.07.89,1.74,1.74,0,0,0,1.17,1.17,10.77,10.77,0,0,0,1.94.08h23.37l25.87,0,17.45.09,4.74.05,1.23,0a1.24,1.24,0,0,1,.42,0l-.42,0-1.23,0-4.74.08-17.45.14-25.87.12-15.28.05-8.09,0h-1a3.48,3.48,0,0,1-1.12-.11,2.47,2.47,0,0,1-1.65-1.64,3.15,3.15,0,0,1-.1-1.17,2.46,2.46,0,0,1,2.47-2.27h57.55c7.38.05,13.3,0,17.48.14a2.25,2.25,0,0,1,1.7,2.1,2.3,2.3,0,0,1-.67,1.89A1.9,1.9,0,0,1,294.8,372.87Z" style="fill:#263238"></path><path d="M296.4,363.24l-77.67.13a2.11,2.11,0,0,1-2.12-2.11V361a2.11,2.11,0,0,1,2.11-2.12l77.67-.13a2.14,2.14,0,0,1,2.13,2.12v.23A2.12,2.12,0,0,1,296.4,363.24Z" style="fill:#e0e0e0"></path><path d="M296.4,363.24a2.29,2.29,0,0,0,1.48-.71,2.22,2.22,0,0,0,.51-1.87,2,2,0,0,0-1.77-1.73l-18.1.13-59.79.2a1.77,1.77,0,0,0-1.51.86,1.69,1.69,0,0,0-.25.85,2.08,2.08,0,0,0,.12.92,1.73,1.73,0,0,0,1.32,1.09c.58.06,1.39,0,2.07,0h24.28l26.87,0,18.13.08,4.92.06,1.28,0,.44,0a1.38,1.38,0,0,1-.44,0l-1.28,0-4.92.08-18.12.14-26.88.12-15.88,0-8.4,0c-.73,0-1.36,0-2.2,0a2.46,2.46,0,0,1-1.86-1.53,2.89,2.89,0,0,1-.17-1.21,2.47,2.47,0,0,1,2.48-2.41h59.78c7.66,0,13.83,0,18.14.1a2.24,2.24,0,0,1,2,2,2.41,2.41,0,0,1-.62,2A1.82,1.82,0,0,1,296.4,363.24Z" style="fill:#263238"></path><path d="M297.42,353.62l-79.68.14a2.12,2.12,0,0,1-2.12-2.12v-.23a2.13,2.13,0,0,1,2.11-2.13l79.69-.13a2.12,2.12,0,0,1,2.12,2.12v.23A2.11,2.11,0,0,1,297.42,353.62Z" style="fill:#e0e0e0"></path><path d="M297.42,353.62a2.18,2.18,0,0,0,2-2.67,2,2,0,0,0-1.91-1.65l-18.55.14-61.21.21a1.76,1.76,0,0,0-1.76,1.77,2,2,0,0,0,.15.94,1.77,1.77,0,0,0,1.42,1c.65,0,1.44,0,2.15,0h24.85l27.52,0,18.55.08,5.05.06,1.31,0a2.36,2.36,0,0,1,.44,0,1.38,1.38,0,0,1-.44,0l-1.31,0-5.05.07-18.55.15-27.52.12-16.25,0-8.6,0c-.74,0-1.42,0-2.23,0a2.48,2.48,0,0,1-2-1.45,2.73,2.73,0,0,1-.22-1.23,2.48,2.48,0,0,1,2.48-2.5H279l18.56.09a2.23,2.23,0,0,1,2.11,1.9A2.46,2.46,0,0,1,299,353,1.89,1.89,0,0,1,297.42,353.62Z" style="fill:#263238"></path><path d="M299.06,344l-82.92.14A2.12,2.12,0,0,1,214,342v-.23a2.12,2.12,0,0,1,2.12-2.12l82.91-.14a2.12,2.12,0,0,1,2.12,2.12v.23A2.11,2.11,0,0,1,299.06,344Z" style="fill:#e0e0e0"></path><path d="M299.06,344a2.17,2.17,0,0,0,1.95-2.8,2,2,0,0,0-2.13-1.53l-19.24.15-63.5.21a1.78,1.78,0,0,0-1.56,1,2.17,2.17,0,0,0,0,1.88,1.75,1.75,0,0,0,1.56.92h28.05l28.55,0,19.24.08,5.23.06,1.37,0,.46,0a2.1,2.1,0,0,1-.46,0l-1.37,0-5.23.07-19.24.15-28.55.13-16.86,0-8.92,0h-2.27a2.52,2.52,0,0,1-2.2-1.29,2.65,2.65,0,0,1-.3-1.28,2.56,2.56,0,0,1,.28-1.28,2.48,2.48,0,0,1,2.2-1.34h63.5l19.24.08a2.26,2.26,0,0,1,2.34,1.76,2.47,2.47,0,0,1-.5,2.16,2.08,2.08,0,0,1-1.19.67A1.2,1.2,0,0,1,299.06,344Z" style="fill:#263238"></path><path d="M205,304.38c0,.79,1.73,19.5,2.62,29.11a11.56,11.56,0,0,0,5.22,8.63l4.36,2.83,82.7.16,4.31-2.78a11.57,11.57,0,0,0,5.26-8.73l2.51-29Z" style="fill:#685B3C"></path><g style="opacity:0.30000000000000004"><path d="M223.06,372.8c8,1.82,15.9,2,24.65,2,7.06,0,14,.19,21.64.05,5.62-.11,10.79-.38,16.39-.61,2.83-.12,5.94-.83,6.51-1.4Z"></path></g><g style="opacity:0.30000000000000004"><path d="M220.13,363.14c8.58,1.82,17.14,2,26.57,2,7.61,0,15.07.19,23.34,0,6-.1,11.62-.37,17.66-.6,3.05-.12,6.4-.83,7-1.4Z"></path></g><g style="opacity:0.30000000000000004"><path d="M220.15,353.59c8.58,1.82,17.14,2,26.57,2,7.61,0,15.07.19,23.33,0,6.06-.1,11.63-.37,17.66-.6,3.06-.12,6.41-.83,7-1.4Z"></path></g><g style="opacity:0.30000000000000004"><path d="M220.16,344c8.59,1.82,17.15,2,26.57,2,7.62,0,15.08.19,23.34,0,6.05-.1,11.63-.37,17.66-.6,3.06-.12,6.41-.83,7-1.4Z"></path></g><g style="opacity:0.30000000000000004"><path d="M205,304.38c0,.79,1.73,19.5,2.62,29.11a11.56,11.56,0,0,0,5.22,8.63l4.36,2.83,82.7.16,4.31-2.78a11.57,11.57,0,0,0,5.26-8.73l2.51-29Z"></path></g><path d="M307.46,337.57c0,.2-22.12.33-49.4.27s-49.41-.25-49.41-.45,22.12-.32,49.41-.27S307.46,337.38,307.46,337.57Z" style="fill:#263238"></path><path d="M311.41,304c0,.22-24,.45-53.64.51s-53.67-.07-53.68-.29,24-.45,53.65-.51S311.41,303.81,311.41,304Z" style="fill:#263238"></path><path d="M199.34,278.28s-.1,0-.28-.18l-.79-.57c-.68-.52-1.72-1.24-3-2.28a99.56,99.56,0,0,1-10.1-9.35c-2-2.11-4.08-4.53-6.22-7.21a107.93,107.93,0,0,1-6.28-8.94,102.49,102.49,0,0,1-15.6-47.08c-.33-3.84-.35-7.5-.31-10.92s.33-6.61.69-9.5A98.8,98.8,0,0,1,160,168.72c.38-1.58.79-2.78,1-3.6l.29-.93c.07-.21.11-.32.11-.31a1.31,1.31,0,0,1-.06.32l-.24,1c-.2.83-.58,2-.92,3.62a107,107,0,0,0-2.35,13.53c-.33,2.88-.52,6-.61,9.46s0,7.05.34,10.87a103.65,103.65,0,0,0,15.54,46.87c2,3.26,4.16,6.21,6.21,8.93s4.16,5.1,6.15,7.21a107,107,0,0,0,10,9.45c1.22,1.07,2.25,1.81,2.9,2.36l.76.61Z" style="fill:#263238"></path></g><g id="freepik--Symbol--inject-21"><path d="M261.09,252.55a56,56,0,1,1,56-56A56,56,0,0,1,261.09,252.55Zm0-100.62a44.65,44.65,0,1,0,44.65,44.65A44.7,44.7,0,0,0,261.09,151.93Z" style="fill:#685B3C"></path><path d="M246.22,221.11a28.71,28.71,0,0,1-11.61-10.69,30.9,30.9,0,0,1,0-31,28.8,28.8,0,0,1,11.61-10.7A36,36,0,0,1,263,164.83a32.58,32.58,0,0,1,16.12,3.85,22.82,22.82,0,0,1,10,11L276,186.76q-4.56-8-13.13-8a14.86,14.86,0,0,0-11,4.35q-4.33,4.34-4.34,11.83t4.34,11.83a14.85,14.85,0,0,0,11,4.34q8.67,0,13.13-8l13.13,7.17a23.22,23.22,0,0,1-10,10.85A32.07,32.07,0,0,1,263,225,35.91,35.91,0,0,1,246.22,221.11Z" style="fill:#685B3C"></path><g style="opacity:0.5"><path d="M261.09,252.55a56,56,0,1,1,56-56A56,56,0,0,1,261.09,252.55Zm0-100.62a44.65,44.65,0,1,0,44.65,44.65A44.7,44.7,0,0,0,261.09,151.93Z"></path><path d="M246.22,221.11a28.71,28.71,0,0,1-11.61-10.69,30.9,30.9,0,0,1,0-31,28.8,28.8,0,0,1,11.61-10.7A36,36,0,0,1,263,164.83a32.58,32.58,0,0,1,16.12,3.85,22.82,22.82,0,0,1,10,11L276,186.76q-4.56-8-13.13-8a14.86,14.86,0,0,0-11,4.35q-4.33,4.34-4.34,11.83t4.34,11.83a14.85,14.85,0,0,0,11,4.34q8.67,0,13.13-8l13.13,7.17a23.22,23.22,0,0,1-10,10.85A32.07,32.07,0,0,1,263,225,35.91,35.91,0,0,1,246.22,221.11Z"></path></g></g><g id="freepik--Padlock--inject-21"><path d="M419.35,272.64l-10.53-.8,4.62-61.11c.22-2.82-3-10.7-4.94-12.77-19.31-20.73-42.73-7.23-44.26,12.89l-4.33,57.29-10.52-.79L353.65,211c1.43-19,17.39-34.09,36.41-33.34a35.12,35.12,0,0,1,33.62,37.7Z" style="fill:#e0e0e0"></path><path d="M419.35,272.64s0-.4.07-1.15.13-1.87.23-3.33c.21-2.92.52-7.22.92-12.74s.9-12.29,1.47-20.13q.43-5.88.92-12.56c.25-4.44,1-9.14.4-14.06a34.17,34.17,0,0,0-5.13-14.45c-.37-.56-.72-1.14-1.1-1.7l-1.26-1.62a36.57,36.57,0,0,0-2.78-3.09c-.47-.51-1-.93-1.56-1.4a17.79,17.79,0,0,0-1.63-1.36,32.31,32.31,0,0,0-3.58-2.39,35.58,35.58,0,0,0-8.08-3.5l-2.2-.5-1.1-.26-1.13-.15-2.27-.28c-.76-.07-1.53-.05-2.3-.08a34.55,34.55,0,0,0-18.16,4.78,34.89,34.89,0,0,0-13.49,14.38,36.88,36.88,0,0,0-3.22,9.77c-.51,3.43-.66,7-1,10.52-1.07,14.22-2.18,28.94-3.32,44-.15,2-.31,4-.46,6l-.22-.27,10.52.8-.26.22c.86-11.39,1.71-22.54,2.53-33.37q.62-8.13,1.21-16,.3-3.94.6-7.81a27,27,0,0,1,1.75-7.53A24.92,24.92,0,0,1,375.25,192a15.68,15.68,0,0,1,1.57-1l1.63-.83a25.34,25.34,0,0,1,3.41-1.24,26.8,26.8,0,0,1,3.51-.76c.59-.08,1.19-.1,1.77-.15L388,188l.88,0a24.67,24.67,0,0,1,6.87,1,26.07,26.07,0,0,1,6.16,2.81,25.19,25.19,0,0,1,10.84,15.32,25.79,25.79,0,0,1,.59,6c0,.49,0,1,0,1.47s-.07,1-.11,1.44c-.07,1-.15,1.9-.22,2.84-.14,1.88-.28,3.73-.42,5.54-.56,7.22-1.07,13.87-1.53,19.86-.94,12-1.67,21.35-2.16,27.58l-.06-.08,7.93.64,1.94.16.65.07-.62,0-1.93-.12-8-.57h-.08v-.07c.46-6.24,1.14-15.61,2-27.59.44-6,.94-12.64,1.47-19.87.14-1.81.27-3.65.41-5.53.07-.94.15-1.89.22-2.85,0-.48.07-1,.1-1.44s0-1,0-1.45a25.68,25.68,0,0,0-.59-5.88,25.34,25.34,0,0,0-2.15-5.71,24.6,24.6,0,0,0-8.55-9.35,25.77,25.77,0,0,0-6.06-2.75,24.18,24.18,0,0,0-6.75-1l-.87,0-.87.07c-.58.05-1.16.07-1.74.15a26,26,0,0,0-6.79,2l-1.61.82c-.54.26-1,.63-1.54.94a24.46,24.46,0,0,0-9.3,11.23,26.8,26.8,0,0,0-1.72,7.39c-.19,2.58-.39,5.19-.59,7.81-.39,5.25-.8,10.59-1.2,16-.82,10.83-1.66,22-2.52,33.37l0,.25-.25,0-10.52-.8h-.25l0-.25c.15-2,.3-4,.46-6,1.14-15.08,2.25-29.8,3.33-44,.3-3.56.44-7.08,1-10.57A35,35,0,0,1,363,188.49a37.37,37.37,0,0,1,7.81-6.21,35,35,0,0,1,18.39-4.83c.78,0,1.56,0,2.33.08l2.64.34,1.44.26,2.19.51,1,.28a34.93,34.93,0,0,1,7.69,3.38,33.48,33.48,0,0,1,3.61,2.43,18.16,18.16,0,0,1,1.65,1.37c.53.48,1.1.92,1.58,1.43a34.25,34.25,0,0,1,2.8,3.13l1.27,1.63c.39.57.74,1.16,1.11,1.73a34.44,34.44,0,0,1,5.15,14.61c.6,5-.17,9.71-.43,14.16s-.67,8.66-1,12.59c-.62,7.85-1.14,14.62-1.58,20.15s-.77,9.79-1,12.71c-.12,1.44-.21,2.54-.27,3.29S419.35,272.64,419.35,272.64Z" style="fill:#263238"></path><path d="M336.6,232.75h95.47a3.74,3.74,0,0,1,3.74,3.74v73.71a3.4,3.4,0,0,1-3.4,3.4H336.6a0,0,0,0,1,0,0V232.75A0,0,0,0,1,336.6,232.75Z" transform="matrix(1, 0.08, -0.08, 1, 21.7, -28.34)" style="fill:#455a64"></path><g style="opacity:0.30000000000000004"><path d="M336.66,232.82h95.09a4.12,4.12,0,0,1,4.12,4.12v73a3.78,3.78,0,0,1-3.78,3.78H336.66a0,0,0,0,1,0,0V232.82A0,0,0,0,1,336.66,232.82Z" transform="translate(21.7 -28.34) rotate(4.32)"></path></g><path d="M336.16,232.14h83.92a4.06,4.06,0,0,1,4.06,4.06V308a5,5,0,0,1-5,5H336.3a4.2,4.2,0,0,1-4.2-4.2v-72.6a4.06,4.06,0,0,1,4.06-4.06Z" transform="translate(21.63 -27.73) rotate(4.32)" style="fill:#455a64"></path><g style="opacity:0.30000000000000004"><path d="M391.41,266.43a11.29,11.29,0,0,0-10.75-12.13,11.43,11.43,0,0,0-11.76,10.33,11.27,11.27,0,0,0,7.37,11.5l-8.52,15,19.38,1.82-4.72-16.34A11.24,11.24,0,0,0,391.41,266.43Z"></path></g><path d="M421.59,308.79c-.13,0,.88-14.06,2.26-31.37s2.62-31.34,2.75-31.33-.87,14.06-2.25,31.37S421.73,308.8,421.59,308.79Z" style="fill:#263238"></path><path d="M405.66,236.57c0,.13-12.38-.53-27.63-1.48s-27.62-1.83-27.61-2,12.38.52,27.64,1.47S405.67,236.43,405.66,236.57Z" style="fill:#fff"></path><path d="M368.07,270.76a2.68,2.68,0,0,1-.41-.73,10.4,10.4,0,0,1-.7-2.2,12.63,12.63,0,0,1,5.49-13.31,10.93,10.93,0,0,1,2.05-1.06,2.44,2.44,0,0,1,.81-.23c0,.09-1.11.47-2.66,1.58a13,13,0,0,0-5.35,13C367.62,269.65,368.16,270.73,368.07,270.76Z" style="fill:#fff"></path><path d="M372.12,276.44c-.08.11-.72-.22-1.44-.73s-1.23-1-1.15-1.12.73.21,1.44.72S372.2,276.33,372.12,276.44Z" style="fill:#fff"></path><path d="M387.72,180.33s-.68,0-1.91.12a31.55,31.55,0,0,0-5.15.76,30.32,30.32,0,0,0-23,22.95,31.53,31.53,0,0,0-.77,5.14c-.08,1.23-.09,1.91-.13,1.91a1.47,1.47,0,0,1-.05-.49c0-.33,0-.81,0-1.43a27.75,27.75,0,0,1,.63-5.21,29.9,29.9,0,0,1,23.27-23.21,27.41,27.41,0,0,1,5.21-.61c.62,0,1.1,0,1.43,0A1.47,1.47,0,0,1,387.72,180.33Z" style="fill:#fff"></path><path d="M355.69,219.88a9.06,9.06,0,0,1,0-2.95,8.85,8.85,0,0,1,.5-2.91,8.74,8.74,0,0,1,0,2.95A8.85,8.85,0,0,1,355.69,219.88Z" style="fill:#fff"></path></g></svg>
