<svg width="24" height="24" viewBox="0 0 24 24" fill="none" xmlns="http://www.w3.org/2000/svg">
<path d="M24 3.99988H0V20.0001H24V3.99988Z" fill="#0052B4"/>
<path d="M12 7.49976L12.2394 8.2364H13.0139L12.3873 8.69169L12.6266 9.42833L12 8.97308L11.3734 9.42833L11.6127 8.69169L10.9861 8.2364H11.7606L12 7.49976Z" fill="#FFDA44"/>
<path d="M8.8181 8.81774L9.50824 9.16935L10.0559 8.6217L9.93471 9.3867L10.6249 9.73836L9.85985 9.85953L9.73868 10.6246L9.38702 9.93444L8.62207 10.0556L9.16976 9.50788L8.8181 8.81774Z" fill="#FFDA44"/>
<path d="M7.5 11.9997L8.23664 11.7604L8.23669 10.9858L8.69189 11.6125L9.42858 11.3731L8.97328 11.9997L9.42858 12.6263L8.69189 12.387L8.23669 13.0136V12.2391L7.5 11.9997Z" fill="#FFDA44"/>
<path d="M8.8181 15.1818L9.16966 14.4916L8.62207 13.944L9.38712 14.0651L9.73868 13.375L9.85985 14.14L10.6249 14.2612L9.93476 14.6128L10.0559 15.3778L9.50824 14.8301L8.8181 15.1818Z" fill="#FFDA44"/>
<path d="M12 16.4998L11.7606 15.7632H10.9861L11.6128 15.3079L11.3734 14.5713L12 15.0265L12.6266 14.5713L12.3873 15.3079L13.0139 15.7632H12.2393L12 16.4998Z" fill="#FFDA44"/>
<path d="M15.182 15.1818L14.4919 14.8302L13.9442 15.3779L14.0654 14.6128L13.3752 14.2612L14.1402 14.14L14.2614 13.375L14.6131 14.0651L15.378 13.944L14.8303 14.4917L15.182 15.1818Z" fill="#FFDA44"/>
<path d="M16.5001 11.9997L15.7635 12.2391V13.0136L15.3082 12.3869L14.5715 12.6263L15.0268 11.9997L14.5715 11.3731L15.3082 11.6124L15.7634 10.9858L15.7635 11.7604L16.5001 11.9997Z" fill="#FFDA44"/>
<path d="M15.182 8.81774L14.8304 9.50788L15.3781 10.0556L14.613 9.93434L14.2614 10.6245L14.1402 9.85953L13.3752 9.73836L14.0654 9.3867L13.9442 8.6217L14.4919 9.16939L15.182 8.81774Z" fill="#FFDA44"/>
</svg>
