<svg width="24" height="24" viewBox="0 0 24 24" fill="none" xmlns="http://www.w3.org/2000/svg">
<g clip-path="url(#clip0_274_408)">
<path d="M23.9999 4.53108V19.4275C24.0012 19.5266 23.9828 19.6251 23.946 19.7172C23.8358 20.0083 23.5725 20.2141 23.2632 20.2509C23.2332 20.2544 23.2026 20.2559 23.1722 20.255H0.827693C0.797298 20.2559 0.766903 20.2544 0.736691 20.2509C0.427428 20.2141 0.164307 20.0083 0.0538955 19.7172C0.0170916 19.6251 -0.0012188 19.5266 6.29273e-05 19.4275V4.53108C-0.0012188 4.43202 0.0170916 4.33351 0.0538955 4.24141C0.164307 3.95028 0.427428 3.74447 0.736691 3.70766C0.766903 3.70419 0.797298 3.70272 0.827693 3.70364H23.1722C23.2026 3.70272 23.2332 3.70419 23.2632 3.70766C23.5725 3.74447 23.8358 3.95028 23.946 4.24141C23.9828 4.33351 24.0012 4.43202 23.9999 4.53108Z" fill="#285680"/>
<path d="M23.9999 4.53108C24.0012 4.43202 23.9828 4.33351 23.946 4.24141C23.8358 3.95028 23.5725 3.74447 23.2632 3.70766C23.2332 3.70419 23.2026 3.70272 23.1722 3.70364H21.8151L14.4827 8.76005V3.70364H9.51726V8.76005L2.18486 3.70364H0.827693C0.797298 3.70272 0.766903 3.70419 0.736691 3.70766C0.427428 3.74447 0.164307 3.95028 0.0538955 4.24141C0.0170916 4.33351 -0.0012188 4.43202 6.29273e-05 4.53108V5.20967L6.21516 9.4965H0.000246031V14.4621H6.21114L0.000246031 18.7489V19.4275C-0.0012188 19.5266 0.0170916 19.6251 0.0540786 19.7172C0.164307 20.0083 0.427428 20.2141 0.736691 20.2509C0.766903 20.2544 0.797298 20.2559 0.827876 20.255H2.18504L9.51726 15.1985V20.255H14.4827V15.1985L21.8151 20.255H23.1722C23.2026 20.2559 23.233 20.2544 23.2632 20.2509C23.5725 20.2141 23.8356 20.0083 23.946 19.7172C23.9828 19.6251 24.0012 19.5266 23.9999 19.4275V18.7489L17.7848 14.4621H23.9999V9.4965H17.7888L23.9999 5.20967V4.53108Z" fill="#ECF0F1"/>
<path d="M23.9459 19.7171C23.8357 20.0083 23.5724 20.2141 23.2631 20.2509L14.8674 14.462H16.3323L23.9459 19.7171Z" fill="#C03A2B"/>
<path d="M9.13244 9.49635H7.6676L0.0539551 4.24127C0.164367 3.95013 0.427487 3.74432 0.73675 3.70752L9.13244 9.49635Z" fill="#C03A2B"/>
<path d="M23.946 4.24127L16.3241 9.49635H14.8716L23.2632 3.70752C23.5725 3.74432 23.8358 3.95013 23.946 4.24127Z" fill="#C03A2B"/>
<path d="M9.12841 14.462L0.73675 20.2509C0.427487 20.2141 0.164367 20.0083 0.0539551 19.7171L7.67603 14.462H9.12841Z" fill="#C03A2B"/>
<path d="M0.000244141 11.1516H23.9999V12.8067H0.000244141V11.1516Z" fill="#C03A2B"/>
<path d="M11.1724 3.70349H12.8276V20.2548H11.1724V3.70349Z" fill="#C03A2B"/>
</g>
<defs>
<clipPath id="clip0_274_408">
<rect width="24" height="24" fill="white"/>
</clipPath>
</defs>
</svg>
