<svg width="24" height="18" viewBox="0 0 24 18" fill="none" xmlns="http://www.w3.org/2000/svg">
<path d="M23.9459 16.7171C23.8357 17.0083 23.5724 17.2141 23.2631 17.2509L14.8674 11.462H16.3323L23.9459 16.7171Z" fill="#C03A2B"/>
<path d="M9.13244 6.49635H7.6676L0.0539551 1.24127C0.164367 0.950132 0.427487 0.744323 0.73675 0.70752L9.13244 6.49635Z" fill="#C03A2B"/>
<path d="M23.946 1.24127L16.3241 6.49635H14.8716L23.2632 0.70752C23.5725 0.744323 23.8358 0.950132 23.946 1.24127Z" fill="#C03A2B"/>
<path d="M9.12841 11.462L0.73675 17.2509C0.427487 17.2141 0.164367 17.0083 0.0539551 16.7171L7.67603 11.462H9.12841Z" fill="#C03A2B"/>
<path d="M0.000244141 8.15161H23.9999V9.80669H0.000244141V8.15161Z" fill="#C03A2B"/>
<path d="M11.1724 0.703491H12.8276V17.2548H11.1724V0.703491Z" fill="#C03A2B"/>
</svg>
