<svg xmlns="http://www.w3.org/2000/svg" viewBox="0 0 750 500"><g id="freepik--background-complete--inject-58"><path d="M176.46,91.18s20.42-10.1,29.83,15l-.58-9.46,3,5.24.29-6.63,3.87,11s-3.36-22.9,15.56-29c0,0-9.27,7.69-2.84,17.29,0,0-6.27,2.5-5.69,12A17.82,17.82,0,0,0,213.16,120s-6-12.29-16.51-9.52c0,0,1.9-11.54-8.65-12.46C188,98,185.92,91.58,176.46,91.18Z" style="fill:#e0e0e0"></path><path d="M125.94,392.34s3.65-9.76,0-13.84c0,0,7.26.68,5.15-8,0,0,4.93,1.72,4.19-5.67,0,0,3.39-.07,5-6.09,0,0-1.16,6.72,1.69,8,0,0-5.07,4.87-1.68,7.44,0,0-6.73,5.82-1.49,9.77C138.79,383.93,129.45,386.39,125.94,392.34Z" style="fill:#ebebeb"></path><path d="M139.5,362.64l-.09.28-.29.78c-.26.68-.64,1.66-1.13,2.87s-1.08,2.64-1.76,4.22c-.35.79-.7,1.62-1.09,2.48s-.77,1.74-1.19,2.64-.82,1.79-1.22,2.63-.8,1.66-1.17,2.44c-.76,1.54-1.45,2.93-2.05,4.09s-1.09,2.09-1.43,2.73c-.18.31-.31.56-.41.73a1.42,1.42,0,0,1-.16.25l.12-.27c.08-.18.21-.43.36-.76l1.37-2.76c.58-1.17,1.25-2.56,2-4.11l1.15-2.44c.4-.85.81-1.73,1.22-2.63l1.2-2.64c.38-.85.74-1.68,1.09-2.47.69-1.57,1.3-3,1.81-4.19s.91-2.17,1.2-2.84c.14-.33.26-.59.33-.77S139.49,362.63,139.5,362.64Z" style="fill:#e0e0e0"></path><path d="M135,378.81c0,.06-1,.76-2.26,1.72s-2.19,1.81-2.24,1.76a11,11,0,0,1,2.09-2A10.48,10.48,0,0,1,135,378.81Z" style="fill:#e0e0e0"></path><path d="M131.61,380.39a1.18,1.18,0,0,1,.06-.32l.23-.85c.1-.36.2-.78.31-1.26l.15-.75c0-.26.09-.53.13-.81s.08-.55.11-.81.06-.52.08-.76c0-.49.07-.93.09-1.3s0-.64,0-.87,0-.33,0-.33,0,.12.06.32,0,.51,0,.88,0,.82,0,1.31c0,.25,0,.51-.07.77s-.07.55-.11.83-.09.55-.14.81-.11.52-.17.76c-.11.48-.24.91-.35,1.26s-.22.64-.31.83S131.63,380.39,131.61,380.39Z" style="fill:#e0e0e0"></path><path d="M140.09,366.26a16.35,16.35,0,0,1-1.78,2.11,15.23,15.23,0,0,1-2,1.94,17,17,0,0,1,1.79-2.11A14.83,14.83,0,0,1,140.09,366.26Z" style="fill:#e0e0e0"></path><path d="M137.53,433l-16.21,5.81s-1.36-7.09-9.42-4.18c0,0,.65-7.45-5.69-5.07,0,0-2-4-4.76-5.69,0,0,5,.52,7.53-1.41,0,0,5,5.79,8.2.86,0,0,6.56,6.27,12.9,2.11C130.08,425.46,132.81,432.53,137.53,433Z" style="fill:#ebebeb"></path><path d="M102.08,424.09l.35.11,1,.34c.43.16,1,.34,1.58.55l2.09.72c1.56.52,3.42,1.11,5.49,1.74s4.37,1.26,6.8,1.88,4.74,1.14,6.86,1.59,4,.81,5.66,1.1c.8.15,1.54.26,2.18.37l1.65.27,1,.18.36.07a1.71,1.71,0,0,1-.37,0l-1.05-.12c-.45-.06-1-.13-1.65-.23s-1.38-.2-2.19-.34c-1.62-.27-3.54-.62-5.67-1.05s-4.46-1-6.88-1.58-4.73-1.27-6.8-1.9-3.93-1.25-5.48-1.79l-2.09-.75c-.61-.22-1.14-.42-1.56-.59l-1-.39A1.79,1.79,0,0,1,102.08,424.09Z" style="fill:#e0e0e0"></path><path d="M123.87,427.67a35.13,35.13,0,0,1,3.49,2.09,31.64,31.64,0,0,1,3.35,2.3,37.16,37.16,0,0,1-3.48-2.09A32.5,32.5,0,0,1,123.87,427.67Z" style="fill:#e0e0e0"></path><path d="M120,433.39a50.86,50.86,0,0,1,5.07-.8c2.81-.37,5.09-.62,5.1-.55s-2.26.42-5.07.79S120,433.45,120,433.39Z" style="fill:#e0e0e0"></path><path d="M116.75,426.86a27.21,27.21,0,0,1,3.26,1.73,30.11,30.11,0,0,1,3.14,1.93,27,27,0,0,1-3.26-1.72A28.49,28.49,0,0,1,116.75,426.86Z" style="fill:#e0e0e0"></path><path d="M108.65,427.68a10.28,10.28,0,0,1,2.25-.05,9.5,9.5,0,0,1,2.23.19,10.89,10.89,0,0,1-2.24.05A10.43,10.43,0,0,1,108.65,427.68Z" style="fill:#e0e0e0"></path><path d="M113.7,431.18a6.18,6.18,0,0,1,1-.21l2.55-.42c1-.18,1.89-.36,2.54-.49a5.37,5.37,0,0,1,1.06-.17,4.19,4.19,0,0,1-1,.34c-.64.17-1.54.38-2.54.55s-1.9.3-2.56.36A3.61,3.61,0,0,1,113.7,431.18Z" style="fill:#e0e0e0"></path><path d="M130,401.66s-7.6,1.69-10.48,6.34c0,0-3.5-5.86-9.5-3.12,0,0-4.56-5.41-9-2.37,0,0-4.06-6.29-8.65-5.28,0,0,6.79-1.12,8-3,0,0,5.73,3.56,10.45-.92,0,0,5.22,3.56,9.69-.16C120.48,393.12,126.6,401,130,401.66Z" style="fill:#ebebeb"></path><path d="M94.4,397.48a1.22,1.22,0,0,1,.36,0l1,.11,3.79.44c3.2.39,7.62.94,12.49,1.57s9.3,1.2,12.49,1.63l3.78.52,1,.16.36.07-.36,0-1-.11-3.79-.45c-3.2-.39-7.62-.94-12.5-1.56s-9.29-1.21-12.48-1.64l-3.78-.52-1-.15Z" style="fill:#e0e0e0"></path><path d="M110.26,403a4,4,0,0,1,.93-.53c.55-.27,1.37-.65,2.37-1.05s1.8-.53,2.43-.73,1-.43,1.05-.4a5,5,0,0,1-1,.42l-2.41.93-2.39,1A5.17,5.17,0,0,1,110.26,403Z" style="fill:#e0e0e0"></path><path d="M113.91,397a7.22,7.22,0,0,1,1.17.48c.7.33,1.68.79,2.74,1.31s2,1,2.72,1.38a6.47,6.47,0,0,1,1.09.63,5.93,5.93,0,0,1-1.17-.48c-.71-.32-1.68-.79-2.75-1.31s-2-1-2.71-1.37A6.31,6.31,0,0,1,113.91,397Z" style="fill:#e0e0e0"></path><path d="M101.11,401.27a3.47,3.47,0,0,1,.82-.52,17.15,17.15,0,0,1,2.14-.94,15.75,15.75,0,0,1,2.25-.63,3.27,3.27,0,0,1,1-.12,5.17,5.17,0,0,1-.93.29c-.57.15-1.35.38-2.2.69s-1.61.62-2.15.86A4.86,4.86,0,0,1,101.11,401.27Z" style="fill:#e0e0e0"></path><path d="M119.85,380.26s-8.17-5-14.72-3.42c0,0,2-8.19-5.71-10.93,0,0,.62-8.7-5.89-9.82,0,0,1.82-9-3.11-12.11,0,0,7,4.85,9.69,4.22,0,0,2,8.07,10,8.17,0,0,1.54,7.64,8.7,8.2C118.83,364.57,117.44,376.81,119.85,380.26Z" style="fill:#ebebeb"></path><path d="M101.46,364.67a7.29,7.29,0,0,1,1.29.29c.79.21,1.87.54,3,1s2.22.83,3,1.16a6.76,6.76,0,0,1,1.19.59,9.16,9.16,0,0,1-1.26-.43c-.76-.29-1.81-.68-3-1.1s-2.25-.76-3-1A6.7,6.7,0,0,1,101.46,364.67Z" style="fill:#e0e0e0"></path><path d="M109.68,362.11a9.13,9.13,0,0,1,.68,1.4c.39.87.91,2.09,1.48,3.44s1.06,2.59,1.41,3.48a10.36,10.36,0,0,1,.52,1.47,10.55,10.55,0,0,1-.68-1.4c-.39-.88-.91-2.1-1.48-3.45s-1.06-2.58-1.41-3.48A10,10,0,0,1,109.68,362.11Z" style="fill:#e0e0e0"></path><path d="M135.3,419s2.3-8.23-.7-13.44c0,0,7.5-.33,8-7.57,0,0,7.6-1.6,7-7.46,0,0,8.2-.66,9.61-5.63,0,0-2.45,7.15-1.24,9.33,0,0-6.42,3.69-4.53,10.58,0,0-6.16,3.2-4.88,9.47C148.48,414.25,137.66,416.06,135.3,419Z" style="fill:#ebebeb"></path><path d="M157.82,386.74l-.21.34c-.16.22-.37.54-.65.94l-2.4,3.43c-2,2.9-4.87,6.88-8,11.28s-6,8.36-8.07,11.23c-1,1.43-1.88,2.58-2.46,3.39-.3.39-.52.7-.68.91a2.88,2.88,0,0,1-.25.31,1.93,1.93,0,0,1,.21-.34l.64-.94,2.4-3.43c2-2.89,4.87-6.88,8-11.27s6-8.37,8.07-11.24l2.46-3.38.69-.92A2.52,2.52,0,0,1,157.82,386.74Z" style="fill:#e0e0e0"></path><path d="M144.26,399.24a4.45,4.45,0,0,1,0,1.18c0,.72-.09,1.73-.22,2.83s-.28,2.1-.42,2.81a4.71,4.71,0,0,1-.29,1.15,6.42,6.42,0,0,1,.12-1.17c.09-.72.22-1.72.35-2.82s.22-2.09.29-2.82A6.62,6.62,0,0,1,144.26,399.24Z" style="fill:#e0e0e0"></path><path d="M148.13,405.86a8.22,8.22,0,0,1-1.08.88c-.68.51-1.64,1.21-2.7,2s-2,1.44-2.74,1.91a7.48,7.48,0,0,1-1.17.74,7.63,7.63,0,0,1,1.07-.88c.69-.51,1.64-1.21,2.7-2s2-1.43,2.74-1.91A7.8,7.8,0,0,1,148.13,405.86Z" style="fill:#e0e0e0"></path><path d="M150.66,391.27a3.9,3.9,0,0,1,.06,1.06,17.6,17.6,0,0,1-.2,2.56,18.61,18.61,0,0,1-.56,2.51,4,4,0,0,1-.37,1,4.81,4.81,0,0,1,.21-1c.14-.63.33-1.51.48-2.49s.23-1.88.27-2.53A5.27,5.27,0,0,1,150.66,391.27Z" style="fill:#e0e0e0"></path><path d="M138.42,456.71c0-2.09.2-4.47.08-7.1q0-2-.09-4.14c0-1.43-.2-2.92-.3-4.46-.16-3.1-.64-6.37-1.07-9.83a155.28,155.28,0,0,0-5.06-22,154,154,0,0,0-8.5-21c-1.62-3.08-3.11-6-4.75-8.66-.81-1.33-1.53-2.64-2.32-3.84s-1.56-2.34-2.29-3.44c-1.41-2.22-2.91-4.08-4.14-5.77-.63-.84-1.19-1.63-1.75-2.34l-1.56-1.88-2.16-2.63-.55-.69a1.12,1.12,0,0,1-.17-.24l.21.21.58.66,2.23,2.57,1.6,1.87c.56.69,1.14,1.48,1.78,2.31,1.25,1.68,2.77,3.53,4.2,5.75l2.33,3.43c.8,1.19,1.53,2.51,2.34,3.83,1.66,2.62,3.17,5.58,4.81,8.66a152.2,152.2,0,0,1,8.56,21,150.74,150.74,0,0,1,5,22.13c.43,3.47.89,6.75,1,9.86.1,1.55.25,3,.28,4.48s0,2.82.06,4.14c.1,2.64-.08,5-.15,7.12" style="fill:#e0e0e0"></path><path d="M681.88,388.17c-2.62-14.05-6.44-27.89-7.94-42.1-.88-8.25-1-16.61-2.58-24.75s-4.94-16.26-11.14-21.78c-7.74-6.89-22.83-8-30.14-5.71-8.14,1.94-20.36,9.15-24.54,17.34s-4.93,17.69-4.76,26.88,1.16,18.43.11,27.56c-1.54,13.56-7.47,26.18-10.95,39.37s-4.17,28.34,3.79,39.42a30.15,30.15,0,0,0,32,11.07c5.37,5.53,15.61,5,20.4-1,7.12,4.7,17.14,3.18,23.89-2S680.63,439,682.6,430.7C685.91,416.8,684.5,402.21,681.88,388.17Z" style="fill:#ebebeb"></path><path d="M631.2,293a22.53,22.53,0,0,0-5.88,3.31c-3.42,2.65-7.31,8-9,15.67a43.76,43.76,0,0,0-.69,12.67c.3,4.58,1.1,9.45,1.85,14.59a95,95,0,0,1,1.23,16.31A133.12,133.12,0,0,1,617.08,373c-1.86,11.86-4.37,23-5.27,33.34s-.3,19.71,1.87,27.21A47.57,47.57,0,0,0,621.85,450a42.8,42.8,0,0,0,3.36,3.74,13.52,13.52,0,0,1,1.24,1.26,28.28,28.28,0,0,1-4.92-4.75,46.33,46.33,0,0,1-8.55-16.5c-2.3-7.58-3.07-17.13-2.12-27.51s3.34-21.6,5.19-33.41a135.08,135.08,0,0,0,1.67-17.33,95.79,95.79,0,0,0-1.16-16.15c-.73-5.14-1.49-10-1.77-14.67a44.42,44.42,0,0,1,.84-12.89c1.78-7.78,5.87-13.22,9.44-15.83a17.37,17.37,0,0,1,4.43-2.49A12.44,12.44,0,0,1,631.2,293Z" style="fill:#e0e0e0"></path><path d="M644,455.92c-.11-.08,1.53-1.84,3.82-5.49a53.24,53.24,0,0,0,6.46-16.92,88.13,88.13,0,0,0,1-26.89c-1-10.14-3.46-21.11-5.4-32.76a153.7,153.7,0,0,1-2-17.14,121.64,121.64,0,0,1,.3-16.08c.78-10.19,1.51-19.39.36-27a41.67,41.67,0,0,0-5.88-17,43.5,43.5,0,0,0-4.12-5.26,9.71,9.71,0,0,1,1.3,1.16,28.38,28.38,0,0,1,3.16,3.87,41,41,0,0,1,6.27,17.17c1.26,7.71.59,17-.14,27.17a123.83,123.83,0,0,0-.23,16,157.21,157.21,0,0,0,2,17c1.94,11.61,4.37,22.61,5.34,32.83a87.24,87.24,0,0,1-1.2,27.14,51.52,51.52,0,0,1-6.84,17A33.48,33.48,0,0,1,644,455.92Z" style="fill:#e0e0e0"></path><path d="M642.79,292.9s.15.06.41.22l1.15.74a25.39,25.39,0,0,1,4,3.44c3.22,3.25,6.84,9.05,9.06,16.95s2.71,17.7,3.43,28.39a90.14,90.14,0,0,0,2.47,16.57,142.85,142.85,0,0,0,6.07,17,117.77,117.77,0,0,1,5.85,17.22,58.54,58.54,0,0,1,1.4,16.9,65.76,65.76,0,0,1-7.81,27.44,61.78,61.78,0,0,1-11.71,15.32,39.7,39.7,0,0,1-4,3.41l-1.08.82a1.67,1.67,0,0,1-.39.26s.1-.13.32-.34l1-.9a50.41,50.41,0,0,0,3.84-3.55,64.44,64.44,0,0,0,11.34-15.36,66,66,0,0,0,7.51-27.15,58.39,58.39,0,0,0-1.44-16.62,118.27,118.27,0,0,0-5.83-17.06,142.7,142.7,0,0,1-6.09-17.12,90.42,90.42,0,0,1-2.44-16.76c-.67-10.74-.94-20.46-3.18-28.27s-5.56-13.58-8.65-16.87A40.1,40.1,0,0,0,642.79,292.9Z" style="fill:#e0e0e0"></path><path d="M632,292a11.75,11.75,0,0,1-.15,1.69c-.13,1.2-.3,2.82-.53,4.85-.42,4.21-.88,10.32-1.06,17.89s-.11,16.58,0,26.6.27,21,.41,32.58c.39,23.11,1.51,44,2.76,59.11.59,7.55,1.17,13.65,1.57,17.87.18,2,.33,3.65.44,4.86a11.33,11.33,0,0,1,.1,1.7,9.89,9.89,0,0,1-.3-1.68c-.16-1.2-.38-2.81-.65-4.84-.51-4.2-1.2-10.3-1.9-17.85-1.43-15.09-2.67-36-3.06-59.15-.22-11.57-.28-22.58-.33-32.6s-.07-19.05.23-26.63.85-13.7,1.4-17.91c.28-2.1.52-3.73.73-4.83A8.85,8.85,0,0,1,632,292Z" style="fill:#e0e0e0"></path><path d="M621.61,297.08c7.2-4.63,12.5-13.3,11.88-21.84l1.65,1.87,1.58-4.11a24.35,24.35,0,0,0,12.92,21.31c-4.86-2-11.55,2.19-13.64,6.92a6.67,6.67,0,0,0-5-5.24,14.68,14.68,0,0,0-9.35,1.09" style="fill:#e0e0e0"></path><path d="M594.7,429.1c-.11,0-.78-2-1.29-5.47a51.88,51.88,0,0,1,3.25-26.74c1.33-3.22,2.47-5.06,2.57-5s-.75,2-1.88,5.26a61.42,61.42,0,0,0-3.21,26.39C594.46,427,594.87,429.06,594.7,429.1Z" style="fill:#fff"></path><path d="M618.86,387.52c.29.08-.71,4.62-1.7,10.25S615.51,408,615.21,408s-.1-4.71.92-10.39S618.6,387.45,618.86,387.52Z" style="fill:#fff"></path><path d="M636,377c.29,0,.37,2.54.19,5.64s-.56,5.59-.85,5.57-.37-2.54-.19-5.63S635.71,377,636,377Z" style="fill:#fff"></path><path d="M652,363.44c.29,0,.66,2.41.83,5.42s.08,5.45-.2,5.47-.66-2.41-.84-5.42S651.67,363.46,652,363.44Z" style="fill:#fff"></path><path d="M695,377.14c-8.46-3.57-14.1-4.7-13.16-11.84s3.91-9.6,3.91-9.6L683,352.88a10.27,10.27,0,0,0-8.84,6.21c-2.82,6.21-3.43,9.4-7.36,12l-21,9.5,18.62,9.87,24.83-2.82,14.22-4.29S703.49,380.72,695,377.14Z" style="fill:#e0e0e0"></path><path d="M735.44,411.44c-.9-11.82-7.21-23.37-17.34-29.53-4.69-2.85-10.79-4.47-15.63-1.87a9.38,9.38,0,0,1-2.26,1.08,7.43,7.43,0,0,1-3.76-.49c-3.88-1.11-8.64-1.21-11.31,1.81-6.19-4.61-18.55-3.2-23.84,2.42-2.23-4.62-8.35-7.73-13.22-6.09a10,10,0,0,1-5.85.89c-3.55.07-6.83,1.9-9.6,4.12A39.89,39.89,0,0,0,619.47,405a59.19,59.19,0,0,0-.47,25.21c.77,4.26,1.94,8.57,4.5,12.06,3.09,4.23,7.87,6.84,12.49,9.31l11.59,6.2,61.33-.75c5.46.82,12.92-7.92,16.22-12.35C732.2,435.17,736.35,423.26,735.44,411.44Z" style="fill:#f5f5f5"></path><path d="M701.93,380.78s.3,0,.83.18a13.43,13.43,0,0,1,2.21,1,20.22,20.22,0,0,1,6.54,6,51.88,51.88,0,0,1,5.88,11.73c1.8,4.56,3.79,9.68,4.56,15.4s-.28,11.27-1.55,16a98.35,98.35,0,0,1-4.21,12.4,86.21,86.21,0,0,1-3.79,8,15.13,15.13,0,0,1-1.69,2.76,19.74,19.74,0,0,1,1.29-3c.86-1.89,2.11-4.61,3.43-8.07a113.22,113.22,0,0,0,3.94-12.36c1.2-4.72,2.21-10,1.43-15.59s-2.67-10.59-4.4-15.16a54.55,54.55,0,0,0-5.56-11.64,21.28,21.28,0,0,0-6.1-6.07C703,381.23,701.9,380.88,701.93,380.78Z" style="fill:#e0e0e0"></path><path d="M646.68,380.38a24.06,24.06,0,0,0-2.24,2.18,30.3,30.3,0,0,0-4,7.49,79.41,79.41,0,0,0-6.34,27.39A64.93,64.93,0,0,0,638.92,445c2.81,6.69,5.6,10.29,5.39,10.42,0,0-.22-.19-.55-.61s-.83-1-1.39-1.9a49.52,49.52,0,0,1-4.2-7.59,61.89,61.89,0,0,1-5.25-28,74.67,74.67,0,0,1,6.74-27.68,27.25,27.25,0,0,1,4.45-7.46,9.16,9.16,0,0,1,1.82-1.52C646.4,380.45,646.67,380.35,646.68,380.38Z" style="fill:#e0e0e0"></path><path d="M659.59,457s-.24-.12-.63-.45a9.84,9.84,0,0,1-1.46-1.66,27.57,27.57,0,0,1-3.49-7.31,41.49,41.49,0,0,1-2.23-11.8,115.8,115.8,0,0,1,.24-14.66,114.64,114.64,0,0,1,5.19-26.07c1-3.24,2.06-5.8,2.8-7.56a14.84,14.84,0,0,1,1.29-2.66,14.88,14.88,0,0,1-.87,2.83c-.61,1.79-1.49,4.39-2.44,7.63a130.37,130.37,0,0,0-4.81,25.93,126.67,126.67,0,0,0-.33,14.52,42.8,42.8,0,0,0,1.94,11.59,30.91,30.91,0,0,0,3.09,7.3C658.86,456.26,659.66,457,659.59,457Z" style="fill:#e0e0e0"></path><path d="M685.41,382.46s.29,0,.78.29a6.37,6.37,0,0,1,1.87,1.5c1.47,1.54,2.64,4.39,3.87,7.8,2.54,6.81,6.12,16.5,6.92,27.74a60.22,60.22,0,0,1-.44,15.82,44,44,0,0,1-4,12.3,51,51,0,0,1-4.53,7.43,17.51,17.51,0,0,1-2,2.44c-.22-.15,2.76-3.64,5.84-10.22a45.67,45.67,0,0,0,3.65-12.13,62.65,62.65,0,0,0,.34-15.53c-.8-11.11-4.2-20.67-6.54-27.57-1.14-3.48-2.15-6.24-3.44-7.79A11.25,11.25,0,0,0,685.41,382.46Z" style="fill:#e0e0e0"></path><path d="M635,414.23c-.32-.05,0-2.64.66-5.78s1.48-5.62,1.79-5.53,0,2.67-.66,5.78S635.35,414.28,635,414.23Z" style="fill:#fff"></path><path d="M654.32,424.19c-.32,0-.52-1.84-.45-4.1s.38-4.07.7-4.07.53,1.85.46,4.11S654.64,424.2,654.32,424.19Z" style="fill:#fff"></path><path d="M699.29,424.68c-.32-.05-.47-.86-.34-1.83s.5-1.7.82-1.66.46.86.33,1.82S699.6,424.72,699.29,424.68Z" style="fill:#fff"></path></g><g id="freepik--Floor--inject-58"><path d="M695.4,457.15c0,.14-143.46.26-320.38.26s-320.42-.12-320.42-.26S198,456.89,375,456.89,695.4,457,695.4,457.15Z" style="fill:#263238"></path></g><g id="freepik--Bats--inject-58"><path d="M40.52,194.46S61.84,188,68,197.83l1.67-4.49,1.51,3.81L75,196.6s.36-5,.49-4.14,2.27,3.7,2.27,3.7,6.93-11.16,23.65-7.87c0,0-10.54,0-10.67,8.73,0,0-7.62-1.86-7.33,5.55,0,0-5,1.7-4.27,7a39.6,39.6,0,0,0-4.37-3c-.38-.1-3.76,4.31-3.76,4.31s-.47-6.86-6.6-5.87c0,0,.29-7.76-9.13-4.06C55.31,200.93,57.12,193.84,40.52,194.46Z" style="fill:#263238"></path><path d="M435.72,35.26s31.8,1.81,35.35,18l4.44-5.22.17,5.86,5.4,1.13s2.9-6.5,2.68-5.32S485,55.79,485,55.79s14.78-11.61,35.65,1c0,0-14.16-5.19-18.62,6.51,0,0-9.34-6.22-12.56,3.88,0,0-7.55-.15-9.16,7.3,0,0-3.56-5.55-4.42-6.17-.45-.33-7.17,4-7.17,4s2.74-9.46-6-11.13c0,0,4.18-10.28-10.3-9.92C452.43,51.21,458.34,42.55,435.72,35.26Z" style="fill:#263238"></path><path d="M662.12,291.46s20.42-10.1,29.83,15.05l-.58-9.46,3,5.24.29-6.63,3.86,11s-3.35-22.9,15.57-29c0,0-9.27,7.69-2.84,17.29,0,0-6.27,2.5-5.69,12a17.82,17.82,0,0,0-6.74,13.27s-6-12.29-16.51-9.52c0,0,1.9-11.54-8.65-12.46C673.66,298.26,671.58,291.86,662.12,291.46Z" style="fill:#263238"></path></g><g id="freepik--character-1--inject-58"><path d="M180.23,160.77h427.7a6.74,6.74,0,0,1,6.74,6.74V438.62a14.57,14.57,0,0,1-14.57,14.57H187a14.57,14.57,0,0,1-14.57-14.57V168.52a7.75,7.75,0,0,1,7.75-7.75Z" style="fill:#263238"></path><path d="M154,431.56H633.07a0,0,0,0,1,0,0v11.86a13.72,13.72,0,0,1-13.72,13.72H167.71A13.72,13.72,0,0,1,154,443.42V431.56a0,0,0,0,1,0,0Z" style="fill:#263238"></path><rect x="184.35" y="172.39" width="417.21" height="246.94" style="fill:#fff"></rect><polygon points="349.99 431.56 355.93 441.02 439.58 441.02 445.11 431.56 349.99 431.56" style="fill:#455a64"></polygon><rect x="172.55" y="431.47" width="442.19" height="1.41" style="fill:#455a64"></rect><path d="M220.14,260.77S235.39,288,238.9,286.62c4.52-1.75,11.77-31.28,11.77-31.28S222.88,260.38,220.14,260.77Z" style="fill:#f5f5f5"></path><path d="M253.69,254.8s17.62,25.74,21,24.08c4.35-2.15,8.93-32.21,8.93-32.21S256.38,254.17,253.69,254.8Z" style="fill:#ebebeb"></path><path d="M286.48,245.7s19.86,24.06,23.07,22.09c4.13-2.53,6-32.88,6-32.88S289.1,244.83,286.48,245.7Z" style="fill:#f5f5f5"></path><path d="M316.9,234.5s21.24,22.85,24.33,20.7c4-2.77,4.06-33.18,4.06-33.18S319.47,233.47,316.9,234.5Z" style="fill:#ebebeb"></path><path d="M346.82,220.63s23.49,20.53,26.34,18.07c3.67-3.16.61-33.42.61-33.42S349.27,219.34,346.82,220.63Z" style="fill:#f5f5f5"></path><path d="M375.28,204.25s25,18.69,27.62,16c3.43-3.44-1.92-33.37-1.92-33.37S377.62,202.78,375.28,204.25Z" style="fill:#ebebeb"></path><path d="M186.6,263.85s13.06,28.33,16.66,27.25c4.65-1.39,14.2-30.26,14.2-30.26S189.36,263.67,186.6,263.85Z" style="fill:#ebebeb"></path><path d="M401.76,186.05l-3,2.21-9.15,6.4A403.91,403.91,0,0,1,348,219.24c-8.71,4.41-17.4,8.48-25.84,12.1-9.47,4-19.1,7.66-28.62,10.91l-7.43,2.45-7.4,2.26L271.4,249,264.17,251l-2.56.64c-1.53.39-3.06.78-4.58,1.12l-7,1.6c-1.5.33-3,.63-4.49.92l-2.43.49L236.27,257c-9.13,1.7-18,2.92-25.54,3.7-9,.91-17.4,1.44-24.16,1.72l.06,1.42c6.28-.25,15.16-.78,24.25-1.69,7.59-.89,16.46-2,25.65-3.69l6.82-1.28,2.42-.48c1.5-.29,3-.59,4.53-.93l7.06-1.59c1.53-.34,3.06-.73,4.6-1.13l2.57-.64,3.64-.92,18.4-5.36,7.45-2.46c9.57-3.26,19.23-7,28.73-11,8.47-3.63,17.19-7.72,25.93-12.16a399.56,399.56,0,0,0,41.69-24.73l6.15-4.25c.43-.3.84-.61,1.25-.91l4.79-3.49Z" style="fill:#e0e0e0"></path><rect x="184.35" y="171.86" width="417.21" height="37.84" style="fill:#e0e0e0"></rect><circle cx="206.52" cy="192.14" r="6.82" style="fill:#fff"></circle><path d="M231.27,191.62a6.82,6.82,0,1,1-6.82-6.82A6.82,6.82,0,0,1,231.27,191.62Z" style="fill:#fff"></path><path d="M249.2,191.09a6.82,6.82,0,1,1-6.82-6.82A6.82,6.82,0,0,1,249.2,191.09Z" style="fill:#fff"></path><path d="M422,210.51s-6.93,29.68-3.51,31c4.42,1.71,29.11-14.81,29.11-14.81S424.26,212,422,210.51Z" style="fill:#f5f5f5"></path><path d="M450.16,228.31s-4.25,30.18-.72,31.2c4.55,1.31,27.67-17.35,27.67-17.35S452.52,229.63,450.16,228.31Z" style="fill:#ebebeb"></path><path d="M479.81,243.35s-1.52,30.44,2.08,31.14c4.65.9,26-19.77,26-19.77S482.28,244.45,479.81,243.35Z" style="fill:#f5f5f5"></path><path d="M509.14,255.32s.26,30.48,3.9,31c4.7.63,24.8-21.25,24.8-21.25S511.67,256.27,509.14,255.32Z" style="fill:#ebebeb"></path><path d="M539.86,265s3.42,30.28,7.09,30.39c4.73.14,22.46-23.7,22.46-23.7S542.47,265.71,539.86,265Z" style="fill:#f5f5f5"></path><path d="M571.18,272s5.7,29.94,9.37,29.77c4.73-.22,20.6-25.34,20.6-25.34S573.84,272.45,571.18,272Z" style="fill:#ebebeb"></path><path d="M598.62,275.88l-10.81-1.41a395.51,395.51,0,0,1-46.19-9.66c-9.18-2.56-18.14-5.36-26.61-8.31-9.46-3.35-18.82-7.05-27.83-11l-7-3.12-6.82-3.25-6.65-3.32-6.48-3.38L458,231.22c-1.36-.73-2.72-1.45-4-2.21l-6.14-3.49c-1.3-.75-2.58-1.52-3.85-2.29L441.88,222l-5.74-3.56A200.38,200.38,0,0,1,419.33,207l-2.07.32c6.06,4.36,10.36,7.49,18.11,12.32l5.76,3.58,2.06,1.24c1.28.77,2.57,1.56,3.88,2.32l6.14,3.49c1.33.77,2.69,1.5,4.06,2.23l2.28,1.22,3.23,1.74,16.8,8.26,7,3.13c9.05,4,18.45,7.67,27.95,11,8.5,3,17.49,5.76,26.71,8.32a394.22,394.22,0,0,0,46.38,9.63l7.23,1c.51.07,1,.12,1.51.17l5.75.64.16-1.34Z" style="fill:#e0e0e0"></path><path d="M462.49,149.29c-.14,0-.63-8.28-1.09-18.5s-.71-18.52-.57-18.52.63,8.27,1.09,18.5S462.63,149.28,462.49,149.29Z" style="fill:#263238"></path><path d="M467.19,149.21a4.7,4.7,0,1,1-4.91-4.48A4.7,4.7,0,0,1,467.19,149.21Z" style="fill:#263238"></path><path d="M452.35,147.64a24.41,24.41,0,0,1,4-3.13l.31-.21.19-.14.15.18a22.2,22.2,0,0,1,2.89,3.73,23.55,23.55,0,0,1-3.28-3.39l.35,0-.31.21A25.92,25.92,0,0,1,452.35,147.64Z" style="fill:#263238"></path><path d="M451.42,153a23.93,23.93,0,0,1,3.2-3.95l.25-.28.15-.17.19.14a22.36,22.36,0,0,1,3.66,3,21.44,21.44,0,0,1-4-2.55l.34,0-.24.27A26.14,26.14,0,0,1,451.42,153Z" style="fill:#263238"></path><path d="M459.46,157.72a12.94,12.94,0,0,1-1.18-3.44l-.07-.26-.06-.23.22-.08a11.7,11.7,0,0,1,3.24-.94,11.84,11.84,0,0,1-3.05,1.43l.16-.31.06.25A13,13,0,0,1,459.46,157.72Z" style="fill:#263238"></path><path d="M463.84,148.15a25.42,25.42,0,0,1,3-4.14l.23-.29.14-.18.2.12a22.32,22.32,0,0,1,3.84,2.75,22.49,22.49,0,0,1-4.12-2.31l.34-.06-.22.29A24.9,24.9,0,0,1,463.84,148.15Z" style="fill:#263238"></path><path d="M465.42,152.37a25.63,25.63,0,0,1,3.2-4l.25-.27L469,148l.18.14a22.69,22.69,0,0,1,3.66,3,23,23,0,0,1-4-2.56l.35,0-.25.28A25.08,25.08,0,0,1,465.42,152.37Z" style="fill:#263238"></path><path d="M463.63,152.85a13.4,13.4,0,0,1,3.52.94l.24.09.23.08-.06.23a11.36,11.36,0,0,1-1,3.21,11.87,11.87,0,0,1,.52-3.33l.16.3-.25-.08A12.9,12.9,0,0,1,463.63,152.85Z" style="fill:#263238"></path><path d="M344.57,193.08s-61.41-17.92-53.25-28,222,32.8,200,47.31S344.57,193.08,344.57,193.08Z" style="fill:#B9DEE7"></path><g style="opacity:0.30000000000000004"><path d="M344.57,193.08s-61.41-17.92-53.25-28,222,32.8,200,47.31S344.57,193.08,344.57,193.08Z"></path></g><path d="M360.09,168.15c-10.61-.18-20.69,16.18-19.67,25.67.5,4.61,2.13,9.94-1.55,13.18s-10.89,2.64-14.38,6c0,0-4.47,4.28-4.36,10.08s-1.22,13.45-5.66,15.32l21,9.06c2.37-2.29,3.48-6,5.84-8.31-2.69,2.39-5.68,11.22,5.76,12.69l7.55-6.42c19.24,6.15,39.4,13.63,55.57,5.23" style="fill:#263238"></path><path d="M459.37,222.81c-1.28-4.41-3.55-8.54-4.36-13.06-1.76-9.72-4.77-15.17-9.17-24-3.14-6.29-2.09-14.82-8.73-17.1s-13-3.76-17.89-8.85c-3.56-3.73-5.49-8.77-9-12.52-5.05-5.33-12.69-7.33-20-8-7.51-.7-10.83,6.93-17.71,10s-15.5,2.85-16.94,10.26c-.71,3.61-2.07,6.58-3.32,10-1.39,3.8-4.5,6.69-6.48,10.23a19.34,19.34,0,0,0,4.1,23.33l49.55,68.41c10.72,4.45,23.31-8.83,32-16.58S462.62,234,459.37,222.81Z" style="fill:#263238"></path><path d="M351.46,194.72c2.61-15.09,14.71-32.63,29.67-29.38l46,17.1c4.55,1,6.82,4.78,4,3.61L418.22,296.21l-34.13,21.22L365.5,290.05c.89-9.21,1.24-15.8,1.24-15.8s-19.19-3.61-20.45-29.38C345.66,232.06,348.55,211.48,351.46,194.72Z" style="fill:#ffbf9d"></path><path d="M390.59,220.78a3.26,3.26,0,0,0,2.77,3.62,3.12,3.12,0,0,0,3.67-2.56,3.27,3.27,0,0,0-2.77-3.62A3.12,3.12,0,0,0,390.59,220.78Z" style="fill:#263238"></path><path d="M358.41,217.64a3.28,3.28,0,0,0,2.78,3.62,3.13,3.13,0,0,0,3.67-2.56,3.28,3.28,0,0,0-2.77-3.62A3.14,3.14,0,0,0,358.41,217.64Z" style="fill:#263238"></path><path d="M353.87,206.48c.33.61,3.43-1.21,7.2-.54s6.13,3.35,6.64,2.89c.24-.21,0-1.24-1-2.47a8.66,8.66,0,0,0-11.05-1.88C354.28,205.31,353.7,206.2,353.87,206.48Z" style="fill:#263238"></path><path d="M388.45,211.42c.43.56,3.49-1.5,7.56-1.2s6.89,2.7,7.37,2.2c.24-.22-.16-1.21-1.39-2.32a9.89,9.89,0,0,0-5.85-2.41,9.64,9.64,0,0,0-6.06,1.61C388.75,210.24,388.24,211.17,388.45,211.42Z" style="fill:#263238"></path><path d="M373.53,234.88c0-.19-2.09-.81-5.56-1.64-.88-.19-1.71-.46-1.79-1.09a4.64,4.64,0,0,1,.88-2.58c1.08-2.06,2.2-4.23,3.38-6.5,4.72-9.28,8.24-16.94,7.87-17.13s-4.51,7.18-9.23,16.45L365.81,229c-.45,1-1.16,2.07-.85,3.46a2.26,2.26,0,0,0,1.33,1.46,6.16,6.16,0,0,0,1.49.38C371.3,234.82,373.5,235.08,373.53,234.88Z" style="fill:#263238"></path><path d="M366.61,274.35a64.87,64.87,0,0,0,34.9-5.35s-10.2,18-35.29,12.86Z" style="fill:#ff9a6c"></path><path d="M389.17,199.49c.24,1,3.78.92,7.83,1.86s7.24,2.43,7.88,1.63c.28-.38-.2-1.34-1.43-2.4a14,14,0,0,0-12-2.66C389.91,198.36,389.07,199,389.17,199.49Z" style="fill:#263238"></path><path d="M355.59,193.89c.62.87,3.46.34,6.77.66s6.05,1.2,6.79.44c.33-.37,0-1.21-1.17-2.1a10.49,10.49,0,0,0-5.36-1.9,10.32,10.32,0,0,0-5.57,1C355.8,192.69,355.32,193.46,355.59,193.89Z" style="fill:#263238"></path><path d="M474.64,218.7c-2.18-4.56,2.7-9.27-.78-13.55-3.17-3.9-12-4.47-15-8.43-2.31-3.1-13.62-6.25-13.57-9,.08-3.5,1.62-16.92-10.76-19.91l-3.63,13.16c-1.31-.69-2.67-1.3-4-1.87a234,234,0,0,0-53.38-15.43c-2.41,3.71-.45,8.92,2.92,11.78s7.77,4.08,11.86,5.76,8.25,4.2,9.83,8.33c1.67,4.4,0,9.48,1.43,14,2.5,7.69,13,10.49,15.48,18.19,1.86,5.83-1.68,11.86-2.7,17.89a22.29,22.29,0,0,0,6,19.1c3.84,3.89,1.32,11.73,1.32,11.73l68.62-35.08C492,227.42,477.63,224.93,474.64,218.7Z" style="fill:#263238"></path><path d="M460.69,250a3.12,3.12,0,0,1,.16-.38,7.06,7.06,0,0,0,.45-1.13,10.25,10.25,0,0,0,.42-4.61,11.35,11.35,0,0,0-3.13-6.52,9.68,9.68,0,0,0-3.85-2.4c-1.54-.52-3.28-.75-5-1.45a6.76,6.76,0,0,1-2.4-1.56,6.88,6.88,0,0,1-1.52-2.57,15,15,0,0,1-.43-6.25,33.41,33.41,0,0,0,.41-6.59,8.3,8.3,0,0,0-.92-3.24,7.8,7.8,0,0,0-2.29-2.57,22.68,22.68,0,0,0-6.74-2.81,22.45,22.45,0,0,1-7.15-3.06,8.8,8.8,0,0,1-2.62-3.09,12.38,12.38,0,0,1-1.15-4c-.38-2.72-.24-5.5-.62-8.23A15.83,15.83,0,0,0,415,177.38c-2.37-1.08-5-1.26-7.47-1.64a17.87,17.87,0,0,1-3.69-.88,7.89,7.89,0,0,1-3.13-2.06c-1.69-1.9-2.19-4.35-2.86-6.5a16.07,16.07,0,0,0-3-5.79,16.69,16.69,0,0,0-10-5.78,15.08,15.08,0,0,0-9.45,1.55,17.46,17.46,0,0,0-5.63,4.71,15.85,15.85,0,0,0-2.27,4.08c-.22.49-.3.89-.4,1.15a1.7,1.7,0,0,1-.14.39,12.64,12.64,0,0,1,.44-1.58,15.23,15.23,0,0,1,2.21-4.16,17.35,17.35,0,0,1,5.65-4.84,15.37,15.37,0,0,1,9.65-1.66,17,17,0,0,1,10.29,5.87,16.42,16.42,0,0,1,3.11,5.93c.68,2.17,1.19,4.55,2.78,6.31s4.09,2.43,6.54,2.78,5.14.55,7.6,1.66a16.31,16.31,0,0,1,9.59,12.6c.38,2.8.24,5.57.61,8.23a12.19,12.19,0,0,0,1.1,3.79,8.21,8.21,0,0,0,2.47,2.92c4.22,3,9.79,3,13.87,5.89a8.21,8.21,0,0,1,2.42,2.73,9,9,0,0,1,1,3.42,34.58,34.58,0,0,1-.44,6.68,14.59,14.59,0,0,0,.38,6.07,6.54,6.54,0,0,0,1.42,2.44,6.74,6.74,0,0,0,2.26,1.49c1.67.68,3.41.93,5,1.47a10,10,0,0,1,3.95,2.51,11.55,11.55,0,0,1,3.12,6.69,10.06,10.06,0,0,1-.52,4.67,6.66,6.66,0,0,1-.5,1.12A1.57,1.57,0,0,1,460.69,250Z" style="fill:#455a64"></path><path d="M374.53,241.71c3.49-.73,7.87-1.82,11.36-2.56a7.76,7.76,0,0,1-10.47,10.37" style="fill:#ff9a6c"></path><path d="M375.42,249.52s.32.34,1.08.65a7.57,7.57,0,0,0,3.42.44,8.09,8.09,0,0,0,4.71-2.07,8.22,8.22,0,0,0,2.52-5.77,7.91,7.91,0,0,0-.83-3.83l-.17-.34-.36.08c-3.35.74-6.25,1.42-8.31,1.95a12.75,12.75,0,0,0-3.25,1,14,14,0,0,0,3.38-.41c2.09-.36,5-.91,8.38-1.6l-.53-.26a7.49,7.49,0,0,1,.7,3.37,7.61,7.61,0,0,1-2.17,5.14,7.69,7.69,0,0,1-4.16,2,8.52,8.52,0,0,1-3.21-.11C375.86,249.62,375.46,249.45,375.42,249.52Z" style="fill:#263238"></path><path d="M466.49,290.11c0,.36-11.38,1.14-25.45,1.75s-25.49.83-25.5.48,11.37-1.14,25.45-1.75S466.48,289.76,466.49,290.11Z" style="fill:#fff"></path><path d="M301.65,342.67s2.65-21.17,12.85-31.75,51.39-25.11,51.39-25.11,3.27,16.38,13.49,20c10.84,3.86,23.09,2.41,31-6.8,7.68-8.91,10.28-23.88,10.28-23.88s50.62,8.21,58.94,22.19,19.06,68.14,19.06,68.14L451,375.6,452.69,419H336.84l-3.51-37.69-34.49,4.92Z" style="fill:#B9DEE7"></path><path d="M441.57,378.68a7.42,7.42,0,0,1-.18-2.1c0-1.36-.05-3.32-.05-5.73,0-4.84.08-11.52.23-18.9s.35-14.06.55-18.89c.1-2.42.2-4.38.3-5.73a8.29,8.29,0,0,1,.25-2.1,7.24,7.24,0,0,1,.17,2.1c0,1.35.06,3.31.06,5.73,0,4.84-.08,11.52-.23,18.9s-.36,14.06-.55,18.9c-.1,2.42-.2,4.37-.3,5.72A8.19,8.19,0,0,1,441.57,378.68Z" style="fill:#263238"></path><path d="M321.58,340.27c.29-.08,3.27,9.38,6.64,21.13s5.88,21.35,5.59,21.43-3.26-9.37-6.64-21.13S321.29,340.35,321.58,340.27Z" style="fill:#263238"></path><path d="M474.3,294c0,.2-2.26.62-5.74,1.94a41.39,41.39,0,0,0-21.44,18.66c-1.8,3.26-2.53,5.48-2.72,5.41a4.93,4.93,0,0,1,.36-1.61,26,26,0,0,1,1.67-4.16,37.77,37.77,0,0,1,21.87-19,25.78,25.78,0,0,1,4.36-1.07A5,5,0,0,1,474.3,294Z" style="fill:#263238"></path><path d="M313.73,315.2c.3-.08,1.3,2.86,2.24,6.57s1.47,6.76,1.17,6.84-1.29-2.87-2.23-6.57S313.44,315.27,313.73,315.2Z" style="fill:#263238"></path><path d="M333.33,381.34,317,383.45l-15.39-39.7-24.89,10.07s13.73,46.48,19.09,65.27h50.54Z" style="fill:#ffbf9d"></path><path d="M335.07,412.32A92,92,0,0,1,326.69,402a72.51,72.51,0,0,1-5.41-9.37c-1.35-2.78-2.27-5.11-2.89-6.72a16.2,16.2,0,0,0-1-2.5,11.17,11.17,0,0,0,.62,2.63,60.61,60.61,0,0,0,2.59,6.92,67,67,0,0,0,5.28,9.6,85.09,85.09,0,0,0,8.41,10.46,29.52,29.52,0,0,1,4.83,6.18l1.28.09A33.77,33.77,0,0,0,335.07,412.32Z" style="fill:#ff9a6c"></path><path d="M301.65,343.75s.1-17.37-1.43-22.26l-11.59-27.05s-3.35-1.72-4,3.44a21.79,21.79,0,0,0,1.91,10.8l.37,7.18-5-4-9.56-17.91s-6.58-13-8.3-11-1.14,6.26,1.7,11.89l6.45,12.77s1,2.26-2.41-1-10.74-19.21-12.26-21.2-3.61-7.83-6.9-6.51.92,8.32.92,8.32l10.55,23.62s-6.11-8.95-7.22-10.46-3.65-6.63-5.65-9.23-4.19-3.63-5.64-3a3,3,0,0,0-1.83,3.6l11.26,19.54s5.63,8.76,5.62,9.42-4.91-2.89-4.91-2.89l-4.72-6s-5.1-9-7.78-8.52-2.19,2.49-2.19,2.49l9.48,16.4,13.76,17.69L277,354.44l8.5-2.74Z" style="fill:#ffbf9d"></path><path d="M274.6,340.82c.22,0,.36-2.13.88-5.48s1.67-8.11,5.65-11.25a9.43,9.43,0,0,1,5.72-2.18h.7l-.05-.77c-.22-3.37-.09-6.57-.22-8.7s-.3-3.47-.47-3.44a17.64,17.64,0,0,0-.33,3.43,87.06,87.06,0,0,0-.28,8.92l.66-.76a10.35,10.35,0,0,0-6.6,2.39,14.34,14.34,0,0,0-4.45,6.21,22.45,22.45,0,0,0-1.32,6C274.21,338.69,274.43,340.81,274.6,340.82Z" style="fill:#ff9a6c"></path><path d="M446.19,376.63l-4.07,42.46h40.44c1.63-6.2,7.65-51.81,7.65-51.81Z" style="fill:#ffbf9d"></path><path d="M291.15,166.06c31.1-10.38,65.57-10,65.57-10L441.21,176s37.41,16.86,51.56,33.46C426.41,184.28,368.9,173.81,291.15,166.06Z" style="fill:#B9DEE7"></path><path d="M442.88,130.21l24.46-17.09a5.4,5.4,0,0,0,3.74-3.6c.47-1.69.17-3.74-2.89-5.23-4.63-2.24-29.21-5-47.66,5.61s-65.75,47.47-68.44,49.89l91.44,23.82-1-46.73Z" style="fill:#B9DEE7"></path><path d="M356.72,156.06s51.18,6.42,87.89,21.51l-1.56-12.91s-32.39-17.93-75.59-16.93Z" style="fill:#455a64"></path><path d="M433.8,120.52a10.57,10.57,0,0,1,1.28,1.47c.77.92,1.88,2.15,3.16,3.46,2.56,2.61,4.75,4.64,4.64,4.76a6.94,6.94,0,0,1-1.56-1.17,47.3,47.3,0,0,1-3.46-3.23C435.24,123.19,433.66,120.59,433.8,120.52Z" style="fill:#263238"></path><g style="opacity:0.30000000000000004"><path d="M427.3,297.66c1,9.72-5.82,19.89-14.56,24.24s-17.9-.06-25.06-6.7c-4.18,3.31-7.34,6.7-13.46,8.11-6.34,1.45-12.08-2.67-14.86-8.75-2.19-4.78-2-10.27,0-16.9,0,0-4.72,18.89,10.91,21,13.32,1.82,19.22-10.24,19.22-10.24s7.58,12.36,18.75,9.13C425.47,312.6,427.3,297.66,427.3,297.66Z"></path></g><path d="M420.45,277.57s.1.07.26.24l.72.74a22.15,22.15,0,0,1,2.39,3.18,23.58,23.58,0,0,1,2.59,5.73,25.78,25.78,0,0,1,1,8.26,25.35,25.35,0,0,1-.72,4.81,23.92,23.92,0,0,1-1.93,4.91,24.86,24.86,0,0,1-7.73,8.6,23.77,23.77,0,0,1-12,4.22,22.54,22.54,0,0,1-3.39,0,14.69,14.69,0,0,1-3.38-.73,13.08,13.08,0,0,1-3.09-1.69,16.54,16.54,0,0,1-2.57-2.45,31.44,31.44,0,0,1-3.33-4.84l.42,0a30.75,30.75,0,0,1-9.61,8.32,16.93,16.93,0,0,1-11.57,1.57A12.38,12.38,0,0,1,363.6,316a13.23,13.23,0,0,1-3.22-4.06,18.29,18.29,0,0,1-1.88-9,26.87,26.87,0,0,1,1.47-7.41,51.06,51.06,0,0,1,2.15-5.26c.66-1.41,1.2-2.48,1.57-3.21l.43-.82a2.24,2.24,0,0,1,.16-.27,1.43,1.43,0,0,1-.11.29l-.39.84-1.49,3.25a55.29,55.29,0,0,0-2.06,5.27,27.47,27.47,0,0,0-1.38,7.33,18,18,0,0,0,1.9,8.78,12.81,12.81,0,0,0,3.13,3.91,11.87,11.87,0,0,0,4.76,2.34,16.34,16.34,0,0,0,11.23-1.56,30.31,30.31,0,0,0,9.44-8.2l.24-.29.19.33a31.21,31.21,0,0,0,3.27,4.75,16.89,16.89,0,0,0,2.49,2.37,12.51,12.51,0,0,0,2.95,1.62,13.66,13.66,0,0,0,3.26.7,21.38,21.38,0,0,0,3.3,0,23.32,23.32,0,0,0,11.8-4.11,23.32,23.32,0,0,0,9.54-13.21,24,24,0,0,0-.22-12.89,23.69,23.69,0,0,0-2.49-5.71,24.28,24.28,0,0,0-2.29-3.21l-.68-.78A3.46,3.46,0,0,1,420.45,277.57Z" style="fill:#263238"></path></g><g id="freepik--Ballons--inject-58"><path d="M152.29,236.86s.18-.43.43-1.28a9.82,9.82,0,0,0,.31-3.8,17,17,0,0,0-1.78-5.77,29.07,29.07,0,0,0-1.9-3.29c-.75-1.12-1.61-2.27-2.48-3.49a28.83,28.83,0,0,1-4.69-8.66,12.6,12.6,0,0,1-.45-2.69,8.43,8.43,0,0,1,0-1.42,8.64,8.64,0,0,1,.3-1.41,9.93,9.93,0,0,1,3.26-4.86,8.06,8.06,0,0,1,2.74-1.43,5.09,5.09,0,0,1,3.18.07,5,5,0,0,1,2.57,2,5.76,5.76,0,0,1,.9,3.18,7.25,7.25,0,0,1-9.48,7.15,11.81,11.81,0,0,1-5.81-3.61,14.88,14.88,0,0,1-3.08-5.9c-1.19-4.24-1-8.5-.89-12.45a39.55,39.55,0,0,0-.77-11.15A62.21,62.21,0,0,0,131,169a26.32,26.32,0,0,1-2.37-7.77,14.36,14.36,0,0,1,.52-6.1,9,9,0,0,1,1.93-3.36,6,6,0,0,1,.73-.69q.25-.22.27-.21s-.35.31-.93,1a9.47,9.47,0,0,0-1.81,3.35,14.27,14.27,0,0,0-.42,6,26.14,26.14,0,0,0,2.42,7.65,61.32,61.32,0,0,1,3.71,9.12,39.44,39.44,0,0,1,.84,11.27c-.1,3.95-.27,8.17.9,12.3a14.36,14.36,0,0,0,3,5.69,11.3,11.3,0,0,0,5.55,3.46,6.74,6.74,0,0,0,8.84-6.65,5.26,5.26,0,0,0-.81-2.91,4.68,4.68,0,0,0-5.2-1.85,7.52,7.52,0,0,0-2.57,1.34,9,9,0,0,0-3,9.89,28.8,28.8,0,0,0,4.58,8.55c.86,1.23,1.71,2.39,2.45,3.53a30.32,30.32,0,0,1,1.89,3.34,16.89,16.89,0,0,1,1.72,5.88,9.3,9.3,0,0,1-.41,3.85A6.31,6.31,0,0,1,152.29,236.86Z" style="fill:#263238"></path><ellipse cx="114.75" cy="95.56" rx="49.82" ry="54.16" transform="translate(-16.52 24.37) rotate(-11.31)" style="fill:#B9DEE7"></ellipse><path d="M118.42,103.25c.12,1.49.23,3,.35,4.46a60.8,60.8,0,0,1-9.5,1.3c-.49-1.65-1-3.3-1.46-5a94.33,94.33,0,0,1-27.68-5,50.5,50.5,0,0,0,17.11,12.71l-.33-2.8,6.33-.76.71,5.87a36.8,36.8,0,0,0,20.58-.7,48.67,48.67,0,0,0,7.34-3l-.85-7,6.33-.77.49,4c11.77-9.2,10.22-21.16,10.22-21.16S135.74,100.16,118.42,103.25Z" style="fill:#263238"></path><path d="M104.57,93.31a2.63,2.63,0,0,1-2.16-.32A17.57,17.57,0,0,1,100,91.2a11.37,11.37,0,0,0-2.43-1.65,3.36,3.36,0,0,0-.92-.28c-.23,0-.33,0-.59,0a5.64,5.64,0,0,0-1.88.45A7.87,7.87,0,0,0,92,91.18c-1.41,1.25-2.6,2.7-4,2.68a2.23,2.23,0,0,1-1.84-1.25,6.52,6.52,0,0,1-.73-3.82A9.94,9.94,0,0,1,88,83.08a10.91,10.91,0,0,1,7.59-3.63,10,10,0,0,1,4.74.92,10.45,10.45,0,0,1,3.32,2.46,10.59,10.59,0,0,1,2.58,5.27,7.26,7.26,0,0,1-.2,3.54A2.52,2.52,0,0,1,104.57,93.31Z" style="fill:#263238"></path><path d="M139.61,81.88a2.61,2.61,0,0,1-2.08.66,15.48,15.48,0,0,1-3-.53,11.73,11.73,0,0,0-2.91-.41,3,3,0,0,0-.95.16,4.19,4.19,0,0,0-.52.26,5.66,5.66,0,0,0-1.49,1.23,8.23,8.23,0,0,0-1.28,2.23c-.71,1.75-1.14,3.57-2.38,4.16a2.21,2.21,0,0,1-2.2-.32,6.52,6.52,0,0,1-2.34-3.11A10,10,0,0,1,120.2,80a10.92,10.92,0,0,1,5.22-6.6,10.23,10.23,0,0,1,4.66-1.26,10.61,10.61,0,0,1,8.7,4.36,7.26,7.26,0,0,1,1.38,3.27A2.54,2.54,0,0,1,139.61,81.88Z" style="fill:#263238"></path><path d="M113.33,87.12c-.49,3.51-.66,6.78-1.15,10.29a1.18,1.18,0,0,0,.15,1c.31.31.84.18,1.25,0l7.17-2.65A65.13,65.13,0,0,1,113.33,87.12Z" style="fill:#263238"></path><path d="M121.71,149.08a29.84,29.84,0,0,0-3,15.13c.1,1.44.66,3.25,2.1,3.36a3,3,0,0,0,2.26-1.2,22.52,22.52,0,0,0,5.17-8.44,11.81,11.81,0,0,0,12.48,5.23,2.82,2.82,0,0,0,2.12-1.41c.41-1-.26-2.09-.92-2.95a69,69,0,0,0-15.77-14.87" style="fill:#B9DEE7"></path><path d="M559,383.64a7.69,7.69,0,0,1-.07.85c-.05.55-.17,1.37-.34,2.41a51.34,51.34,0,0,1-2.28,8.68,53.94,53.94,0,0,1-6,11.88,33.68,33.68,0,0,0-4,6.66,9.87,9.87,0,0,0-.64,4,6,6,0,0,0,1.53,3.72,6.26,6.26,0,0,0,7.38,1.48,6.17,6.17,0,0,0-.87-11.34,8.4,8.4,0,0,0-5.91-.17,10.15,10.15,0,0,0-4.07,2.85,13.87,13.87,0,0,0-2.07,3.19,16.12,16.12,0,0,0-.86,2.26,5.66,5.66,0,0,1-.25.82,11.21,11.21,0,0,1,.92-3.16,13.6,13.6,0,0,1,2-3.3,10.38,10.38,0,0,1,4.17-3,8.65,8.65,0,0,1,6.19.11,7.62,7.62,0,0,1,2.9,2,6.13,6.13,0,0,1,1.59,3.38,6.94,6.94,0,0,1-3.54,6.82,6.77,6.77,0,0,1-8-1.58,6.42,6.42,0,0,1-1.66-4,10.06,10.06,0,0,1,.68-4.17,32.67,32.67,0,0,1,4.06-6.76A54.66,54.66,0,0,0,556,395.46a57.78,57.78,0,0,0,2.44-8.59c.19-1,.34-1.85.43-2.4A4.37,4.37,0,0,1,559,383.64Z" style="fill:#263238"></path><ellipse cx="579.1" cy="326.03" rx="53.87" ry="49.55" transform="translate(82.61 767.79) rotate(-71.04)" style="fill:#B9DEE7"></ellipse><path d="M578.4,334.48c-.65,1.33-1.29,2.67-1.94,4a59.4,59.4,0,0,1-8.81-3.64l1.23-5a93.73,93.73,0,0,1-21.28-18.17,50.36,50.36,0,0,0,8.33,19.5l1.11-2.56,5.83,2.52-2.34,5.4a36.82,36.82,0,0,0,18,9.72,48.51,48.51,0,0,0,7.81,1.11l2.8-6.47,5.82,2.52-1.61,3.72c14.73-2,19.39-13.05,19.39-13.05S594.83,340.51,578.4,334.48Z" style="fill:#263238"></path><path d="M571.48,319a2.63,2.63,0,0,1-1.69-1.37,15.14,15.14,0,0,1-1.2-2.76,12,12,0,0,0-1.27-2.64,3,3,0,0,0-.66-.7,5.54,5.54,0,0,0-.5-.29,6,6,0,0,0-1.84-.56,8.23,8.23,0,0,0-2.55.18c-1.84.37-3.59,1-4.76.32a2.2,2.2,0,0,1-1-2,6.42,6.42,0,0,1,1.29-3.64,9.88,9.88,0,0,1,5-3.66,10.88,10.88,0,0,1,8.34.68,10.07,10.07,0,0,1,3.61,3.17,10.29,10.29,0,0,1,1.62,3.78,10.45,10.45,0,0,1-.43,5.82,7.24,7.24,0,0,1-1.94,2.95A2.56,2.56,0,0,1,571.48,319Z" style="fill:#263238"></path><path d="M607.32,326.75a2.63,2.63,0,0,1-2.12-.48,15.71,15.71,0,0,1-2.3-2,11.69,11.69,0,0,0-2.3-1.81,3.3,3.3,0,0,0-.89-.34,5.35,5.35,0,0,0-.58,0,5.64,5.64,0,0,0-1.9.3,8.25,8.25,0,0,0-2.21,1.28c-1.49,1.14-2.78,2.5-4.14,2.38a2.22,2.22,0,0,1-1.73-1.38,6.44,6.44,0,0,1-.45-3.84,9.94,9.94,0,0,1,2.89-5.48,10.84,10.84,0,0,1,7.79-3.05A10.08,10.08,0,0,1,604,313.6a10.53,10.53,0,0,1,5.29,8.1,7.24,7.24,0,0,1-.46,3.5A2.52,2.52,0,0,1,607.32,326.75Z" style="fill:#263238"></path><path d="M582.11,318.07c-2.18,2.77-4,5.49-6.15,8.26a1.15,1.15,0,0,0-.35.92c.1.42.62.58,1,.65l7.49,1.32A64.92,64.92,0,0,1,582.11,318.07Z" style="fill:#263238"></path><path d="M558.24,375.5A29.67,29.67,0,0,0,548.08,387c-.64,1.29-1.06,3.12.12,3.94a3,3,0,0,0,2.54.1,22.5,22.5,0,0,0,8.68-4.65,11.73,11.73,0,0,0,8.1,10.74,2.83,2.83,0,0,0,2.53-.14c.85-.66.82-1.93.68-3a68.65,68.65,0,0,0-6.08-20.69" style="fill:#B9DEE7"></path></g><g id="freepik--character-4--inject-58"><rect x="500.65" y="97.54" width="203.25" height="158.41" rx="14.58" style="fill:#fff"></rect><path d="M515,97.54H689.15a14.35,14.35,0,0,1,14.35,14.35v9.38a0,0,0,0,1,0,0H500.65a0,0,0,0,1,0,0v-9.38A14.35,14.35,0,0,1,515,97.54Z" style="fill:#e0e0e0"></path><path d="M689.32,256l.45,0c.3,0,.75,0,1.34-.11a14.6,14.6,0,0,0,11-7.56,14.44,14.44,0,0,0,1.61-5.18,27,27,0,0,0,.1-3c0-1,0-2.11,0-3.22,0-17.67,0-43.23-.08-74.82q0-11.85,0-24.79V124c0-2.24,0-4.5,0-6.78V113.8a26.25,26.25,0,0,0-.12-3.44,14.3,14.3,0,0,0-7.66-11A14.62,14.62,0,0,0,689,97.76H651.13l-135.88,0a15.34,15.34,0,0,0-4.37.68,14.78,14.78,0,0,0-3.93,2,13.62,13.62,0,0,0-3.14,3.06,13.15,13.15,0,0,0-2.07,3.85c-1.07,2.76-.79,5.76-.83,8.71v43.51c0,22.73,0,44.65,0,65.54v15.47a17.84,17.84,0,0,0,.3,3.73,14.65,14.65,0,0,0,1.24,3.49A14.26,14.26,0,0,0,514,255.66c1.19.08,2.41.06,3.62.06H535.4l51.67,0,74.81.08,20.34,0,5.29,0,1.81,0-1.81,0-5.29,0-20.34.05-74.81.08-51.67,0H517.62c-1.21,0-2.42,0-3.66-.06A14.72,14.72,0,0,1,502,248a15.58,15.58,0,0,1-1.28-3.6,18.34,18.34,0,0,1-.31-3.83q0-7.64,0-15.47c0-20.89,0-42.81,0-65.54q0-17.06,0-34.67v-8.84c0-1.48,0-2.95,0-4.45a14,14,0,0,1,.83-4.43,13.73,13.73,0,0,1,2.14-4,14.22,14.22,0,0,1,3.26-3.17,15.26,15.26,0,0,1,4.07-2,16.16,16.16,0,0,1,4.53-.7l135.88,0H689a14.79,14.79,0,0,1,15,13,27.39,27.39,0,0,1,.12,3.49v3.44q0,3.42,0,6.78v13.19q0,12.93,0,24.79c0,31.59-.06,57.15-.08,74.82,0,1.11,0,2.18,0,3.22a27.53,27.53,0,0,1-.11,3,14.61,14.61,0,0,1-1.66,5.23,14.88,14.88,0,0,1-6.06,6,14.58,14.58,0,0,1-5,1.55C689.93,256,689.32,256,689.32,256Z" style="fill:#263238"></path><path d="M517.4,110.34a2.53,2.53,0,1,1-2.53-2.52A2.52,2.52,0,0,1,517.4,110.34Z" style="fill:#fff"></path><path d="M524.48,110.34a2.53,2.53,0,1,1-2.52-2.52A2.52,2.52,0,0,1,524.48,110.34Z" style="fill:#fff"></path><path d="M531.57,110.34a2.53,2.53,0,1,1-2.53-2.52A2.52,2.52,0,0,1,531.57,110.34Z" style="fill:#fff"></path><path d="M638.85,202.49l14.8-32s-12.22-15.36-44-14.2S565.75,171,565.75,171l16.13,33.75Z" style="fill:#263238"></path><path d="M591.29,220.91l-21.53-49.09s2.81-6.73,14.11-8.51c.56-.09,1.13-.14,1.69-.19l11-.62Z" style="fill:#B9DEE7"></path><path d="M579.16,133.22a6.24,6.24,0,0,1-3.5-11.91A6.49,6.49,0,0,1,580.53,110a7.77,7.77,0,0,1,11.23-7.18,8.72,8.72,0,0,1,10.71-1A6.21,6.21,0,0,1,608.69,112" style="fill:#263238"></path><path d="M628.94,188.47l-1.64-53.55c.2-14.8-8.25-27.26-23-27l-1.37.1a26.47,26.47,0,0,0-24.56,26.19c-.1,12.83-.05,27,.53,33.84,1.2,14.16,15.54,15.33,15.54,15.33l.46,11.8,17.59,12Z" style="fill:#ffbf9d"></path><path d="M594.27,183.32a34.45,34.45,0,0,0,18.17-6.78s-3.63,10.51-17.86,10.26Z" style="fill:#ff9a6c"></path><path d="M585.4,145.66a2,2,0,0,0,2.1,1.9,1.93,1.93,0,0,0,2-2,2,2,0,0,0-2.09-1.91A2,2,0,0,0,585.4,145.66Z" style="fill:#263238"></path><path d="M581.87,140.87c.27.24,1.72-1,3.9-1.15s3.85.82,4.07.53c.11-.12-.18-.58-.92-1a5.54,5.54,0,0,0-3.28-.75,5.32,5.32,0,0,0-3.08,1.24C581.93,140.27,581.74,140.76,581.87,140.87Z" style="fill:#263238"></path><path d="M605.25,144.91a2,2,0,0,0,2.1,1.9,2,2,0,0,0,2-2,2,2,0,0,0-2.1-1.9A2,2,0,0,0,605.25,144.91Z" style="fill:#263238"></path><path d="M603.3,139.72c.27.25,1.73-1,3.9-1.15s3.85.82,4.07.54-.18-.59-.91-1a5.6,5.6,0,0,0-3.29-.76,5.33,5.33,0,0,0-3.07,1.25C603.37,139.12,603.17,139.61,603.3,139.72Z" style="fill:#263238"></path><path d="M596.57,156.44a14.71,14.71,0,0,0-3.58-.38c-.56,0-1.09-.09-1.22-.46a2.82,2.82,0,0,1,.26-1.68c.42-1.38.87-2.83,1.33-4.35,1.85-6.19,3.14-11.27,2.89-11.34s-2,4.89-3.79,11.08c-.44,1.53-.87,3-1.27,4.38a3.27,3.27,0,0,0-.13,2.2,1.42,1.42,0,0,0,1,.75,4.15,4.15,0,0,0,1,.06A13.64,13.64,0,0,0,596.57,156.44Z" style="fill:#263238"></path><path d="M602.24,134.78c.37.51,2.13-.37,4.4-.79s4.24-.33,4.36-.93c0-.28-.43-.71-1.32-1a7,7,0,0,0-3.52-.2,6.68,6.68,0,0,0-3.15,1.51C602.33,134,602.08,134.54,602.24,134.78Z" style="fill:#263238"></path><path d="M581,134c.43.52,2.26.13,4.42.25s4,.6,4.43.11c.2-.24-.06-.76-.82-1.28a7.48,7.48,0,0,0-7.13-.29C581.07,133.27,580.78,133.76,581,134Z" style="fill:#263238"></path><path d="M579.21,127.56s3.1-9.14,7.23-11.53c5-2.88,7.64,2.65,12.47.91s9.61-4.5,14.93-1c5.82,3.77,3.45,6.89,4.25,13.15,3.23,25.39,8.41,32.26,8.86,20.16,0-1.33,3.62-2.64,3.76-8.23.18-7.26-.18-16-2.16-21-1.66-4.21-4.34-7-9-10-7.34-4.68-16.9-4.1-23.34-3S577.82,116.49,579.21,127.56Z" style="fill:#263238"></path><path d="M626,148.88a3.86,3.86,0,0,1,3.88-4c2.66.06,5.71,1.35,5.93,6.82.4,9.71-9.43,8.1-9.46,7.82S626.15,152.94,626,148.88Z" style="fill:#ffbf9d"></path><path d="M628.34,155.78s.17.11.46.23a1.74,1.74,0,0,0,1.27,0c1-.42,1.8-2.08,1.78-3.83a5.55,5.55,0,0,0-.57-2.4A2,2,0,0,0,630,148.5a.87.87,0,0,0-1,.5c-.11.28,0,.47-.1.49s-.21-.15-.15-.56a1.06,1.06,0,0,1,.36-.62A1.28,1.28,0,0,1,630,148a2.38,2.38,0,0,1,1.83,1.44,5.67,5.67,0,0,1,.7,2.68c0,2-.91,3.83-2.3,4.29a1.83,1.83,0,0,1-1.56-.19C628.36,156,628.3,155.79,628.34,155.78Z" style="fill:#ff9a6c"></path><path d="M624.47,130.12a9.25,9.25,0,0,1-4,2.2c-1.5.26-3.3-.49-3.66-2-.17-.67-.06-1.46-.54-1.95s-1.54-.32-2.34-.17c-2.8.5-6.31-2.37-7.23-5.06a2.52,2.52,0,0,1-3.33.94,9.16,9.16,0,0,1-2.48-1.9,4,4,0,0,0-3.45-1.42,9.39,9.39,0,0,1-2.07.61c-1.28,0-2-1.46-2.29-2.71s-.54-2.71-1.67-3.32-2.31-.1-3.47.16-2.69.09-3.08-1a2.34,2.34,0,0,1,.31-1.79,6.29,6.29,0,0,1,7.23-2.92A8.54,8.54,0,0,1,607.94,107a8.65,8.65,0,0,1,14,2.15,6.27,6.27,0,0,1,7.71,8.59,5.93,5.93,0,0,1,3.61,4.49c.19,2-1.62,4.14-3.59,3.75a3.48,3.48,0,0,1-5.75,3.89" style="fill:#263238"></path><path d="M591.92,112.7s0,.06,0,.17a4.48,4.48,0,0,0,.1.52,5.92,5.92,0,0,0,.83,1.81,7,7,0,0,0,2.32,2.14,6.45,6.45,0,0,0,4,.84l-.18-.2a3.49,3.49,0,0,0,.39,2.66,9.77,9.77,0,0,0,1.83,2.26,6.87,6.87,0,0,0,1.16,1,3.34,3.34,0,0,0,1.58.46,3.55,3.55,0,0,0,3-1.34l-.37-.08a7.24,7.24,0,0,0,3.44,4.8,5.33,5.33,0,0,0,3.26.82,9.68,9.68,0,0,0,3.08-.92l-.26-.09a7.61,7.61,0,0,0,2.51,2.82,4,4,0,0,0,3.44.67,5.34,5.34,0,0,0,3.8-4.47l-.21.12a5.05,5.05,0,0,0,3.37.24,5.33,5.33,0,0,0,2.24-1.2,4.69,4.69,0,0,0,1-1.26,2.34,2.34,0,0,0,.21-.52,5.89,5.89,0,0,1-1.32,1.66,5.35,5.35,0,0,1-2.19,1.1,4.77,4.77,0,0,1-3.18-.29l-.19-.09,0,.21a5.06,5.06,0,0,1-3.61,4.15,3.72,3.72,0,0,1-3.13-.65,7.31,7.31,0,0,1-2.36-2.68l-.09-.17-.17.08a9.55,9.55,0,0,1-2.95.87,4.86,4.86,0,0,1-3-.76,6.85,6.85,0,0,1-3.26-4.53l-.09-.45-.28.38A3.14,3.14,0,0,1,604,124a3,3,0,0,1-1.4-.39,7.57,7.57,0,0,1-1.1-1,9.87,9.87,0,0,1-1.78-2.16,3.21,3.21,0,0,1-.39-2.41l.06-.23-.24,0a6.22,6.22,0,0,1-3.88-.75,6.87,6.87,0,0,1-2.29-2A7.52,7.52,0,0,1,591.92,112.7Z" style="fill:#455a64"></path><path d="M604.75,158.26l1.43,1.18a6.34,6.34,0,0,1,.63.64c.3.32.42.67.17.85-.44.23-3.14-.76-3.14-.76a5.44,5.44,0,0,0,.86-1.84" style="fill:#fff"></path><path d="M600.24,163.58c0,.62,0,1.24,0,1.86a6.73,6.73,0,0,1-.1.89c-.06.43-.27.74-.57.66s-1.35-2.92-1.35-2.92a5.59,5.59,0,0,0,2-.48" style="fill:#fff"></path><path d="M597.59,163.86c0-.37,2.45,0,4.44-1.88s2.09-4.44,2.43-4.42c.16,0,.39.64.27,1.73a6.06,6.06,0,0,1-1.88,3.71,5.33,5.33,0,0,1-3.71,1.42C598.11,164.37,597.55,164,597.59,163.86Z" style="fill:#263238"></path><path d="M629.47,185.41,648,193.13a63.65,63.65,0,0,1,28.37,22.94c1.65,2.44,6.89,21.26,7.28,22.81,1.52,6.19,4,16.83,4,16.83H540.83s4.34-41.94,14.8-50.05c6.78-5.26,38.68-19.9,38.68-19.9s5.8,8.62,15.39,8.86C624.23,195,629.47,185.41,629.47,185.41Z" style="fill:#e0e0e0"></path><path d="M629.47,185.41v70.3l58.63.34s-6.94-29.8-11.06-38.49c-3.52-7.41-6.94-13.07-16.25-18.76C649.53,191.93,629.47,185.41,629.47,185.41Z" style="fill:#263238"></path><path d="M592.76,186.48l-1.47,69.57H533.14s6.46-29.46,10.58-38.14c3.52-7.42,6.94-13.08,16.26-18.76C571.23,192.27,592.76,186.48,592.76,186.48Z" style="fill:#263238"></path><path d="M615.48,128.05s.32-.18.84-.56a5.63,5.63,0,0,0,1.71-2.08,5,5,0,0,0,.19-3.91,5.26,5.26,0,0,0-3.56-3.21l-.47-.11.35-.33a4.77,4.77,0,0,0,1.12-1.58,5.23,5.23,0,0,0,.3-3.18,4.52,4.52,0,0,0-1.52-2.48,5.16,5.16,0,0,0-4.59-1l-.26.08,0-.27a12.3,12.3,0,0,0,.07-3.6,2.6,2.6,0,0,1,.26.94,8.67,8.67,0,0,1,0,2.72l-.22-.19a5.45,5.45,0,0,1,5,1,5,5,0,0,1,1.72,2.73,5.62,5.62,0,0,1-.32,3.49,5.22,5.22,0,0,1-1.25,1.76l-.11-.44a5.7,5.7,0,0,1,3.87,3.55,5.23,5.23,0,0,1-.32,4.22,5.34,5.34,0,0,1-1.91,2.09A2.42,2.42,0,0,1,615.48,128.05Z" style="fill:#fff"></path><path d="M604.76,148.56c0-.07.52.16,1.35.31a6,6,0,0,0,3.19-.25,6.11,6.11,0,0,0,2.59-1.88c.53-.66.75-1.15.83-1.12s0,.58-.53,1.33a5.52,5.52,0,0,1-6.17,2.28C605.16,149,604.72,148.61,604.76,148.56Z" style="fill:#ff9a6c"></path><path d="M582.74,147.81c.08,0,.34.38.93.87a4.54,4.54,0,0,0,5.51.39c.65-.41,1-.79,1-.74s-.18.51-.83,1a4.56,4.56,0,0,1-3.07,1,4.49,4.49,0,0,1-2.9-1.38C582.85,148.34,582.69,147.83,582.74,147.81Z" style="fill:#ff9a6c"></path><path d="M646.53,169.62c.61.64-17.06,46.94-17.06,46.94L628.14,161S639.2,161.89,646.53,169.62Z" style="fill:#B9DEE7"></path><polygon points="578.2 191.06 592 222.34 593.74 185.05 578.2 191.06" style="fill:#B9DEE7"></polygon><path d="M629.86,215.55c-.39,1-20.16,37.63-20.16,37.63l-20.32-36.62L577.16,229l5.52,27.07h53.21l4.32-35.49Z" style="fill:#263238"></path><path d="M609.82,198.39c.15,0,.26,12.66.26,28.28S610,255,609.82,255s-.26-12.66-.26-28.28S609.68,198.39,609.82,198.39Z" style="fill:#263238"></path><path d="M605.14,195.82a4.54,4.54,0,1,0,4.54-4.54A4.54,4.54,0,0,0,605.14,195.82Z" style="fill:#B9DEE7"></path><path d="M611.58,193.57q2.46-2.3,5.12-4.35c1-.77,2.18-1.55,3.41-1.31a3,3,0,0,1,1.92,1.5,6.64,6.64,0,0,1,.73,2.39,20,20,0,0,1-.45,8.26c-.25.93-.76,2-1.72,2.1a2.61,2.61,0,0,1-1.61-.6l-8.13-5.41Z" style="fill:#B9DEE7"></path><path d="M596.43,190.78c.25-.93.75-2,1.71-2.1a2.62,2.62,0,0,1,1.62.6l8.13,5.41-.73,2.58q-2.46,2.29-5.13,4.35c-1,.76-2.17,1.54-3.4,1.3a3,3,0,0,1-1.93-1.49A7.13,7.13,0,0,1,596,199,20,20,0,0,1,596.43,190.78Z" style="fill:#B9DEE7"></path><path d="M605.92,193.75a6,6,0,0,0-.31,2.88,4.17,4.17,0,0,0,1.55,2.59,4.25,4.25,0,0,0,6.44-1.4,4.2,4.2,0,0,0,.33-3,6,6,0,0,0-1.47-2.49,1.71,1.71,0,0,1,.67.47A4.54,4.54,0,0,1,614,198a4.65,4.65,0,0,1-7.15,1.56,4.58,4.58,0,0,1-1.37-5.14A1.79,1.79,0,0,1,605.92,193.75Z" style="fill:#263238"></path><path d="M614.18,195.4a5.84,5.84,0,0,1,2.73.2,5.66,5.66,0,0,1,2.56,1,10,10,0,0,1-2.67-.46A9.51,9.51,0,0,1,614.18,195.4Z" style="fill:#263238"></path><path d="M613.61,194.49a8,8,0,0,1,2.52-1.31,7.88,7.88,0,0,1,2.7-.84,7.54,7.54,0,0,1-2.51,1.32A8,8,0,0,1,613.61,194.49Z" style="fill:#263238"></path><path d="M599.85,192.53a6.49,6.49,0,0,1,3,1.06,6.58,6.58,0,0,1,2.49,2,19,19,0,0,1-2.74-1.55A22,22,0,0,1,599.85,192.53Z" style="fill:#263238"></path><path d="M599.17,196.83a18.8,18.8,0,0,1,6.15-.67,18.8,18.8,0,0,1-6.15.67Z" style="fill:#263238"></path><path d="M619.93,238.76a2.11,2.11,0,0,1,.24-.5l.79-1.38,2.91-5.06c2.45-4.27,5.75-10.23,9.16-16.93s6.26-12.88,8.26-17.38c1-2.2,1.78-4,2.36-5.34.27-.58.48-1.06.65-1.44a2.87,2.87,0,0,1,.26-.49,2.31,2.31,0,0,1-.16.53l-.56,1.48c-.49,1.29-1.25,3.14-2.21,5.41-1.92,4.54-4.73,10.75-8.14,17.47s-6.76,12.65-9.3,16.88c-1.26,2.12-2.31,3.81-3.06,5l-.87,1.33A2.64,2.64,0,0,1,619.93,238.76Z" style="fill:#455a64"></path><path d="M598.22,238.85a2.44,2.44,0,0,1-.3-.45l-.79-1.34c-.67-1.16-1.62-2.86-2.76-5-2.3-4.23-5.36-10.13-8.53-16.74s-5.86-12.7-7.72-17.14c-.93-2.21-1.67-4-2.15-5.27-.23-.58-.41-1.06-.55-1.45a1.93,1.93,0,0,1-.16-.52,3.17,3.17,0,0,1,.25.48l.64,1.41c.58,1.3,1.36,3.06,2.3,5.21,1.95,4.39,4.69,10.44,7.86,17.05s6.17,12.53,8.38,16.79l2.62,5.06c.28.55.52,1,.7,1.38A1.63,1.63,0,0,1,598.22,238.85Z" style="fill:#455a64"></path><path d="M512.35,151.52s18.42-9.52,25.77-1.61l.75-4.4,2,3.23,3.4-1.16s-.53-4.6-.26-3.87a18,18,0,0,0,2.7,3s4.44-11.39,20.3-11.24c0,0-9.65,1.78-8.27,9.81,0,0-7.29-.39-5.76,6.33,0,0-4.27,2.42-2.71,7.12a38.15,38.15,0,0,0-4.51-2c-.37,0-2.71,4.59-2.71,4.59s-1.6-6.2-7.05-4.25c0,0-1.06-7.15-9-2.15C527,154.92,527.44,148.11,512.35,151.52Z" style="fill:#e0e0e0"></path><path d="M655.83,151.82s15.85-3.44,18,15.55l1.24-6.63,1.16,4.13,1.34-4.52.77,8.27s1.65-16.38,15.75-17.3c0,0-7.73,3.7-5,11.44,0,0-4.76.65-6,7.28a12.7,12.7,0,0,0-7,8s-2-9.52-9.74-9.42c0,0,3.31-7.64-3.82-10.1C662.62,158.51,662.29,153.73,655.83,151.82Z" style="fill:#e0e0e0"></path><path d="M524.48,186.61s12.67.88,10.14,15.63l2.38-4.71,0,3.36,2-3.11-1.23,6.4s4.82-12,15.63-9.58c0,0-6.62,1.1-6.22,7.52,0,0-3.72-.55-6.1,4.17a9.93,9.93,0,0,0-7,4.5s.56-7.61-5.27-9.22c0,0,4.15-5-.67-8.44C528.13,193.13,528.93,189.47,524.48,186.61Z" style="fill:#e0e0e0"></path><path d="M542.16,121.57c.14,0,.26,6.6.26,14.74s-.12,14.74-.26,14.74-.26-6.6-.26-14.74S542,121.57,542.16,121.57Z" style="fill:#e0e0e0"></path><path d="M676,110.88c.15,0,.26,11.8.26,26.35s-.11,26.36-.26,26.36-.26-11.8-.26-26.36S675.82,110.88,676,110.88Z" style="fill:#e0e0e0"></path></g><g id="freepik--character-3--inject-58"><rect x="247.03" y="36.42" width="146.27" height="114" rx="14.58" style="fill:#fff"></rect><path d="M261.37,36.42H378.66A14.35,14.35,0,0,1,393,50.77v2.73a0,0,0,0,1,0,0H247a0,0,0,0,1,0,0V50.77A14.35,14.35,0,0,1,261.37,36.42Z" style="fill:#e0e0e0"></path><path d="M378.72,150.42l1.27-.09c.42,0,.94-.14,1.56-.23a15.6,15.6,0,0,0,2.08-.6,14.7,14.7,0,0,0,5.11-3.2,14,14,0,0,0,2.4-3,13.66,13.66,0,0,0,1.64-4.06,19,19,0,0,0,.4-4.91c0-1.74,0-3.56,0-5.47,0-3.81,0-8,0-12.41,0-8.9,0-19,0-30.25,0-5.6,0-11.48,0-17.59q0-4.59,0-9.36c0-1.59,0-3.2,0-4.81s.05-3.27-.07-4.88a14.63,14.63,0,0,0-4.21-8.75,14.37,14.37,0,0,0-9.12-4.08c-7-.1-14.24,0-21.64,0l-96.42,0a14.44,14.44,0,0,0-11,5.13,14.13,14.13,0,0,0-2.83,5.46,21.47,21.47,0,0,0-.51,6.16q0,12.49,0,24.6c0,16.13,0,31.69,0,46.51,0,3.7,0,7.36,0,11a14.55,14.55,0,0,0,3.48,9.68,14.18,14.18,0,0,0,8.74,4.83,36.67,36.67,0,0,0,5,.18h5l36.67,0,53.09.09,14.43.05,3.76,0,1.28,0s-.44,0-1.28,0l-3.76,0-14.43.05-53.09.08-36.67,0h-5a36.36,36.36,0,0,1-5.09-.18,14.65,14.65,0,0,1-9-5,15,15,0,0,1-3.6-10v-11c0-14.82,0-30.38,0-46.51V53.43a22.69,22.69,0,0,1,.52-6.29,14.75,14.75,0,0,1,2.94-5.66,15,15,0,0,1,11.39-5.32l96.42,0c7.42,0,14.62,0,21.67.06a14.75,14.75,0,0,1,9.4,4.23,15,15,0,0,1,4.33,9c.12,1.68.05,3.29.07,4.92s0,3.22,0,4.81v9.36c0,6.11,0,12,0,17.59,0,11.21,0,21.35,0,30.25,0,4.45,0,8.6,0,12.41,0,1.91,0,3.73,0,5.47a19.4,19.4,0,0,1-.43,4.95,14.72,14.72,0,0,1-4.13,7.16,14.55,14.55,0,0,1-5.18,3.18,14.37,14.37,0,0,1-2.11.59c-.62.08-1.14.18-1.56.2Z" style="fill:#263238"></path><path d="M259.08,45.63a1.82,1.82,0,1,1-1.82-1.82A1.82,1.82,0,0,1,259.08,45.63Z" style="fill:#fff"></path><circle cx="262.36" cy="45.63" r="1.82" style="fill:#fff"></circle><path d="M269.28,45.63a1.82,1.82,0,1,1-1.82-1.82A1.83,1.83,0,0,1,269.28,45.63Z" style="fill:#fff"></path><path d="M304.59,74.42l2.8,36.85c.47,6.27,2.45,15.38,12.33,14.17h0c8.49-1.69,10-10,9.59-15.85-.21-2.77-.39-5.09-.39-5.37,0,0,9.32-1.6,9.29-10.93,0-4.52-.8-13.81-1.61-22.2A17.38,17.38,0,0,0,319,55.37l-.9,0C308.42,56.1,303.6,64.74,304.59,74.42Z" style="fill:#c17560"></path><path d="M328.93,104.08a21.71,21.71,0,0,1-12.22-3.27s3,6.67,12.28,5.69Z" style="fill:#7f463f"></path><path d="M335.28,75.76c-.16.19-1.48-.08-3.14.39s-2.74,1.4-2.95,1.31,0-.35.49-.77A5.85,5.85,0,0,1,332,75.47a5.44,5.44,0,0,1,2.54-.14C335.12,75.46,335.36,75.67,335.28,75.76Z" style="fill:#263238"></path><path d="M320.92,77.53c-.23.1-1.29-.72-3-1s-3.06,0-3.21-.14.18-.3.78-.46a5.94,5.94,0,0,1,2.61-.06,5.55,5.55,0,0,1,2.33,1C320.91,77.2,321,77.48,320.92,77.53Z" style="fill:#263238"></path><path d="M318.07,79.79a1,1,0,0,1-1,1.06,1,1,0,0,1-1.08-.92,1,1,0,0,1,1-1.05A1,1,0,0,1,318.07,79.79Z" style="fill:#263238"></path><path d="M332.42,79.79a1,1,0,0,1-1,1.06,1,1,0,0,1-1.07-.92,1,1,0,0,1,1-1.05A1,1,0,0,1,332.42,79.79Z" style="fill:#263238"></path><path d="M325.94,86.74a9.33,9.33,0,0,1,2.32-.45c.37-.05.72-.13.77-.38a1.76,1.76,0,0,0-.26-1.08c-.36-.88-.73-1.8-1.12-2.77-1.57-4-2.71-7.2-2.55-7.26s1.56,3.09,3.12,7q.57,1.45,1.08,2.79a2.07,2.07,0,0,1,.22,1.43.93.93,0,0,1-.6.55,2.5,2.5,0,0,1-.62.09A9.47,9.47,0,0,1,325.94,86.74Z" style="fill:#263238"></path><path d="M319.92,70.51c-.12.36-1.39.21-2.87.41s-2.67.65-2.88.33c-.09-.15.12-.49.6-.84a4.61,4.61,0,0,1,2.12-.8,4.7,4.7,0,0,1,2.25.23C319.69,70.06,320,70.34,319.92,70.51Z" style="fill:#263238"></path><path d="M334.92,72.08c-.14.3-1.38.09-2.85.18s-2.68.38-2.86.1.14-.41.64-.68a5,5,0,0,1,2.14-.55,5.3,5.3,0,0,1,2.2.34C334.72,71.69,335,71.94,334.92,72.08Z" style="fill:#263238"></path><path d="M305.46,81.32c-.16-.06-6.45-1.79-6.14,4.58S306,90.66,306,90.48,305.46,81.32,305.46,81.32Z" style="fill:#c17560"></path><path d="M303.9,88.16s-.11.08-.29.17a1.07,1.07,0,0,1-.83.06A2.76,2.76,0,0,1,301.39,86a3.62,3.62,0,0,1,.24-1.6,1.24,1.24,0,0,1,.79-.89.56.56,0,0,1,.67.27c.1.17.06.3.09.31s.14-.11.07-.37a.68.68,0,0,0-.27-.39.8.8,0,0,0-.62-.13,1.54,1.54,0,0,0-1.11,1A3.78,3.78,0,0,0,301,86a2.87,2.87,0,0,0,1.75,2.67,1.19,1.19,0,0,0,1-.21C303.9,88.31,303.92,88.17,303.9,88.16Z" style="fill:#7f463f"></path><path d="M324.83,91.27c.06-.16-1.22-.42-2.2-1.52a7,7,0,0,1-1-1.58c-.22-.44-.39-.72-.46-.69s0,.33.13.83a4.7,4.7,0,0,0,1,1.78,3.76,3.76,0,0,0,1.74,1.1C324.49,91.35,324.82,91.33,324.83,91.27Z" style="fill:#263238"></path><path d="M342.35,68.43a3.76,3.76,0,0,0-1-.83l-2.14-5a19.07,19.07,0,0,0-5-7l0,0c-3.07-2.65-5.55-4.42-8-5.17a21.51,21.51,0,0,0-11.56.12c-3.15,1.13-5.82,4-6,7.34-1.95-1.37-4.66-1.11-6.78,0l-.06,0c-2.38,1.09-3.54,3.8-4,6.37s-.58,5.26-1.7,7.62c-.24.5-.52,1.09-.23,1.55a1,1,0,0,0,1.12.38,3.09,3.09,0,0,0,1.1-.62c-.22.68-.43,1.36-.65,2a5.87,5.87,0,0,0,2.65-.42,58.28,58.28,0,0,0,2.33,6.45,3.76,3.76,0,0,1,2.65.4c.94.7,1.45,2.14,2.84,1.43a2.1,2.1,0,0,0,1-1.33,36.25,36.25,0,0,0,.55-16.79A11.56,11.56,0,0,1,312.87,62l-.1.11c2.51-1.13,5.36-2.28,7.93-1.28,2,.78,3.28,2.65,4.84,4.11a14.65,14.65,0,0,0,10.8,3.87c.37,2.6.47,6.3.84,8.9L339,73.3v0c.15-.32.27-.65.39-1l0-.1h0c.18-.51.36-1,.6-1.55l0,0A1.63,1.63,0,0,0,342.35,68.43Z" style="fill:#263238"></path><path d="M311.69,58.65a7.75,7.75,0,0,0-.86.93,6.72,6.72,0,0,0-1.15,3.2,12.48,12.48,0,0,0,0,2.38c.08.85.23,1.76.38,2.72a25.78,25.78,0,0,1,.33,3,11,11,0,0,1-.06,1.62,3.36,3.36,0,0,1-.52,1.62,1.38,1.38,0,0,1-1.27.55,2.06,2.06,0,0,1-1.23-.56,4.83,4.83,0,0,1-1.11-2.27h.2a7.66,7.66,0,0,1-1,2,2.7,2.7,0,0,1-1.71,1.14,1.77,1.77,0,0,1-1-.08,1.52,1.52,0,0,1-.71-.58,1.63,1.63,0,0,1-.27-.8,1.14,1.14,0,0,1,.24-.75l.1.08a5.78,5.78,0,0,1-2.45,2l-.22.08a.74.74,0,0,1,.2-.11c.14-.07.33-.17.58-.32A6.27,6.27,0,0,0,302,72.84l.11.08a1.19,1.19,0,0,0,.06,1.38,1.43,1.43,0,0,0,.64.52,1.63,1.63,0,0,0,.88.06,2.56,2.56,0,0,0,1.59-1.08,8,8,0,0,0,.92-2l.1-.31.09.32A4.72,4.72,0,0,0,307.42,74a2,2,0,0,0,1.11.5,1.2,1.2,0,0,0,1.08-.47,3.16,3.16,0,0,0,.47-1.51,9.5,9.5,0,0,0,.07-1.59,25.7,25.7,0,0,0-.32-3c-.15-1-.29-1.87-.36-2.74a12.68,12.68,0,0,1,.06-2.41,6.48,6.48,0,0,1,1.24-3.23A3.58,3.58,0,0,1,311.69,58.65Z" style="fill:#455a64"></path><path d="M307.09,107.38l-11.24,4.69c-7,2.91-10.27,7.22-14.5,13.48-1,1.49-5.58,14.21-5.81,15.15a57.56,57.56,0,0,1-3.85,9.47h89.36s-2.64-25.54-9-30.47c-4.13-3.2-23.05-11.93-23.05-11.93a8.32,8.32,0,0,1-7.65,4.81A20.58,20.58,0,0,1,307.09,107.38Z" style="fill:#455a64"></path><path d="M389.45,100.52c.08-3.49-2.81-2.49-3.37-1.74,1.12-1.51,1.79-2.76,1.72-4.3s-1.72-2.3-3.2-1.53c1-2.09,1.36-3.74-.44-4.52-1.48-.63-3.25,1.06-4.45,2.55.68-.85-.31-2.67-2.09-2.58-1.09,0-1.84,1.14-2.52,2l-7.22,9a5.74,5.74,0,0,0,.54-2.81,2,2,0,0,0-1.91-1.79c-1.1.1-1.67,1.33-2,2.38-1.29,4-2.49,8-3.76,11.94-.71,2.2-1.45,4.39-2.2,6.58-3.44-8.44-7.5-16.65-9.93-25.42-1.91-6.89-2.78-14-4.78-20.9s-5.33-13.65-11-18a22.54,22.54,0,0,0-32,5c-5.91,8.38-5.45,19.48-7.23,29.58-1.56,8.81-5,17.16-8.34,25.44-5.19,12.73-9.64,26.37-14.84,39.1l93.24-.27a1.24,1.24,0,0,1,0-.16l.12,0c5.28-8.26,4.1-19.55,9.82-27.5,2.09-2.91,5-5.15,7.37-7.79,3.17-3.46,5.51-7.58,7.83-11.67A5.51,5.51,0,0,0,389.45,100.52ZM314.34,82.74a4.62,4.62,0,0,1-1.43-5.92,6.47,6.47,0,0,1,2.74-2.35,5.59,5.59,0,0,1,4.21-.65,2.92,2.92,0,0,1,2.32,2.29,6,6,0,0,1-1.63,6.13A5.21,5.21,0,0,1,314.34,82.74Zm14.86,9.19a5.08,5.08,0,0,1-1.82,1.59A7.75,7.75,0,0,1,323,94.58,5.48,5.48,0,0,1,319,92.45a4.24,4.24,0,0,1-.41-4.37,3.49,3.49,0,0,1,3.89-1.76c1.3.37,1.06,1.16,2.12,2a2.71,2.71,0,0,0,1.89.44,4,4,0,0,1,1.12-.34,1.79,1.79,0,0,1,1.92,1.16A2.62,2.62,0,0,1,329.2,91.93Zm7.65-11.83A5.53,5.53,0,0,1,335.34,83a3.82,3.82,0,0,1-3,1.08,4.61,4.61,0,0,1-2.76-1.64,6.46,6.46,0,0,1-1.67-4.15,4.88,4.88,0,0,1,1.95-4,3.93,3.93,0,0,1,4.31-.13h-.19A4.2,4.2,0,0,1,336,75.73,5.64,5.64,0,0,1,336.85,80.1Z" style="fill:#fff"></path><path d="M389.45,100.52c.08-3.49-2.81-2.49-3.37-1.74,1.12-1.51,1.79-2.76,1.72-4.3s-1.72-2.3-3.2-1.53c1-2.09,1.36-3.74-.44-4.52-1.48-.63-3.25,1.06-4.45,2.55.68-.85-.31-2.67-2.09-2.58-1.09,0-1.84,1.14-2.52,2l-7.22,9a5.74,5.74,0,0,0,.54-2.81,2,2,0,0,0-1.91-1.79c-1.1.1-1.67,1.33-2,2.38-1.29,4-2.49,8-3.76,11.94-.71,2.2-1.45,4.39-2.2,6.58-3.44-8.44-7.5-16.65-9.93-25.42-1.91-6.89-2.78-14-4.78-20.9s-5.33-13.65-11-18a22.54,22.54,0,0,0-32,5c-5.91,8.38-5.45,19.48-7.23,29.58-1.56,8.81-5,17.16-8.34,25.44-5.19,12.73-9.64,26.37-14.84,39.1l93.24-.27a1.24,1.24,0,0,1,0-.16l.12,0c5.28-8.26,4.1-19.55,9.82-27.5,2.09-2.91,5-5.15,7.37-7.79,3.17-3.46,5.51-7.58,7.83-11.67A5.51,5.51,0,0,0,389.45,100.52ZM314.34,82.74a4.62,4.62,0,0,1-1.43-5.92,6.47,6.47,0,0,1,2.74-2.35,5.59,5.59,0,0,1,4.21-.65,2.92,2.92,0,0,1,2.32,2.29,6,6,0,0,1-1.63,6.13A5.21,5.21,0,0,1,314.34,82.74Zm14.86,9.19a5.08,5.08,0,0,1-1.82,1.59A7.75,7.75,0,0,1,323,94.58,5.48,5.48,0,0,1,319,92.45a4.24,4.24,0,0,1-.41-4.37,3.49,3.49,0,0,1,3.89-1.76c1.3.37,1.06,1.16,2.12,2a2.71,2.71,0,0,0,1.89.44,4,4,0,0,1,1.12-.34,1.79,1.79,0,0,1,1.92,1.16A2.62,2.62,0,0,1,329.2,91.93Zm7.65-11.83A5.53,5.53,0,0,1,335.34,83a3.82,3.82,0,0,1-3,1.08,4.61,4.61,0,0,1-2.76-1.64,6.46,6.46,0,0,1-1.67-4.15,4.88,4.88,0,0,1,1.95-4,3.93,3.93,0,0,1,4.31-.13h-.19A4.2,4.2,0,0,1,336,75.73,5.64,5.64,0,0,1,336.85,80.1Z" style="fill:none"></path><path d="M336.85,80.1a11.68,11.68,0,0,0,0-1.95,5.27,5.27,0,0,0-.74-2.06,4.09,4.09,0,0,0-2.2-1.67l-1.62-.5,1.69.07h.19l-.14.4a3.65,3.65,0,0,0-3.43-.18,4.28,4.28,0,0,0-2.34,3.14A6,6,0,0,0,330,82.62a4.21,4.21,0,0,0,2.13,1.23,3.39,3.39,0,0,0,2.11-.31,4.66,4.66,0,0,0,2.14-2.32c.31-.7.4-1.13.44-1.12a3,3,0,0,1-.25,1.2,4.7,4.7,0,0,1-2.16,2.57,3.74,3.74,0,0,1-2.35.41,4.67,4.67,0,0,1-2.4-1.32,6.44,6.44,0,0,1-2-5.71,4.76,4.76,0,0,1,2.64-3.49,4.06,4.06,0,0,1,3.89.28l.66.45-.8,0h-.18L334,74a4.38,4.38,0,0,1,2.37,1.9,5.25,5.25,0,0,1,.7,2.22,5.68,5.68,0,0,1-.07,1.47A1.28,1.28,0,0,1,336.85,80.1Z" style="fill:#263238"></path><path d="M329.2,91.93a4.84,4.84,0,0,0,.35-1.18,2.08,2.08,0,0,0-.26-1.33,1.64,1.64,0,0,0-1.47-.82,4.14,4.14,0,0,0-1,.27,1.24,1.24,0,0,1-.66.16,2.92,2.92,0,0,1-.66-.09,3.41,3.41,0,0,1-.66-.22,2.35,2.35,0,0,1-.6-.43,6.82,6.82,0,0,1-.86-1.14,2.34,2.34,0,0,0-2.48-.57,3.36,3.36,0,0,0-2.17,1.9,4,4,0,0,0,0,2.94,4.46,4.46,0,0,0,1.82,2.12,6,6,0,0,0,4.72.64,8.59,8.59,0,0,0,3-1.4,11.59,11.59,0,0,0,.9-.85s-.15.45-.77,1a8.11,8.11,0,0,1-3.06,1.61A6.43,6.43,0,0,1,320.3,94a4.89,4.89,0,0,1-2-2.34,4.45,4.45,0,0,1,0-3.33,3.86,3.86,0,0,1,2.51-2.2,3.51,3.51,0,0,1,1.64,0,2.26,2.26,0,0,1,1.37.84c.52.86,1,1.5,1.83,1.65a3,3,0,0,0,.57.1,1,1,0,0,0,.5-.12,4.43,4.43,0,0,1,1.16-.27,2,2,0,0,1,1.74,1,2.22,2.22,0,0,1,.21,1.51,2.61,2.61,0,0,1-.34.89C329.3,91.86,329.22,91.94,329.2,91.93Z" style="fill:#263238"></path><path d="M314.34,82.74s.39.22,1.14.45a5.38,5.38,0,0,0,3.23-.11,5.11,5.11,0,0,0,3.19-3.36,6.28,6.28,0,0,0,.21-2.81,3.74,3.74,0,0,0-1.4-2.53,1.78,1.78,0,0,0-.86-.3h-.08a4.45,4.45,0,0,0-2.77.1,10,10,0,0,0-2.4,1.21A4.91,4.91,0,0,0,313,77.12a4,4,0,0,0-.44,2,4.8,4.8,0,0,0,1,2.8c.45.57.8.79.77.83s-.1,0-.27-.14a3.37,3.37,0,0,1-.65-.56,4.76,4.76,0,0,1-1.22-2.91,4.32,4.32,0,0,1,.41-2.2A5.32,5.32,0,0,1,314.32,75a9.68,9.68,0,0,1,2.52-1.3,4.88,4.88,0,0,1,3.1-.12l-.07,0A2.22,2.22,0,0,1,321,74a4.2,4.2,0,0,1,1.61,2.88,6.7,6.7,0,0,1-.25,3,5.48,5.48,0,0,1-3.53,3.56,5.34,5.34,0,0,1-3.41-.05,3.62,3.62,0,0,1-.83-.43C314.41,82.83,314.33,82.75,314.34,82.74Z" style="fill:#263238"></path><path d="M389.45,100.52a4.53,4.53,0,0,1-.07,1,4.86,4.86,0,0,1-.33,1.18c-.18.46-.49.93-.79,1.5a66.47,66.47,0,0,1-6.12,9.43,78.31,78.31,0,0,1-5.69,5.87,24,24,0,0,0-3,3.56,23.35,23.35,0,0,0-2.34,4.44,71.27,71.27,0,0,0-2.91,10.83c-.89,3.87-1.91,8.08-4.3,11.9l-.06.1-.12,0-.12,0,.2-.13,0,.15,0,.14h-.14l-93.23.34H270l.14-.34c3.75-9.19,7.15-19,10.9-29s8.53-20,11.25-30.83c1.72-6.6,2-13.4,3.06-20A42.27,42.27,0,0,1,298,61a24,24,0,0,1,5.54-8.11,22.79,22.79,0,0,1,17.69-6.16,23.06,23.06,0,0,1,8.93,2.69,23.73,23.73,0,0,1,7,5.86c3.84,4.72,6,10.36,7.44,15.87s2.29,11,3.55,16.28a98.43,98.43,0,0,0,4.94,14.8c1.92,4.66,3.92,9.09,5.68,13.42h-.36c.84-2.52,1.65-5,2.45-7.36s1.5-4.74,2.22-7c.35-1.14.71-2.25,1.06-3.35a5.4,5.4,0,0,1,1.65-3,1.65,1.65,0,0,1,1.75,0,2.43,2.43,0,0,1,1,1.38,5.25,5.25,0,0,1-.49,3.2l-.27-.15c2.29-2.84,4.4-5.48,6.37-7.93l1.46-1.81a3.26,3.26,0,0,1,1.86-1.3,2.38,2.38,0,0,1,2.05.74,1.63,1.63,0,0,1,.31,2l-.19-.16a10.76,10.76,0,0,1,2.21-2.12,3.58,3.58,0,0,1,1.35-.57,2.16,2.16,0,0,1,2.25,1.3,2.4,2.4,0,0,1,.07,1.27,8.76,8.76,0,0,1-.8,2.21l-.13-.12a2.37,2.37,0,0,1,2.69.18,1.91,1.91,0,0,1,.6,1.13,4.23,4.23,0,0,1,0,1.18,8.14,8.14,0,0,1-1.71,3.46l-.09-.07a2.33,2.33,0,0,1,2.17-.69,1.57,1.57,0,0,1,1.1,1.15,3.22,3.22,0,0,1,.14,1v.33a5.69,5.69,0,0,0-.19-1.29,1.53,1.53,0,0,0-1.07-1.09,2.24,2.24,0,0,0-2.06.68l-.09-.07a8.06,8.06,0,0,0,1.65-3.41,2.39,2.39,0,0,0-.55-2.17,2.2,2.2,0,0,0-2.49-.14l-.25.14.12-.26a8.54,8.54,0,0,0,.78-2.16,2.32,2.32,0,0,0-.07-1.17,1.73,1.73,0,0,0-.8-.89A2.19,2.19,0,0,0,382,89a10.09,10.09,0,0,0-2.15,2.09l-.19-.16a1.39,1.39,0,0,0-.3-1.71,2.13,2.13,0,0,0-1.83-.65,3,3,0,0,0-1.7,1.21l-1.44,1.81-6.34,8-.61.77.34-.93a5,5,0,0,0,.47-3,2,2,0,0,0-.88-1.18,1.27,1.27,0,0,0-1.4,0,2.76,2.76,0,0,0-.95,1.24,15.23,15.23,0,0,0-.56,1.61c-.34,1.1-.69,2.21-1.05,3.35-.71,2.26-1.44,4.6-2.2,7s-1.6,4.85-2.44,7.38l-.16.5-.2-.49c-1.77-4.32-3.78-8.74-5.7-13.41a97.05,97.05,0,0,1-5-14.86c-1.27-5.25-2.12-10.76-3.57-16.26s-3.59-11.05-7.37-15.68a23.06,23.06,0,0,0-6.85-5.74,22.72,22.72,0,0,0-8.73-2.63,22.36,22.36,0,0,0-17.3,6,23.62,23.62,0,0,0-5.42,7.94,41.75,41.75,0,0,0-2.58,9.51c-1.07,6.55-1.33,13.37-3.07,20-2.74,10.92-7.67,20.84-11.27,30.88s-7.15,19.79-10.92,29l-.23-.34,93.24-.2-.17.14,0-.16,0-.16.17,0,.12,0-.18.08c2.36-3.75,3.39-7.92,4.29-11.78a72.57,72.57,0,0,1,3-10.86,24.51,24.51,0,0,1,2.38-4.49,25.68,25.68,0,0,1,3-3.58,80.68,80.68,0,0,0,5.71-5.82,69.48,69.48,0,0,0,6.18-9.36c.31-.56.62-1,.81-1.48a4.84,4.84,0,0,0,.35-1.15c.06-.33.08-.57.1-.74A1.1,1.1,0,0,1,389.45,100.52Z" style="fill:#263238"></path><path d="M297.21,135.14a7,7,0,0,1,.41-1.44c.32-1,.75-2.3,1.26-3.85,1.05-3.26,2.44-7.78,3.77-12.83s2.35-9.67,3-13c.33-1.6.6-2.94.81-4a7.41,7.41,0,0,1,.35-1.45,8.92,8.92,0,0,1-.15,1.48c-.13,1-.35,2.32-.65,4-.59,3.38-1.56,8-2.89,13.09s-2.79,9.58-3.93,12.81c-.58,1.62-1.06,2.92-1.42,3.81A9.78,9.78,0,0,1,297.21,135.14Z" style="fill:#263238"></path><path d="M318.83,135.76a17.11,17.11,0,0,1-.29-3c-.1-1.85-.16-4.4-.1-7.23s.22-5.38.39-7.22a15.18,15.18,0,0,1,.41-3,18.74,18.74,0,0,1,0,3c-.08,1.85-.19,4.4-.24,7.21s-.06,5.37,0,7.21A18.4,18.4,0,0,1,318.83,135.76Z" style="fill:#263238"></path><path d="M338.28,140.7a8.76,8.76,0,0,1-.59-1.47c-.36-1-.82-2.36-1.34-4.11a96.45,96.45,0,0,1-3.87-28.18c0-1.83.1-3.3.18-4.32a8.59,8.59,0,0,1,.18-1.58,10.41,10.41,0,0,1,0,1.59c0,1,0,2.49,0,4.31a114.16,114.16,0,0,0,1,14.16A117,117,0,0,0,336.7,135c.48,1.75.88,3.17,1.18,4.14A9.87,9.87,0,0,1,338.28,140.7Z" style="fill:#263238"></path><path d="M345.86,125.55a4.86,4.86,0,0,1-.53-1c-.31-.67-.72-1.65-1.17-2.89a78.72,78.72,0,0,1-2.81-9.92,74.71,74.71,0,0,1-1.54-10.19c-.11-1.31-.13-2.38-.12-3.12a4.67,4.67,0,0,1,.08-1.14,5,5,0,0,1,.12,1.13c.06.74.13,1.8.28,3.1a99.73,99.73,0,0,0,1.69,10.11c.85,3.92,1.83,7.41,2.65,9.91.4,1.25.76,2.25,1,2.94A4.5,4.5,0,0,1,345.86,125.55Z" style="fill:#263238"></path><path d="M369.91,114a8.24,8.24,0,0,0,0-2.22,5.29,5.29,0,0,0-.93-2.19,4.86,4.86,0,0,0-2.27-1.75l-.18-.06v-.19l0-.55a32.27,32.27,0,0,1,.75-5.92,8.74,8.74,0,0,1,.74-2.36,18.71,18.71,0,0,1-.37,2.43,45.55,45.55,0,0,0-.6,5.86c0,.19,0,.38,0,.55l-.17-.25a5.1,5.1,0,0,1,2.49,2,5.38,5.38,0,0,1,.9,2.39,4.58,4.58,0,0,1-.11,1.71C370.05,113.83,369.94,114,369.91,114Z" style="fill:#263238"></path><path d="M352.48,135.86c-.14,0,1.13-4.69,2.83-10.39s3.2-10.28,3.34-10.24-1.13,4.7-2.84,10.39S352.61,135.9,352.48,135.86Z" style="fill:#263238"></path><path d="M379.81,90.81a19.09,19.09,0,0,1-2.51,4.5,18.64,18.64,0,0,1-3.25,4A41.49,41.49,0,0,1,376.87,95,40,40,0,0,1,379.81,90.81Z" style="fill:#263238"></path><path d="M384.79,92.73a43.7,43.7,0,0,1-3.29,4.61,39.84,39.84,0,0,1-3.5,4.46A25.32,25.32,0,0,1,381.08,97,25,25,0,0,1,384.79,92.73Z" style="fill:#263238"></path><path d="M387.2,97.27a17.81,17.81,0,0,1-2.88,4.12,17.29,17.29,0,0,1-3.58,3.52,41.2,41.2,0,0,1,3.19-3.86A39,39,0,0,1,387.2,97.27Z" style="fill:#263238"></path><g style="opacity:0.30000000000000004"><path d="M348,143.43a1.42,1.42,0,0,0,.36,1.23,1,1,0,0,0,1.25-.19,2.87,2.87,0,0,0,.61-1.22q3.26-10.51,6.5-21l.75-1.67A35.1,35.1,0,0,0,348,143.43Z"></path></g><path d="M281,71.18l-4.34,1.15s-3.37-2.34-4.8-2.12-3.36.11-4.05,4.93l-2.07,1.41,2.43-.64c.74-.2,1.39-1.87,1.39-1.87l1.64-.35.94,1.17-3.75,3.35,1.54-.41s-1.71,1.55-1.06,2.25a13.07,13.07,0,0,0,1.53,1.32s-4.35,7.92-3.45,9.56a4,4,0,0,0,2.26,2L265,94.74l-.19-.74L264,95a4.16,4.16,0,0,0-2.68-.63c-1.18.31-5.33,5.11-7,5.32l1.68-.21-1.85,1s2.1,2.59,5.74.29,4.6-4.28,4.6-4.28l1.35.35-.16-1.22,4.78-2.44.63,2.66,1.82-.24-.75,3.42,2.82.83-1.32-2,1.3-3.41,2.27-.92-.6,3.07,2.83.59-1.6-1.86s4.41-8,4.47-8.1,12.34-6.57,12.34-6.57l-.71-.6-7.55,4-4.54,2.38-3.2-.81,0-1.35,5.08,1,.92-.35-2.14-1.84,5.37.11-9.85-6.64,1.21-.79L277.64,75l1.63-1.29L277.2,74Z" style="fill:#e0e0e0"></path><path d="M272.92,50.92c.14,0,.26,5.71.26,12.76s-.12,12.76-.26,12.76-.26-5.72-.26-12.76S272.77,50.92,272.92,50.92Z" style="fill:#e0e0e0"></path></g><g id="freepik--character-2--inject-58"><rect x="46.7" y="240.77" width="205.75" height="160.36" rx="14.58" style="fill:#fff"></rect><path d="M100.57,369.77c-1.15-6.15-2.82-12.21-3.48-18.43-.38-3.61-.42-7.27-1.13-10.83s-2.16-7.12-4.87-9.54c-3.39-3-10-3.51-13.19-2.49-3.57.84-8.92,4-10.75,7.58s-2.15,7.75-2.08,11.77.51,8.07.05,12.07c-.68,5.93-3.27,11.46-4.8,17.23S58.5,389.53,62,394.38a13.2,13.2,0,0,0,14,4.85,6.2,6.2,0,0,0,8.92-.44c3.12,2.06,7.51,1.39,10.46-.9s4.65-5.87,5.52-9.5C102.33,382.3,101.72,375.92,100.57,369.77Z" style="fill:#ebebeb"></path><path d="M78.39,328.11a9.38,9.38,0,0,0-2.58,1.44,12,12,0,0,0-3.93,6.87,19.15,19.15,0,0,0-.3,5.54c.13,2,.48,4.14.81,6.39a41,41,0,0,1,.54,7.14,58.31,58.31,0,0,1-.73,7.64c-.81,5.2-1.91,10.08-2.3,14.6a32.21,32.21,0,0,0,.82,11.91,20.73,20.73,0,0,0,3.57,7.2,17.89,17.89,0,0,0,1.47,1.64,3.49,3.49,0,0,1,.54.56A12.73,12.73,0,0,1,74.15,397a20.4,20.4,0,0,1-3.74-7.23,32.12,32.12,0,0,1-.93-12c.38-4.55,1.46-9.46,2.27-14.63a57.43,57.43,0,0,0,.73-7.58,41.45,41.45,0,0,0-.5-7.07c-.32-2.25-.66-4.39-.78-6.42a19.49,19.49,0,0,1,.37-5.65,12,12,0,0,1,4.13-6.93,7.69,7.69,0,0,1,1.94-1.09A4.5,4.5,0,0,1,78.39,328.11Z" style="fill:#e0e0e0"></path><path d="M84,399.43s.68-.81,1.68-2.41a23.07,23.07,0,0,0,2.82-7.4,38.55,38.55,0,0,0,.43-11.77c-.45-4.44-1.52-9.25-2.37-14.34a69.28,69.28,0,0,1-.88-7.51,54.42,54.42,0,0,1,.13-7c.34-4.45.66-8.48.16-11.82a18.3,18.3,0,0,0-2.57-7.46,18.67,18.67,0,0,0-1.81-2.3,4.25,4.25,0,0,1,.57.51,11.72,11.72,0,0,1,1.38,1.69,17.86,17.86,0,0,1,2.75,7.52c.55,3.37.26,7.44-.06,11.89a53.85,53.85,0,0,0-.1,7,68.52,68.52,0,0,0,.88,7.45c.85,5.08,1.91,9.9,2.33,14.37a38.09,38.09,0,0,1-.52,11.88,22.74,22.74,0,0,1-3,7.44A14.82,14.82,0,0,1,84,399.43Z" style="fill:#e0e0e0"></path><path d="M83.46,328.07s.06,0,.18.09l.5.33a11.61,11.61,0,0,1,1.74,1.5,17.39,17.39,0,0,1,4,7.42c1,3.45,1.18,7.75,1.5,12.43a39.36,39.36,0,0,0,1.08,7.26,63.31,63.31,0,0,0,2.66,7.43,52,52,0,0,1,2.56,7.54,25.47,25.47,0,0,1,.61,7.4,28.68,28.68,0,0,1-3.42,12,26.8,26.8,0,0,1-5.12,6.7,17.35,17.35,0,0,1-1.75,1.5l-.47.36-.17.11s0-.06.14-.15l.44-.4a19,19,0,0,0,1.68-1.55,27.82,27.82,0,0,0,5-6.72,28.94,28.94,0,0,0,3.29-11.89,26,26,0,0,0-.63-7.27,51.6,51.6,0,0,0-2.56-7.47A62.75,62.75,0,0,1,92,357.21a38.83,38.83,0,0,1-1.07-7.34c-.29-4.7-.41-8.95-1.39-12.37a17.7,17.7,0,0,0-3.79-7.39A16.93,16.93,0,0,0,83.46,328.07Z" style="fill:#e0e0e0"></path><path d="M78.73,327.68a3.45,3.45,0,0,1-.06.74c-.06.52-.13,1.23-.23,2.12-.19,1.84-.39,4.52-.47,7.83s0,7.26,0,11.64.12,9.21.18,14.27c.17,10.11.66,19.26,1.2,25.87.27,3.31.52,6,.69,7.82.08.89.15,1.6.2,2.13a5.87,5.87,0,0,1,0,.74,3.77,3.77,0,0,1-.13-.73c-.07-.52-.17-1.23-.28-2.12-.23-1.84-.53-4.51-.84-7.81-.62-6.61-1.17-15.77-1.34-25.9-.09-5.06-.12-9.88-.14-14.26s0-8.34.1-11.66.37-6,.61-7.84c.12-.92.23-1.63.32-2.11A6.16,6.16,0,0,1,78.73,327.68Z" style="fill:#e0e0e0"></path><path d="M74.18,329.9c3.16-2,5.48-5.83,5.21-9.56l.72.81.69-1.8a10.65,10.65,0,0,0,5.66,9.33c-2.13-.86-5.06,1-6,3a2.9,2.9,0,0,0-2.2-2.3,6.38,6.38,0,0,0-4.1.48" style="fill:#e0e0e0"></path><path d="M62.41,387.69a9.11,9.11,0,0,1-.57-2.4,22.57,22.57,0,0,1-.06-5.94,23,23,0,0,1,1.48-5.76,8.85,8.85,0,0,1,1.13-2.19c.07,0-.33.88-.82,2.3a27.77,27.77,0,0,0-1.34,5.7,28.27,28.27,0,0,0-.07,5.85C62.3,386.75,62.48,387.67,62.41,387.69Z" style="fill:#fff"></path><path d="M73,369.49a36.54,36.54,0,0,1-.74,4.48,38.54,38.54,0,0,1-.85,4.47,16.53,16.53,0,0,1,.4-4.55A16.84,16.84,0,0,1,73,369.49Z" style="fill:#fff"></path><path d="M80.49,364.87a7,7,0,0,1,.08,2.47,7.09,7.09,0,0,1-.37,2.44,6.65,6.65,0,0,1-.09-2.47A6.57,6.57,0,0,1,80.49,364.87Z" style="fill:#fff"></path><path d="M87.47,359a6.47,6.47,0,0,1,.36,2.37,6.23,6.23,0,0,1-.09,2.39,6.47,6.47,0,0,1-.36-2.37A6.2,6.2,0,0,1,87.47,359Z" style="fill:#fff"></path><path d="M230.42,367.68c-3.33-1.41-5.55-1.85-5.18-4.66s1.54-3.77,1.54-3.77l-1.09-1.11a4,4,0,0,0-3.48,2.44c-1.1,2.44-1.35,3.7-2.89,4.73L211.05,369l7.32,3.88,9.76-1.11,5.59-1.68S233.74,369.08,230.42,367.68Z" style="fill:#e0e0e0"></path><path d="M246.3,381.15a15,15,0,0,0-6.82-11.6c-1.84-1.12-4.24-1.76-6.14-.74a3.84,3.84,0,0,1-.89.43,3,3,0,0,1-1.48-.19c-1.52-.44-3.39-.48-4.44.71-2.43-1.82-7.29-1.26-9.37.95a4.58,4.58,0,0,0-5.19-2.4,6.76,6.76,0,0,1-1,.32,6.66,6.66,0,0,1-1.34,0,6.44,6.44,0,0,0-3.77,1.62,15.62,15.62,0,0,0-5.17,8.34,23.32,23.32,0,0,0-.19,9.91,11.23,11.23,0,0,0,1.77,4.74,13.77,13.77,0,0,0,4.91,3.65q2.26,1.23,4.55,2.44l24.1-.29c2.15.32,5.08-3.11,6.37-4.86A19.67,19.67,0,0,0,246.3,381.15Z" style="fill:#f5f5f5"></path><path d="M233.13,369.1a1.11,1.11,0,0,1,.33.07,5.55,5.55,0,0,1,.86.39,7.86,7.86,0,0,1,2.57,2.35,20.11,20.11,0,0,1,2.31,4.6,26.1,26.1,0,0,1,1.8,6.06,15.71,15.71,0,0,1-.61,6.29,37.57,37.57,0,0,1-1.66,4.87,33.52,33.52,0,0,1-1.49,3.13,5.82,5.82,0,0,1-.66,1.08,7.58,7.58,0,0,1,.51-1.16c.33-.74.82-1.81,1.34-3.17a43.3,43.3,0,0,0,1.55-4.86,16,16,0,0,0,.57-6.12,26.63,26.63,0,0,0-1.74-6,22,22,0,0,0-2.18-4.58,8.42,8.42,0,0,0-2.4-2.38C233.55,369.28,233.12,369.14,233.13,369.1Z" style="fill:#e0e0e0"></path><path d="M211.42,369a6.92,6.92,0,0,0-.88.85,11.69,11.69,0,0,0-1.59,2.95,31.54,31.54,0,0,0-2.49,10.76,25.41,25.41,0,0,0,1.91,10.84,40.93,40.93,0,0,0,2.12,4.1s-.09-.08-.22-.24-.33-.41-.55-.75a19.75,19.75,0,0,1-1.65-3,24.32,24.32,0,0,1-2.06-11,29.31,29.31,0,0,1,2.65-10.87,10.48,10.48,0,0,1,1.75-2.93,3.5,3.5,0,0,1,.71-.6C211.31,369,211.41,368.93,211.42,369Z" style="fill:#e0e0e0"></path><path d="M216.49,399.07s-.09-.05-.25-.18a3.69,3.69,0,0,1-.57-.65,10.62,10.62,0,0,1-1.37-2.88,16.08,16.08,0,0,1-.88-4.63,45.57,45.57,0,0,1,2.13-16c.42-1.27.81-2.28,1.1-3a5.64,5.64,0,0,1,.51-1,5.29,5.29,0,0,1-.34,1.11c-.24.7-.59,1.72-1,3a50.09,50.09,0,0,0-2,15.89,16.78,16.78,0,0,0,.77,4.56,12.54,12.54,0,0,0,1.21,2.87C216.2,398.77,216.52,399,216.49,399.07Z" style="fill:#e0e0e0"></path><path d="M226.64,369.76a.83.83,0,0,1,.3.12,2.3,2.3,0,0,1,.74.59,9.2,9.2,0,0,1,1.52,3.06,38.72,38.72,0,0,1,2.72,10.9,24,24,0,0,1-.17,6.22,17.46,17.46,0,0,1-1.56,4.83,19.82,19.82,0,0,1-1.78,2.92,6.1,6.1,0,0,1-.81,1,41.3,41.3,0,0,0,2.3-4,17.87,17.87,0,0,0,1.43-4.76,24.54,24.54,0,0,0,.14-6.1,42.55,42.55,0,0,0-2.57-10.84,10.24,10.24,0,0,0-1.36-3.06A5,5,0,0,0,226.64,369.76Z" style="fill:#e0e0e0"></path><path d="M206.84,382.25a5.87,5.87,0,0,1,.26-2.27,6,6,0,0,1,.7-2.18,5.84,5.84,0,0,1-.26,2.27A6,6,0,0,1,206.84,382.25Z" style="fill:#fff"></path><path d="M214.42,386.16c-.12,0-.21-.72-.18-1.61s.15-1.6.28-1.6.2.73.18,1.62S214.55,386.17,214.42,386.16Z" style="fill:#fff"></path><path d="M232.09,386.35c-.12,0-.18-.33-.13-.71s.19-.67.32-.66.18.34.13.72S232.21,386.37,232.09,386.35Z" style="fill:#fff"></path><path d="M162.08,262.17s-3.47,14.86-1.75,15.53c2.21.85,14.56-7.42,14.56-7.42S163.2,262.94,162.08,262.17Z" style="fill:#f5f5f5"></path><path d="M176.16,271.09s-2.13,15.1-.36,15.61c2.28.66,13.85-8.68,13.85-8.68S177.34,271.74,176.16,271.09Z" style="fill:#ebebeb"></path><path d="M191,278.61s-.76,15.24,1.05,15.59c2.32.45,13-9.89,13-9.89S192.24,279.16,191,278.61Z" style="fill:#f5f5f5"></path><path d="M205.68,284.6s.13,15.26,2,15.5c2.35.32,12.41-10.64,12.41-10.64S207,285.08,205.68,284.6Z" style="fill:#ebebeb"></path><path d="M221.06,289.47s1.71,15.15,3.55,15.21c2.37.07,11.24-11.87,11.24-11.87S222.37,289.81,221.06,289.47Z" style="fill:#f5f5f5"></path><path d="M236.74,292.94s2.85,15,4.69,14.9c2.36-.12,10.31-12.69,10.31-12.69S238.07,293.18,236.74,292.94Z" style="fill:#ebebeb"></path><path d="M250.47,294.89l-5.41-.7a198.24,198.24,0,0,1-23.12-4.84c-4.59-1.28-9.08-2.68-13.32-4.15-4.73-1.68-9.42-3.53-13.93-5.5l-3.49-1.57-3.41-1.62-3.33-1.67-3.25-1.69-1.13-.61c-.69-.36-1.36-.72-2-1.1L175,269.69l-1.93-1.15-1-.62-2.88-1.78a100.21,100.21,0,0,1-8.41-5.72l-1,.16c3,2.18,5.19,3.75,9.07,6.17l2.88,1.79,1,.62c.64.39,1.29.78,2,1.16l3.07,1.75c.66.39,1.35.75,2,1.12l1.14.61,1.62.87,8.41,4.13,3.5,1.57c4.53,2,9.24,3.84,14,5.52,4.26,1.48,8.76,2.88,13.37,4.16A197.79,197.79,0,0,0,245,294.88l3.63.49.75.08,2.88.32.08-.67Z" style="fill:#e0e0e0"></path><path d="M61.05,240.77H237.71a14.35,14.35,0,0,1,14.35,14.35v9.67a0,0,0,0,1,0,0H46.7a0,0,0,0,1,0,0v-9.67A14.35,14.35,0,0,1,61.05,240.77Z" style="fill:#e0e0e0"></path><path d="M237.87,401.13l.46,0c.31,0,.77,0,1.36-.12a14.49,14.49,0,0,0,11-7.73,14.25,14.25,0,0,0,1.56-5.27c0-.49.05-1,.07-1.5v-1.56c0-1.06,0-2.14,0-3.26,0-17.9,0-43.79-.08-75.78q0-12,0-25.11c0-4.36,0-8.82,0-13.35V257.07a28.7,28.7,0,0,0-.12-3.48,14.32,14.32,0,0,0-7.84-11.07,14.16,14.16,0,0,0-3.38-1.2c-.59-.1-1.19-.21-1.79-.26s-1.21-.08-1.83-.06H198.91L61.3,241a15.76,15.76,0,0,0-4.42.7,14.44,14.44,0,0,0-4,2,13.56,13.56,0,0,0-3.15,3.13,13.9,13.9,0,0,0-2,3.93,14.92,14.92,0,0,0-.74,4.35c0,1.5,0,3,0,4.49v44.06c0,23,0,45.23,0,66.38v15.66a18.21,18.21,0,0,0,.31,3.78,14.39,14.39,0,0,0,6.18,9,14.26,14.26,0,0,0,6.88,2.31c2.44.1,4.91,0,7.33.05H82l52.33,0,75.77.08,20.6.05,5.36,0c1.21,0,1.82,0,1.82,0l-1.82,0-5.36,0-20.6.05-75.77.09-52.33,0H67.64c-2.43,0-4.86.06-7.36,0a14.65,14.65,0,0,1-7.1-2.37,14.9,14.9,0,0,1-5.08-5.66,15.12,15.12,0,0,1-1.3-3.65,18.72,18.72,0,0,1-.33-3.88q0-7.72,0-15.66c0-21.15,0-43.36,0-66.38q0-17.26,0-35.11v-9c0-1.5,0-3,0-4.5a15.41,15.41,0,0,1,.77-4.51,14.23,14.23,0,0,1,2.12-4.07,14,14,0,0,1,3.27-3.24,14.92,14.92,0,0,1,4.11-2.1,16.53,16.53,0,0,1,4.58-.72l137.61,0h38.37c.61,0,1.24,0,1.86.06s1.24.16,1.85.27a15.1,15.1,0,0,1,3.49,1.24,14.74,14.74,0,0,1,8.07,11.41,30.13,30.13,0,0,1,.12,3.54v3.48q0,3.46,0,6.87c0,4.53,0,9,0,13.35q0,13.11,0,25.11c0,32-.07,57.88-.09,75.78v4.82l-.08,1.52a14.47,14.47,0,0,1-1.6,5.32,14.82,14.82,0,0,1-6.07,6.12,14.27,14.27,0,0,1-5.1,1.59,10.08,10.08,0,0,1-1.37.09Z" style="fill:#263238"></path><path d="M175.33,316.08l.55-2.25h6.22a12.47,12.47,0,0,1,0,9.69h-6.22l-.63-2.23H171a4.37,4.37,0,0,1,0-5.21Z" style="fill:#e0e0e0"></path><path d="M175.33,316.08a6.17,6.17,0,0,1-1.1.07l-3.21.09.14-.07a4.65,4.65,0,0,0-.8,2.29,4.42,4.42,0,0,0,.85,2.7l-.19-.09,4.23,0h.19l.05.18c.2.71.42,1.47.64,2.23l-.25-.18h6.22l-.24.15a12.3,12.3,0,0,0,1-5.06,13.84,13.84,0,0,0-.93-4.45l.2.13-6.22-.09.12-.09c-.2.68-.35,1.23-.48,1.69a2.68,2.68,0,0,1-.19.53,3.5,3.5,0,0,1,.1-.62c.09-.44.2-1,.34-1.66l0-.08h.09l6.22-.09h.14l0,.13a13.69,13.69,0,0,1,1,4.59,12.62,12.62,0,0,1-1,5.28l-.07.16h-6.58l-.05-.19-.63-2.23.24.17-4.23,0h-.12l-.06-.1a4.83,4.83,0,0,1-.87-3,5,5,0,0,1,.92-2.44l.05-.07H171l3.13.08A9.55,9.55,0,0,1,175.33,316.08Z" style="fill:#263238"></path><path d="M175.88,323.52a8.82,8.82,0,0,1-1.13-4.84,8.91,8.91,0,0,1,1.13-4.85,33,33,0,0,0-.61,4.85A32.76,32.76,0,0,0,175.88,323.52Z" style="fill:#263238"></path><path d="M181.85,323.46a3.22,3.22,0,0,1-.74-1.29,9.24,9.24,0,0,1,.19-7c.38-.83.75-1.28.8-1.24a17.28,17.28,0,0,0-1.07,4.75A17.65,17.65,0,0,0,181.85,323.46Z" style="fill:#263238"></path><path d="M131,266.05l-.81,65.43c-.14,11.12,1.93,27.49,19.53,26.91h0c15.23-1.66,19.27-16.08,19.39-26.46.06-4.93.12-9,.15-9.54,0,0,16.68-1.36,18.09-17.83.68-8,.74-24.47.63-39.4a30.79,30.79,0,0,0-28.56-30.46l-1.59-.11C140.6,234.34,130.76,248.82,131,266.05Z" style="fill:#455a64"></path><path d="M169.25,322.39a40,40,0,0,1-21-7.91s4.36,12.42,20.92,12.14Z" style="fill:#263238"></path><path d="M159.81,271.91c-.33.33-2.23-1.2-5-1.27s-4.82,1.28-5.11.92c-.14-.16.2-.77,1.1-1.4a6.89,6.89,0,0,1,4.1-1.16,6.64,6.64,0,0,1,4,1.44C159.7,271.13,160,271.76,159.81,271.91Z" style="fill:#263238"></path><path d="M157,277.58a2.23,2.23,0,0,1-2.31,2.09,2.13,2.13,0,0,1-2.15-2.17,2.24,2.24,0,0,1,2.31-2.1A2.15,2.15,0,0,1,157,277.58Z" style="fill:#263238"></path><path d="M166.72,291.1c0-.14,1.6-.3,4.17-.44.65,0,1.28-.1,1.42-.53a3.42,3.42,0,0,0-.29-1.95c-.5-1.61-1-3.3-1.56-5.07-2.14-7.21-3.64-13.11-3.35-13.2s2.26,5.69,4.41,12.9c.51,1.78,1,3.47,1.47,5.09a3.76,3.76,0,0,1,.15,2.56,1.63,1.63,0,0,1-1.13.87,4.05,4.05,0,0,1-1.12.07C168.32,291.35,166.72,291.25,166.72,291.1Z" style="fill:#263238"></path><path d="M158.64,261.53c-.27.62-2.48.16-5.12.29s-4.82.72-5.13.13c-.13-.28.28-.84,1.18-1.39a8.43,8.43,0,0,1,3.87-1.09,8.27,8.27,0,0,1,3.93.77C158.31,260.71,158.75,261.24,158.64,261.53Z" style="fill:#263238"></path><path d="M184.84,266.65c-.28.5-2.44-.06-5.05-.14s-4.77.26-5-.27c-.12-.24.31-.69,1.22-1.09a9.24,9.24,0,0,1,3.86-.64,9.5,9.5,0,0,1,3.84.95C184.56,265.93,185,266.41,184.84,266.65Z" style="fill:#263238"></path><path d="M133.89,278.7c-.28-.14-12.45-3.36-12.91,7.94s12.87,10.18,12.9,9.85S133.89,278.7,133.89,278.7Z" style="fill:#455a64"></path><path d="M128.71,291.32c-.05,0-.2.13-.54.27a1.91,1.91,0,0,1-1.47,0c-1.18-.49-2.11-2.42-2.08-4.46a6.52,6.52,0,0,1,.67-2.79,2.26,2.26,0,0,1,1.54-1.45,1,1,0,0,1,1.14.58c.14.32.06.55.12.57s.25-.18.18-.65a1.26,1.26,0,0,0-.42-.73,1.49,1.49,0,0,0-1.08-.33,2.75,2.75,0,0,0-2.12,1.67,6.66,6.66,0,0,0-.82,3.12c0,2.28,1.06,4.46,2.68,5a2.12,2.12,0,0,0,1.81-.22C128.68,291.59,128.75,291.34,128.71,291.32Z" style="fill:#263238"></path><path d="M164.06,298.93c.12-.29-2.09-.95-3.65-3a12.91,12.91,0,0,1-1.56-2.95c-.33-.82-.58-1.33-.7-1.3s-.09.6.09,1.49a8.38,8.38,0,0,0,1.46,3.3,6.78,6.78,0,0,0,2.88,2.21C163.45,299,164,299,164.06,298.93Z" style="fill:#263238"></path><path d="M209.84,250.37a2.67,2.67,0,0,0-1.25-1.55,8.3,8.3,0,0,0-4.21-.69A23.81,23.81,0,0,1,192,244.37a55.85,55.85,0,0,0-5.76-7c-5-5.14-9.1-8.65-13.35-10.36-5.5-2.21-14.69-3.11-20.42-1.6s-10.88,6.15-11.67,12c-3.22-2.72-8-2.69-12-1.12l-.09,0c-4.36,1.55-6.84,6.16-8.13,10.6s-1.83,9.2-4.19,13.18c-.49.84-1.07,1.84-.64,2.7a1.83,1.83,0,0,0,1.92.84,5.41,5.41,0,0,0,2-.92l-1.46,3.5c1.58.27,4.48,1.91,7.94-2.53.92,4.15,5.23,6.26,8.32-1.83-.1,3.62,1.42,5.48,5.07,5,2.05-1.9,2.72-6.76,1.56-16.89a20.75,20.75,0,0,1,6.38-4.61l-.19.18c4.6-1.6,9.81-3.17,14.17-1,3.39,1.68,5.38,5.19,7.91,8A25.18,25.18,0,0,0,187.57,261l.44,15s4.44-7.63,4.7-8.18l.08-.17v0c.41-.88.8-1.77,1.31-2.64l0,0c2.52,2.22,6.22-1.17,4.24-3.87a6.69,6.69,0,0,0-1.4-1.41,4.57,4.57,0,0,0,4.36,1.13,3.6,3.6,0,0,0,2.55-3.56,3.05,3.05,0,0,0-1.83-2.45,10.31,10.31,0,0,0,5.88-1.3C209.1,252.92,210.24,251.83,209.84,250.37Z" style="fill:#263238"></path><path d="M146,239.33a14.09,14.09,0,0,0-1.65,1.51,11.82,11.82,0,0,0-2.53,5.47,20.78,20.78,0,0,0-.42,4.19c0,1.52.11,3.14.23,4.85a43.7,43.7,0,0,1,.12,5.41,17.67,17.67,0,0,1-.37,2.85,5.89,5.89,0,0,1-1.16,2.76,2.48,2.48,0,0,1-2.33.78,3.67,3.67,0,0,1-2.09-1.18,8.56,8.56,0,0,1-1.59-4.19l.35,0a13.55,13.55,0,0,1-2,3.46,4.92,4.92,0,0,1-3.21,1.74,3.08,3.08,0,0,1-1.7-.3,2.73,2.73,0,0,1-1.15-1.13,2.76,2.76,0,0,1-.35-1.46,2,2,0,0,1,.53-1.28l.17.15a10.18,10.18,0,0,1-4.63,3.08,1.64,1.64,0,0,1-.4.1l.37-.16c.25-.1.61-.25,1.07-.48a10.77,10.77,0,0,0,3.41-2.69l.18.16a2.08,2.08,0,0,0-.11,2.44,2.47,2.47,0,0,0,1,1,3,3,0,0,0,1.54.25,4.61,4.61,0,0,0,3-1.66,13.68,13.68,0,0,0,1.93-3.38l.23-.52.11.57a8.31,8.31,0,0,0,1.52,4,3.39,3.39,0,0,0,1.87,1.06,2.07,2.07,0,0,0,2-.67,5.56,5.56,0,0,0,1.08-2.58,19.23,19.23,0,0,0,.37-2.79,45.09,45.09,0,0,0-.1-5.36c-.11-1.71-.22-3.35-.2-4.88a20.37,20.37,0,0,1,.47-4.24,11.67,11.67,0,0,1,2.69-5.52A6.7,6.7,0,0,1,146,239.33Z" style="fill:#455a64"></path><path d="M196.94,255.36s0,0-.13.12-.25.17-.41.3a5.44,5.44,0,0,1-.7.44,9.1,9.1,0,0,1-1,.53,14.62,14.62,0,0,1-7.06,1.27,18.69,18.69,0,0,1-9.94-3.67,32.41,32.41,0,0,1-8.54-9.85c-1.2-2-2.18-4-3.25-5.93a21.6,21.6,0,0,0-3.69-5,11.3,11.3,0,0,0-4.74-2.89,8.1,8.1,0,0,0-2.51-.28,8.46,8.46,0,0,0-2.29.44,9.5,9.5,0,0,0-3.43,2.06,9.35,9.35,0,0,0-1.86,2.42,11.18,11.18,0,0,0-.85,2.47s0-.06,0-.18,0-.3.08-.5a8.44,8.44,0,0,1,.62-1.86,9.47,9.47,0,0,1,1.85-2.5,9.68,9.68,0,0,1,3.49-2.17,8.9,8.9,0,0,1,2.37-.48,8,8,0,0,1,2.6.28,11.45,11.45,0,0,1,4.91,2.93,22,22,0,0,1,3.76,5.09c1.09,1.9,2.07,3.94,3.26,5.91a32.26,32.26,0,0,0,8.42,9.76,18.64,18.64,0,0,0,9.75,3.69,14.78,14.78,0,0,0,7-1.14A19.67,19.67,0,0,0,196.94,255.36Z" style="fill:#455a64"></path><path d="M198.44,248.12a2.42,2.42,0,0,1-.59.41,13.08,13.08,0,0,1-1.75.89,16.36,16.36,0,0,1-2.77.91,19.82,19.82,0,0,1-3.54.47,19.28,19.28,0,0,1-3.57-.24,16.4,16.4,0,0,1-2.82-.73,12.66,12.66,0,0,1-1.81-.78,2.28,2.28,0,0,1-.61-.37c0-.06.94.4,2.5.89a19.22,19.22,0,0,0,2.8.64,21.4,21.4,0,0,0,3.49.21,22.51,22.51,0,0,0,3.48-.43,19.49,19.49,0,0,0,2.75-.82C197.52,248.59,198.4,248.06,198.44,248.12Z" style="fill:#455a64"></path><path d="M185,273c-.33.33-2.23-1.2-5-1.27s-4.82,1.28-5.11.92c-.14-.16.2-.77,1.1-1.4a6.87,6.87,0,0,1,4.1-1.16,6.64,6.64,0,0,1,4,1.44C184.86,272.17,185.13,272.8,185,273Z" style="fill:#263238"></path><path d="M181.08,278.18a2.23,2.23,0,0,1-2.31,2.09,2.13,2.13,0,0,1-2.15-2.17,2.23,2.23,0,0,1,2.31-2.09A2.13,2.13,0,0,1,181.08,278.18Z" style="fill:#263238"></path><path d="M130.52,326.06l-19.73,8.24a68,68,0,0,0-30.3,24.5c-1.76,2.6-7.36,22.71-7.77,24.36-1.63,6.61-4.3,18-4.3,18H225.17s-4.63-44.79-15.8-53.44c-7.24-5.62-40.43-20.94-40.43-20.94s-3.2,8.19-13.44,8.45A36,36,0,0,1,130.52,326.06Z" style="fill:#263238"></path><path d="M173,256.36c0,.14-7,.26-15.73.26s-15.73-.12-15.73-.26,7-.26,15.73-.26S173,256.22,173,256.36Z" style="fill:#263238"></path><path d="M145.41,259a3.92,3.92,0,0,1-.68-2.12,3.81,3.81,0,0,1,.13-2.22,6.9,6.9,0,0,1,.39,2.16A6.57,6.57,0,0,1,145.41,259Z" style="fill:#263238"></path><path d="M151.12,258.35a6.8,6.8,0,0,1-.34-2.56,6.35,6.35,0,0,1,.18-2.58,6.62,6.62,0,0,1,.34,2.56A6.35,6.35,0,0,1,151.12,258.35Z" style="fill:#263238"></path><path d="M158,258a9.06,9.06,0,0,1-.38-4.3,4.54,4.54,0,0,1,.45,2.13A4.49,4.49,0,0,1,158,258Z" style="fill:#263238"></path><path d="M165.13,258.32a9.91,9.91,0,0,1,0-4.51,9.91,9.91,0,0,1,0,4.51Z" style="fill:#263238"></path><path d="M128.71,311.88l-.55-2.25H122a12.43,12.43,0,0,0,0,9.69h6.21l.63-2.23H133a4.35,4.35,0,0,0,0-5.21Z" style="fill:#e0e0e0"></path><path d="M128.71,311.88a9.55,9.55,0,0,1,1.18-.08l3.13-.08h.08l.05.07a4.94,4.94,0,0,1,.92,2.44,4.82,4.82,0,0,1-.86,3l-.07.1H133l-4.23,0,.24-.18c-.2.72-.41,1.47-.62,2.24l-.06.19h-6.58l-.06-.16a12.47,12.47,0,0,1-1-5.28,13.69,13.69,0,0,1,1-4.59l.06-.13H122l6.21.09h.1l0,.08c.13.67.25,1.22.34,1.66a2.9,2.9,0,0,1,.09.62,2.43,2.43,0,0,1-.18-.53c-.13-.46-.29-1-.48-1.69l.11.09-6.21.09.19-.13a13.58,13.58,0,0,0-.92,4.45,12.13,12.13,0,0,0,1,5.06l-.24-.15h6.21l-.24.18.63-2.23.06-.18h.18l4.23,0-.18.09a4.47,4.47,0,0,0,.84-2.7,4.74,4.74,0,0,0-.79-2.29l.13.07-3.21-.09A6.46,6.46,0,0,1,128.71,311.88Z" style="fill:#263238"></path><path d="M128.16,319.32a31.94,31.94,0,0,0,.62-4.84,32.2,32.2,0,0,0-.62-4.85,9,9,0,0,1,1.14,4.85A8.88,8.88,0,0,1,128.16,319.32Z" style="fill:#263238"></path><path d="M122.19,319.26a17.21,17.21,0,0,0,.82-4.81,16.87,16.87,0,0,0-1.07-4.75c.06,0,.42.41.81,1.24a9.39,9.39,0,0,1,.78,3.5,9.12,9.12,0,0,1-.6,3.53A3.09,3.09,0,0,1,122.19,319.26Z" style="fill:#263238"></path><path d="M116.56,331.89s17.57,20.55,33.67,16.22,27.5-17.22,27.5-17.22l-8.79-4.14-20.69,3.4-11.44-3.4-6.29-.69Z" style="fill:#455a64"></path><polygon points="135.46 344.18 138.09 361.59 142.85 345.99 135.46 344.18" style="fill:#455a64"></polygon><path d="M63.66,255.34a2.56,2.56,0,1,1-2.56-2.56A2.56,2.56,0,0,1,63.66,255.34Z" style="fill:#fff"></path><path d="M70.83,255.34a2.56,2.56,0,1,1-2.56-2.56A2.56,2.56,0,0,1,70.83,255.34Z" style="fill:#fff"></path><circle cx="75.44" cy="255.34" r="2.56" style="fill:#fff"></circle></g></svg>