<svg width="73" height="42" viewBox="0 0 73 42" fill="none" xmlns="http://www.w3.org/2000/svg">
<g clip-path="url(#clip0_268_213)">
<path d="M0.390381 0.00109863H11.1321L18.5374 7.40866V15.3853L6.45423 3.3661L6.41652 25.4883H0.390381V0.00109863Z" fill="white"/>
<path d="M27.3916 25.4883H16.6522L9.24805 18.0796V10.0996L21.3312 22.1164L21.3678 0H27.3916V25.4883Z" fill="white"/>
<path d="M38.4653 25.4883L37.8191 23.8236H37.7315C37.1693 24.5318 36.5889 25.0247 35.9902 25.3021C35.3987 25.5723 34.6248 25.7073 33.6683 25.7073C32.4928 25.7073 31.5655 25.3715 30.8865 24.6997C30.2148 24.028 29.8789 23.0715 29.8789 21.8303C29.8789 20.5307 30.3316 19.5742 31.237 18.9609C32.1497 18.3403 33.5223 17.9971 35.3549 17.9314L37.4796 17.8657V17.329C37.4796 16.0878 36.8444 15.4672 35.574 15.4672C34.5956 15.4672 33.4456 15.7629 32.1241 16.3543L31.0179 14.0982C32.4271 13.3608 33.9896 12.9921 35.7054 12.9921C37.3482 12.9921 38.6077 13.3498 39.4838 14.0654C40.36 14.7809 40.7981 15.8688 40.7981 17.329V25.4883H38.4653ZM37.4796 19.8151L36.1873 19.859C35.2162 19.8882 34.4934 20.0634 34.0188 20.3847C33.5442 20.7059 33.3069 21.1951 33.3069 21.8522C33.3069 22.7941 33.8472 23.265 34.9278 23.265C35.7018 23.265 36.3187 23.0423 36.7787 22.597C37.246 22.1516 37.4796 21.5602 37.4796 20.8227V19.8151Z" fill="white"/>
<path d="M44.1057 10.0788C44.1057 8.99097 44.7117 8.44702 45.9237 8.44702C47.1357 8.44702 47.7417 8.99097 47.7417 10.0788C47.7417 10.5972 47.5884 11.0024 47.2818 11.2945C46.9824 11.5792 46.5297 11.7216 45.9237 11.7216C44.7117 11.7216 44.1057 11.174 44.1057 10.0788ZM47.5884 25.4883H44.2481V13.244H47.5884V25.4883Z" fill="white"/>
<path d="M50.1183 30.8767C49.2641 30.8767 48.5303 30.7854 47.917 30.6029V27.9744C48.4281 28.1131 48.9501 28.1825 49.4831 28.1825C50.0453 28.1825 50.4542 28.0255 50.7097 27.7115C50.9726 27.3976 51.104 26.9339 51.104 26.3206V13.244H54.4444V26.8135C54.4444 28.1131 54.0684 29.1134 53.3163 29.8143C52.5643 30.5226 51.4983 30.8767 50.1183 30.8767ZM50.9616 10.0788C50.9616 8.99097 51.5676 8.44702 52.7797 8.44702C53.9917 8.44702 54.5977 8.99097 54.5977 10.0788C54.5977 10.5972 54.4444 11.0024 54.1377 11.2945C53.8384 11.5792 53.3857 11.7216 52.7797 11.7216C51.5676 11.7216 50.9616 11.174 50.9616 10.0788Z" fill="white"/>
<path d="M65.7358 25.4883L65.0896 23.8236H65.002C64.4398 24.5318 63.8593 25.0247 63.2606 25.3021C62.6692 25.5723 61.8953 25.7073 60.9388 25.7073C59.7633 25.7073 58.836 25.3715 58.157 24.6997C57.4853 24.028 57.1494 23.0715 57.1494 21.8303C57.1494 20.5307 57.6021 19.5742 58.5075 18.9609C59.4201 18.3403 60.7928 17.9971 62.6254 17.9314L64.7501 17.8657V17.329C64.7501 16.0878 64.1149 15.4672 62.8445 15.4672C61.8661 15.4672 60.7161 15.7629 59.3946 16.3543L58.2884 14.0982C59.6976 13.3608 61.2601 12.9921 62.9759 12.9921C64.6187 12.9921 65.8782 13.3498 66.7543 14.0654C67.6305 14.7809 68.0686 15.8688 68.0686 17.329V25.4883H65.7358ZM64.7501 19.8151L63.4578 19.859C62.4867 19.8882 61.7639 20.0634 61.2893 20.3847C60.8147 20.7059 60.5774 21.1951 60.5774 21.8522C60.5774 22.7941 61.1177 23.265 62.1983 23.265C62.9722 23.265 63.5892 23.0423 64.0492 22.597C64.5165 22.1516 64.7501 21.5602 64.7501 20.8227V19.8151Z" fill="white"/>
<path d="M0 28.7002H4.07713C5.93499 28.7002 7.28208 28.966 8.11842 29.4977C8.96072 30.0234 9.38188 30.8627 9.38188 32.0157C9.38188 32.7982 9.19669 33.4404 8.82631 33.9422C8.46191 34.444 7.97505 34.7457 7.36572 34.8473V34.9369C8.19608 35.1221 8.79346 35.4685 9.15786 35.9763C9.52824 36.4841 9.71343 37.1591 9.71343 38.0014C9.71343 39.1962 9.28032 40.1281 8.41412 40.7972C7.55389 41.4663 6.38302 41.8008 4.90152 41.8008H0V28.7002ZM2.77782 33.8885H4.39076C5.14346 33.8885 5.68707 33.772 6.02161 33.539C6.36211 33.306 6.53237 32.9207 6.53237 32.3831C6.53237 31.8813 6.34718 31.5228 5.9768 31.3078C5.6124 31.0867 5.03294 30.9762 4.23842 30.9762H2.77782V33.8885ZM2.77782 36.0928V39.5068H4.58789C5.35254 39.5068 5.91707 39.3605 6.28147 39.0678C6.64587 38.775 6.82807 38.327 6.82807 37.7237C6.82807 36.6364 6.05148 36.0928 4.49828 36.0928H2.77782Z" fill="white"/>
<path d="M23.1994 35.125C23.1994 37.2816 22.5841 38.9334 21.3535 40.0803C20.1289 41.2273 18.3576 41.8008 16.0398 41.8008H12.3301V28.7002H16.443C18.5817 28.7002 20.2424 29.2647 21.4252 30.3938C22.608 31.5228 23.1994 33.0999 23.1994 35.125ZM20.3141 35.1967C20.3141 32.3831 19.0715 30.9762 16.5864 30.9762H15.1079V39.5068H16.2997C18.9759 39.5068 20.3141 38.0701 20.3141 35.1967Z" fill="white"/>
<path d="M31.479 30.8239C30.4336 30.8239 29.6242 31.2182 29.0507 32.0067C28.4772 32.7893 28.1904 33.8825 28.1904 35.2863C28.1904 38.2075 29.2866 39.6681 31.479 39.6681C32.399 39.6681 33.5131 39.4381 34.8214 38.9782V41.3079C33.7461 41.756 32.5454 41.98 31.2192 41.98C29.3135 41.98 27.8559 41.4035 26.8463 40.2506C25.8368 39.0917 25.332 37.4309 25.332 35.2684C25.332 33.9064 25.5799 32.7146 26.0757 31.6931C26.5715 30.6656 27.2824 29.88 28.2084 29.3364C29.1403 28.7868 30.2305 28.512 31.479 28.512C32.7514 28.512 34.0298 28.8197 35.3142 29.435L34.4181 31.6931C33.9283 31.4601 33.4355 31.257 32.9396 31.0838C32.4438 30.9105 31.9569 30.8239 31.479 30.8239Z" fill="white"/>
<path d="M45.3503 38.1627C45.3503 39.3455 44.9232 40.2775 44.0689 40.9585C43.2207 41.6395 42.0378 41.98 40.5205 41.98C39.1226 41.98 37.886 41.7172 36.8108 41.1915V38.6108C37.6949 39.005 38.4416 39.2828 39.0509 39.4441C39.6662 39.6054 40.2278 39.6861 40.7356 39.6861C41.3449 39.6861 41.8108 39.5696 42.1334 39.3366C42.462 39.1036 42.6263 38.7571 42.6263 38.2971C42.6263 38.0403 42.5546 37.8133 42.4112 37.6161C42.2678 37.413 42.0558 37.2189 41.775 37.0337C41.5002 36.8485 40.9357 36.5528 40.0814 36.1466C39.2809 35.7702 38.6806 35.4088 38.2803 35.0623C37.8801 34.7158 37.5605 34.3126 37.3215 33.8526C37.0826 33.3926 36.9631 32.855 36.9631 32.2397C36.9631 31.0808 37.3544 30.1698 38.1369 29.5067C38.9255 28.8436 40.0127 28.512 41.3986 28.512C42.0797 28.512 42.7278 28.5927 43.3431 28.754C43.9644 28.9153 44.6126 29.1423 45.2876 29.435L44.3915 31.5945C43.6926 31.3078 43.1131 31.1077 42.6531 30.9942C42.1991 30.8806 41.7511 30.8239 41.309 30.8239C40.7833 30.8239 40.3801 30.9464 40.0993 31.1913C39.8186 31.4362 39.6782 31.7558 39.6782 32.1501C39.6782 32.395 39.7349 32.6101 39.8484 32.7953C39.9619 32.9745 40.1412 33.1507 40.3861 33.3239C40.637 33.4912 41.2254 33.7959 42.1513 34.2379C43.376 34.8234 44.2153 35.4118 44.6693 36.0032C45.1233 36.5886 45.3503 37.3085 45.3503 38.1627Z" fill="white"/>
<path d="M46.6675 40.148C46.6675 39.8812 46.7272 39.6801 46.8467 39.5447C46.9701 39.4053 47.1454 39.3356 47.3724 39.3356C47.6034 39.3356 47.7826 39.4053 47.91 39.5447C48.0414 39.6801 48.1071 39.8812 48.1071 40.148C48.1071 40.4069 48.0414 40.606 47.91 40.7454C47.7786 40.8848 47.5994 40.9545 47.3724 40.9545C47.1693 40.9545 47 40.8928 46.8646 40.7693C46.7332 40.6419 46.6675 40.4348 46.6675 40.148Z" fill="white"/>
<path d="M52.689 40.9007C51.7411 40.9007 51.0063 40.61 50.4846 40.0286C49.9669 39.4431 49.708 38.6167 49.708 37.5494C49.708 36.4542 49.9709 35.6079 50.4966 35.0105C51.0263 34.4132 51.779 34.1145 52.7547 34.1145C53.0693 34.1145 53.3839 34.1483 53.6985 34.216C54.0132 34.2837 54.2601 34.3634 54.4393 34.455L54.1346 35.2973C53.9156 35.2097 53.6766 35.138 53.4178 35.0822C53.1589 35.0225 52.9299 34.9926 52.7308 34.9926C51.4006 34.9926 50.7355 35.8409 50.7355 37.5375C50.7355 38.3419 50.8968 38.9592 51.2194 39.3894C51.546 39.8195 52.0279 40.0345 52.6651 40.0345C53.2107 40.0345 53.7702 39.917 54.3437 39.6821V40.5602C53.9056 40.7872 53.354 40.9007 52.689 40.9007Z" fill="white"/>
<path d="M61.5542 37.5016C61.5542 38.569 61.2854 39.4033 60.7477 40.0047C60.2101 40.602 59.4674 40.9007 58.5195 40.9007C57.9341 40.9007 57.4144 40.7633 56.9603 40.4885C56.5063 40.2137 56.1559 39.8195 55.909 39.3057C55.662 38.792 55.5386 38.1906 55.5386 37.5016C55.5386 36.4343 55.8054 35.6039 56.3391 35.0105C56.8727 34.4132 57.6135 34.1145 58.5613 34.1145C59.4773 34.1145 60.2041 34.4191 60.7418 35.0285C61.2834 35.6378 61.5542 36.4622 61.5542 37.5016ZM56.5661 37.5016C56.5661 38.338 56.7333 38.9752 57.0679 39.4132C57.4024 39.8513 57.8942 40.0704 58.5434 40.0704C59.1926 40.0704 59.6844 39.8533 60.0189 39.4192C60.3575 38.9811 60.5267 38.3419 60.5267 37.5016C60.5267 36.6693 60.3575 36.038 60.0189 35.6079C59.6844 35.1738 59.1886 34.9568 58.5315 34.9568C57.8823 34.9568 57.3924 35.1698 57.0619 35.596C56.7313 36.0221 56.5661 36.6573 56.5661 37.5016Z" fill="white"/>
<path d="M71.644 40.7813V36.5219C71.644 36.0002 71.5325 35.6099 71.3094 35.3511C71.0864 35.0882 70.7399 34.9568 70.27 34.9568C69.6527 34.9568 69.1967 35.134 68.902 35.4885C68.6073 35.8429 68.4599 36.3885 68.4599 37.1253V40.7813H67.4683V36.5219C67.4683 36.0002 67.3568 35.6099 67.1338 35.3511C66.9107 35.0882 66.5623 34.9568 66.0883 34.9568C65.4671 34.9568 65.0111 35.144 64.7203 35.5183C64.4336 35.8887 64.2902 36.498 64.2902 37.3463V40.7813H63.2986V34.234H64.105L64.2663 35.13H64.3141C64.5013 34.8114 64.7641 34.5625 65.1027 34.3833C65.4452 34.2041 65.8275 34.1145 66.2496 34.1145C67.2731 34.1145 67.9422 34.4849 68.2568 35.2256H68.3046C68.4998 34.8831 68.7825 34.6123 69.1529 34.4132C69.5233 34.214 69.9454 34.1145 70.4193 34.1145C71.1601 34.1145 71.7137 34.3056 72.0801 34.688C72.4504 35.0663 72.6356 35.6736 72.6356 36.51V40.7813H71.644Z" fill="white"/>
</g>
<defs>
<clipPath id="clip0_268_213">
<rect width="73" height="42" fill="white"/>
</clipPath>
</defs>
</svg>
