<svg width="24" height="24" viewBox="0 0 24 24" fill="none" xmlns="http://www.w3.org/2000/svg">
<path d="M24 3.99988H0V20.0001H24V3.99988Z" fill="#F0F0F0"/>
<path d="M24 5.99976H0V7.99958H24V5.99976Z" fill="#D80027"/>
<path d="M24 9.99988H0V11.9997H24V9.99988Z" fill="#D80027"/>
<path d="M24 13.9996H0V15.9995H24V13.9996Z" fill="#D80027"/>
<path d="M24 17.9998H0V19.9996H24V17.9998Z" fill="#D80027"/>
<path d="M12 3.99988H0V12.6154H12V3.99988Z" fill="#2E52B2"/>
<path d="M4.67899 7.5293L4.48572 8.12386H3.8606L4.36642 8.49113L4.17316 9.08564L4.67899 8.71837L5.18449 9.08564L4.99127 8.49113L5.4971 8.12386H4.87192L4.67899 7.5293Z" fill="#F0F0F0"/>
<path d="M4.87192 10.2694L4.67899 9.67493L4.48572 10.2694H3.8606L4.36642 10.6368L4.17316 11.2313L4.67899 10.864L5.18449 11.2313L4.99127 10.6368L5.4971 10.2694H4.87192Z" fill="#F0F0F0"/>
<path d="M2.23012 10.2694L2.03714 9.67493L1.84388 10.2694H1.21875L1.72458 10.6368L1.53131 11.2313L2.03714 10.864L2.54269 11.2313L2.34947 10.6368L2.8552 10.2694H2.23012Z" fill="#F0F0F0"/>
<path d="M2.03714 7.5293L1.84388 8.12386H1.21875L1.72458 8.49113L1.53131 9.08564L2.03714 8.71837L2.54269 9.08564L2.34947 8.49113L2.8552 8.12386H2.23012L2.03714 7.5293Z" fill="#F0F0F0"/>
<path d="M4.67899 5.38367L4.48572 5.97828H3.8606L4.36642 6.34559L4.17316 6.9401L4.67899 6.57279L5.18449 6.9401L4.99127 6.34559L5.4971 5.97828H4.87192L4.67899 5.38367Z" fill="#F0F0F0"/>
<path d="M2.03714 5.38367L1.84388 5.97828H1.21875L1.72458 6.34559L1.53131 6.9401L2.03714 6.57279L2.54269 6.9401L2.34947 6.34559L2.8552 5.97828H2.23012L2.03714 5.38367Z" fill="#F0F0F0"/>
<path d="M7.32103 7.5293L7.12781 8.12386H6.50269L7.00847 8.49113L6.81529 9.08564L7.32103 8.71837L7.82662 9.08564L7.63336 8.49113L8.13919 8.12386H7.51406L7.32103 7.5293Z" fill="#F0F0F0"/>
<path d="M7.51406 10.2694L7.32103 9.67493L7.12781 10.2694H6.50269L7.00847 10.6368L6.81529 11.2313L7.32103 10.864L7.82662 11.2313L7.63336 10.6368L8.13919 10.2694H7.51406Z" fill="#F0F0F0"/>
<path d="M10.1561 10.2694L9.96312 9.67493L9.76985 10.2694H9.14478L9.65051 10.6368L9.45729 11.2313L9.96312 10.864L10.4687 11.2313L10.2754 10.6368L10.7812 10.2694H10.1561Z" fill="#F0F0F0"/>
<path d="M9.96312 7.5293L9.76985 8.12386H9.14478L9.65051 8.49113L9.45729 9.08564L9.96312 8.71837L10.4687 9.08564L10.2754 8.49113L10.7812 8.12386H10.1561L9.96312 7.5293Z" fill="#F0F0F0"/>
<path d="M7.32103 5.38367L7.12781 5.97828H6.50269L7.00847 6.34559L6.81529 6.9401L7.32103 6.57279L7.82662 6.9401L7.63336 6.34559L8.13919 5.97828H7.51406L7.32103 5.38367Z" fill="#F0F0F0"/>
<path d="M9.96312 5.38367L9.76985 5.97828H9.14478L9.65051 6.34559L9.45729 6.9401L9.96312 6.57279L10.4687 6.9401L10.2754 6.34559L10.7812 5.97828H10.1561L9.96312 5.38367Z" fill="#F0F0F0"/>
</svg>
